<svg width="231" height="306" viewBox="0 0 231 306" fill="none" xmlns="http://www.w3.org/2000/svg">
<g clip-path="url(#clip0)">
<path opacity="0.94" d="M115.336 301.063C176.405 301.063 225.912 234.876 225.912 153.231C225.912 71.5849 176.405 5.398 115.336 5.398C54.266 5.398 4.75932 71.5849 4.75932 153.231C4.75932 234.876 54.266 301.063 115.336 301.063Z" fill="white" fill-opacity="0.979757" stroke="#00000B" stroke-width="5"/>
<path d="M114.017 5.60163C90.2609 5.8106 67.8173 16.8451 51.4275 32.7918C23.852 59.4086 9.80203 96.385 5.87246 133.051C4.65761 148.577 5.00389 164.244 6.55047 179.737C11.7558 214.876 25.9474 250.209 53.1359 275.302C68.3712 289.327 88.4546 299.422 109.817 300.733C123.206 301.019 136.919 299.658 149.059 293.898C177.744 281.566 197.83 256.207 210.007 229.289C228.389 187.788 230.526 140.218 217.479 97.0438C209.274 70.5023 194.825 44.9838 172.363 26.9274C156.487 13.5244 135.441 4.98496 114.017 5.60163Z" fill="white" stroke="url(#paint0_radial)" stroke-width="1.592"/>
<path d="M113.935 2.65152C85.6613 2.92843 59.6031 18.0071 41.9359 38.3139C17.9312 65.7365 5.52656 101.114 2.55532 136.37C1.63702 159.038 1.9899 182.07 8.44912 204.076C15.4895 228.877 27.1713 253.108 45.6709 272.098C57.5103 284.212 71.9755 294.222 88.5564 299.529C104.228 305.103 121.552 304.387 137.661 301.059C163.412 293.975 184.673 276.059 199.043 254.93C225.239 216.239 233.452 168.073 226.512 122.916C221.015 88.5469 206.589 54.2904 180.175 29.6123C162.643 13.2373 138.863 2.13581 113.935 2.65152Z" fill="white" stroke="black" stroke-width="2.73434"/>
<path d="M136.016 107.255C136.016 107.255 145.709 111.955 142.124 136.248C137.604 161.22 127.126 165.997 122.133 170.858L97.1066 189.988" stroke="black" stroke-width="1.04936"/>
<path d="M164.85 185.66C189.581 130.441 166.028 90.849 166.028 90.849C162.393 85.3999 160.537 80.3443 153.663 74.1788C146.421 67.1798 138.544 61.8661 129.521 59.5925C117.341 58.1013 105.19 56.4221 92.4253 58.5506C82.9034 59.7483 78.2236 61.8028 72.9942 63.76C66.5522 68.2587 62.613 74.0859 60.629 80.9511L61.2178 115.333C62.788 119.126 64.3582 121.189 65.9284 122.626C66.2066 123.971 66.3951 125.306 66.5133 126.633C66.5355 126.882 66.5552 127.131 66.5726 127.38C66.5927 127.667 66.6096 127.954 66.6236 128.241C66.6393 128.562 66.6513 128.882 66.6599 129.203C66.9386 139.569 63.6551 149.547 66.3289 160.276C71.3853 165.378 73.226 164.063 77.4644 164.823C80.0499 164.054 82.0463 163.286 83.605 162.517C85.5683 161.549 86.8373 160.581 87.7147 159.613C93.3236 150.995 93.3455 144.354 94.7806 137.213C96.0797 129.727 99.6637 120.286 98.4737 117.938C103.63 112.051 108.078 109.27 112.676 104.745C117.271 99.9445 121.414 94.311 126.009 84.8489" stroke="black" stroke-width="1.04936"/>
<path d="M61.1754 100.808L66.2186 105.499L77.7183 98.4465L91.7659 91.6406L98.4552 86.4131L98.6039 93.7126L93.931 98.2459C94.9299 100.733 94.762 104.596 95.0136 107.965C96.7851 110.689 97.6699 114.594 98.4738 117.938C94.1311 118.493 82.6762 111.21 79.3907 113.405" stroke="black" stroke-width="0.262339"/>
<path d="M74.3737 120.048C74.3737 120.048 73.9366 122.223 72.7446 122.621C72.1095 123.028 71.1763 123.234 69.7827 123.416C68.4542 123.346 67.1325 123.246 65.9283 122.626" stroke="black" stroke-width="0.262339"/>
<path d="M74.3737 120.048L75.2693 125.322L75.4704 128.259L74.9675 131.284L75.7722 136.98L80.003 129.839L79.6991 122.736L78.5885 116.957C77.2763 114.273 79.3907 113.405 79.3907 113.405" stroke="black" stroke-width="0.262339"/>
<path d="M68.4126 162.079C68.0909 160.869 67.0143 159.673 67.2356 158.27C67.098 157.038 67.6019 156.016 68.0412 154.988C68.943 153.023 69.9553 151.894 71.6252 150.606L74.384 149.007L71.9675 152.076C70.8402 153.521 70.6908 154.534 70.4837 155.572C70.1418 158.135 70.7782 159.675 71.3201 160.465C71.9502 161.315 72.8026 161.853 73.4327 162.389L75.3353 163.735L77.4644 164.823" stroke="black" stroke-width="0.262339"/>
<path d="M96.207 117.673L95.5227 122.92L93.0519 132.301L91.7972 138.86L90.5425 146.832L88.6035 152.685L85.98 157.832C85.98 157.832 83.9269 160.96 77.5394 162.373C74.3288 163.104 74.0986 162.246 73.4327 162.389" stroke="black" stroke-width="0.262339"/>
<path d="M76.0785 164.461C75.9664 164.447 75.3912 164.396 74.8003 164.349C73.5622 164.251 72.9725 164.174 72.374 164.033C71.2032 163.758 70.1634 163.249 68.9741 162.369C68.7547 162.207 68.5943 162.064 68.5943 162.03C68.5943 161.924 68.3431 161.307 68.0595 160.717C67.4484 159.444 67.3981 159.238 67.4187 158.097C67.4324 157.337 67.4422 157.235 67.5348 156.88C67.709 156.212 68.1702 155.101 68.617 154.271C69.2486 153.099 70.0899 152.097 71.2249 151.164C71.6013 150.855 71.8605 150.683 72.6094 150.246C73.1162 149.951 73.5387 149.716 73.5483 149.724C73.5579 149.733 73.1452 150.274 72.6311 150.927C71.5704 152.274 71.4229 152.477 71.1403 152.976C70.6929 153.767 70.4032 154.701 70.2567 155.826C70.1967 156.287 70.1968 157.596 70.2569 158.021C70.4191 159.169 70.7956 160.133 71.3365 160.786C71.8014 161.348 72.8199 162.186 74.3371 163.255C75.0679 163.769 75.3603 163.953 75.8372 164.195C76.163 164.36 76.3964 164.493 76.3559 164.491C76.3154 164.489 76.1906 164.475 76.0785 164.461V164.461Z" fill="black" stroke="black" stroke-width="0.0264339"/>
<path d="M76.4675 164.114C75.6342 163.687 75.3664 163.53 74.8636 163.175C74.5316 162.941 74.266 162.744 74.2733 162.738C74.2806 162.732 74.4105 162.749 74.5619 162.777C75.1375 162.884 76.1409 162.83 77.0974 162.641C79.7897 162.109 82.3147 161.098 84.0816 159.845C84.8916 159.27 85.6551 158.58 86.0234 158.089C86.095 157.994 86.7452 156.755 87.4683 155.336L88.783 152.757L89.7533 149.833L90.7235 146.909L91.0624 144.762L91.4014 142.615L92.5209 142.607C93.2415 142.601 93.6403 142.609 93.6403 142.631C93.6403 142.7 93.3707 144.233 93.2105 145.074C92.3906 149.38 91.3134 152.637 89.598 155.998C89.247 156.686 88.3959 158.177 87.9407 158.901C87.5276 159.559 87.3462 159.767 86.7002 160.322C84.9666 161.812 82.3629 163.082 78.5205 164.31C78.0399 164.464 77.6064 164.598 77.5572 164.608C77.4882 164.623 77.2408 164.511 76.4675 164.114V164.114Z" fill="black" stroke="black" stroke-width="0.0264339"/>
<path d="M61.2567 105.091C61.2292 104.641 61.2173 103.574 61.2303 102.718L61.2538 101.163L63.694 103.436C65.0361 104.686 66.1646 105.708 66.2018 105.708C66.2391 105.708 68.8736 104.111 72.0565 102.159L77.8434 98.6103L84.8783 95.2006L91.9131 91.7908L95.0264 89.3544C96.7387 88.0144 98.1632 86.9091 98.1919 86.8983C98.2205 86.8875 98.2647 87.9238 98.29 89.2012C98.3153 90.4787 98.3541 91.9915 98.376 92.563L98.416 93.6022L96.6601 95.3044C95.6943 96.2406 94.6362 97.2681 94.3086 97.5876L93.713 98.1687L93.9492 99.0182C94.3422 100.432 94.5148 101.785 94.6028 104.14C94.6261 104.764 94.6622 105.417 94.683 105.592L94.7207 105.909H78.0138H61.3068L61.2567 105.091Z" fill="black" stroke="black" stroke-width="0.05383"/>
<path d="M91.4713 142.428C91.4713 142.085 92.0741 138.563 92.6379 135.613C93.2088 132.625 93.386 131.868 94.488 127.703L95.7068 123.097L96.0425 120.565C96.2271 119.172 96.3891 118.023 96.4023 118.011C96.4156 117.999 96.6064 118.02 96.8262 118.057C97.0461 118.094 97.4753 118.124 97.7801 118.124C98.3203 118.124 98.3357 118.129 98.3923 118.308C98.4985 118.644 98.4478 120.463 98.3099 121.261C98.082 122.581 97.5494 124.843 96.6516 128.304C95.3256 133.414 95.12 134.289 94.5965 137.048C94.2669 138.785 93.6596 142.3 93.6594 142.472C93.6593 142.535 93.3901 142.555 92.5653 142.555C91.5405 142.555 91.4713 142.547 91.4713 142.428V142.428Z" fill="black" stroke="black" stroke-width="0.05383"/>
<path d="M136.016 107.255C136.016 107.255 129.142 101.267 117.403 99.0696" stroke="black" stroke-width="1.04936"/>
<path d="M103.079 83.3178C105.859 81.236 107.41 79.4368 108.584 77.7245C109.941 75.6952 110.223 73.3223 110.223 73.3223C110.64 70.9158 110.195 69.5652 110.195 69.5652" stroke="black" stroke-width="0.972752"/>
<path d="M97.1067 189.988C92.5569 193.034 86.0001 201.105 83.5175 208.266L83.5018 214.084" stroke="black" stroke-width="1.04936"/>
<path d="M75.8901 136.04C75.858 135.953 75.6896 134.848 75.5159 133.585L75.2 131.289L75.4593 129.76C75.6949 128.372 75.7072 128.084 75.5932 126.621C75.5242 125.736 75.277 123.906 75.0439 122.555C74.8109 121.204 74.6202 120.076 74.6202 120.049C74.6202 120.021 74.5204 119.998 74.3984 119.998C74.23 119.998 74.1135 120.17 73.9145 120.711C73.5527 121.694 73.1907 122.138 72.4406 122.518C71.0705 123.211 68.9749 123.341 67.1646 122.845C66.4699 122.655 66.224 122.521 65.7016 122.047C64.5075 120.964 62.9486 118.602 61.9201 116.318C61.4125 115.191 61.428 115.378 61.3302 109.207L61.2787 105.962H77.9569H94.6351L94.7215 107.044C94.7892 107.891 94.8682 108.217 95.0858 108.548C95.5079 109.189 96.2664 110.947 96.7281 112.353C97.1564 113.659 98.1203 117.309 98.1203 117.626C98.1203 117.784 98.0354 117.797 97.4355 117.731C95.9379 117.565 94.1905 117.001 88.9349 114.984C84.3361 113.219 82.6611 112.772 80.9022 112.837C80.0469 112.87 79.8288 112.919 79.3263 113.194C79.0055 113.369 78.582 113.716 78.3851 113.963C77.9029 114.57 77.8249 115.551 78.1761 116.59C78.3092 116.985 78.66 118.59 78.9555 120.157C79.467 122.87 79.4994 123.168 79.6305 126.386L79.7681 129.766L77.9556 132.824C76.9587 134.506 76.0993 135.953 76.0457 136.04C75.9592 136.181 75.9419 136.181 75.8901 136.04L75.8901 136.04Z" fill="black" stroke="black" stroke-width="0.340433"/>
<path d="M74.0243 162.281C73.3407 162.119 71.8285 160.854 71.3785 160.068C70.3461 158.266 70.4233 155.15 71.5488 153.19C71.7935 152.764 72.5885 151.666 73.3155 150.75C74.4212 149.358 74.6104 149.062 74.4727 148.94C74.3351 148.819 74.0666 148.934 72.8388 149.639C70.59 150.931 69.3623 152.104 68.316 153.96C67.3505 155.673 67.103 156.461 67.0494 157.994C67.0054 159.251 67.0252 159.402 67.3265 160.106C67.8412 161.309 67.8309 161.349 67.1653 160.732C66.4822 160.099 66.439 159.981 66.0441 157.669C65.6819 155.549 65.5533 153.758 65.5553 150.866C65.5571 148.423 65.6066 147.185 65.9303 143.677C66.0103 142.81 66.1071 141.804 66.2241 140.608C66.4569 138.224 66.7044 135.435 66.7739 134.41C67.0129 130.885 66.8955 127.028 66.4666 124.313C66.3685 123.693 66.3099 123.166 66.3363 123.142C66.3626 123.119 66.6923 123.179 67.0688 123.276C68.8479 123.734 70.9412 123.643 72.3652 123.047C73.3005 122.656 73.6289 122.385 73.9926 121.704L74.3206 121.091L74.708 123.537C75.2632 127.042 75.3 127.871 74.984 129.743L74.7227 131.291L75.1632 134.374C75.4055 136.07 75.6242 137.475 75.6492 137.497C75.7152 137.555 76.074 136.976 78.2725 133.258L80.2485 129.917L80.0736 126.163C79.905 122.543 79.8788 122.308 79.3425 119.592C79.0365 118.043 78.6965 116.556 78.5868 116.288C78.2807 115.54 78.3917 114.662 78.8571 114.15C79.4562 113.491 80.0915 113.238 81.1342 113.244C82.7663 113.252 84.6553 113.804 89.6134 115.718C92.6147 116.877 95.2763 117.805 95.601 117.805C95.7007 117.805 95.8141 117.85 95.853 117.906C95.8918 117.961 95.7807 119.095 95.6061 120.424C95.3299 122.527 95.1286 123.449 94.0618 127.5C92.7154 132.612 92.0192 136.014 90.9689 142.612L90.305 146.782L89.3326 149.707C88.4989 152.215 88.1803 152.987 87.0984 155.123C86.3828 156.537 85.6256 157.863 85.3489 158.188C83.9784 159.8 80.9024 161.36 77.6195 162.109C76.089 162.458 74.9896 162.511 74.0243 162.281Z" fill="#FF9955" stroke="black" stroke-width="0.658994"/>
<g style="mix-blend-mode:overlay">
<path d="M104.448 56.9283C93.582 57.1832 82.3433 58.6919 72.7082 63.3441C66.7158 67.3464 62.4009 73.3144 60.208 79.561C60.2403 86.7297 59.73 93.9846 60.091 101.101C61.661 103.149 63.9087 105.274 66.4418 106.412C72.2974 103.62 77.4602 99.8 83.4075 97.0513C88.1575 94.8034 93.1337 92.0749 97.0468 89.1359C97.2535 91.5838 97.1484 94.1964 94.734 95.8357C91.5065 98.5273 93.4691 102.846 93.7744 106.265C94.8253 109.759 95.122 113.769 97.6576 116.707C100.586 117.963 102.312 114.325 104.392 113.104C109.378 108.728 114.335 104.259 118.303 99.1064C121.245 101.477 125.642 101.725 128.947 103.751C134.855 106.433 140.246 110.977 141.02 117.11C143.184 132.165 140.835 148.336 131.129 161.114C121.525 171.642 108.922 179.496 97.8052 188.68C90.9571 193.57 85.9509 200.302 82.9333 207.574C83.4047 210.91 86.8702 213.408 88.6027 216.386C90.5791 218.191 91.3317 221.973 94.586 222.033C100.674 219.135 107.408 217.614 114.259 217.016C128.21 214.644 141.459 209.145 152.858 201.706C163.74 192.672 168.883 179.673 172.384 167.152C179.572 141.781 178.97 113.855 166.234 89.9127C158.81 76.2783 146.416 63.6594 129.684 59.0064C121.392 57.5731 112.899 56.8461 104.448 56.9283Z" fill="#4D4D4D"/>
<path d="M104.448 56.9283C93.582 57.1832 82.3433 58.6919 72.7082 63.3441C66.7158 67.3464 62.4009 73.3144 60.208 79.561C60.2403 86.7297 59.73 93.9846 60.091 101.101C61.661 103.149 63.9087 105.274 66.4418 106.412C72.2974 103.62 77.4602 99.8 83.4075 97.0513C88.1575 94.8034 93.1337 92.0749 97.0468 89.1359C97.2535 91.5838 97.1484 94.1964 94.734 95.8357C91.5065 98.5273 93.4691 102.846 93.7744 106.265C94.8253 109.759 95.122 113.769 97.6576 116.707C100.586 117.963 102.312 114.325 104.392 113.104C109.378 108.728 114.335 104.259 118.303 99.1064C121.245 101.477 125.642 101.725 128.947 103.751C134.855 106.433 140.246 110.977 141.02 117.11C143.184 132.165 140.835 148.336 131.129 161.114C121.525 171.642 108.922 179.496 97.8052 188.68C90.9571 193.57 85.9509 200.302 82.9333 207.574C83.4047 210.91 86.8702 213.408 88.6027 216.386C90.5791 218.191 91.3317 221.973 94.586 222.033C100.674 219.135 107.408 217.614 114.259 217.016C128.21 214.644 141.459 209.145 152.858 201.706C163.74 192.672 168.883 179.673 172.384 167.152C179.572 141.781 178.97 113.855 166.234 89.9127C158.81 76.2783 146.416 63.6594 129.684 59.0064C121.392 57.5731 112.899 56.8461 104.448 56.9283Z" stroke="black" stroke-width="0.400857"/>
</g>
<path d="M83.5174 208.266L93.6575 221.722C99.1527 218.92 102.939 218.006 106.746 217.071C115.588 216.559 123.201 214.688 130.263 212.207C141.574 207.916 146.719 204.793 151.935 201.657C156.797 198.048 160.869 191.994 164.85 185.66L165.028 205.85C163.211 208.874 162.148 211.698 156.058 215.857C153.123 218.179 148.997 220.853 138.118 225.518C132.019 228.237 122.441 231.981 112.378 235.869C98.3013 247.762 98.9438 251.185 95.5501 257.262C92.5243 263.953 91.0536 272.548 89.3675 282.795L88.8782 299.036" stroke="black" stroke-width="1.04936"/>
<path d="M165.028 205.85L172.074 213.097C180.05 214.851 186.824 217.882 192.773 221.788C198.858 225.75 199.534 227.585 202.349 230.26L207.826 238.195" stroke="black" stroke-width="1.04936"/>
<path d="M77.1321 218.864C74.0639 219.192 71.8722 220.296 70.0154 221.697C68.6494 222.838 67.5657 223.979 66.8708 225.121" stroke="black" stroke-width="1.04936"/>
<path d="M66.8709 225.121C63.9938 234.847 63.2721 247.464 62.467 256.273" stroke="black" stroke-width="1.04936"/>
<path d="M103.857 230.407C102.702 230.228 100.952 229.824 99.9669 229.508C98.4137 229.012 94.6445 227.401 92.7886 226.441C92.1885 226.131 92.1885 226.131 89.5962 227.117C86.7786 228.188 85.2334 228.565 82.9002 228.748L81.3884 228.867L80.6278 227.301C79.4357 224.847 78.0281 220.878 77.2559 217.793C76.5863 215.118 75.5351 210.216 75.5351 209.768C75.5351 209.556 78.5011 211.303 81.9185 213.528C84.7511 215.371 88.3034 217.91 91.0333 220.042C92.371 221.086 93.5273 221.941 93.603 221.941C93.6787 221.941 95.0592 221.357 96.6708 220.644C99.3758 219.447 105.263 217.529 106.229 217.529C106.824 217.529 107.161 220.215 107.115 224.588C107.073 228.484 106.769 230.652 106.255 230.703C106.091 230.719 105.011 230.586 103.857 230.407V230.407Z" fill="black" stroke="black" stroke-width="0.569288"/>
<path d="M93.7876 299.872C92.3613 299.651 90.6732 299.372 90.0363 299.253L88.8782 299.036L88.9995 296.976C89.0662 295.844 89.2474 292.138 89.4021 288.74C89.6894 282.431 89.8388 281.203 91.2066 273.916C92.3833 267.646 93.5988 263.005 94.9741 259.532C95.8966 257.202 98.2943 252.226 99.5659 250.002C101.364 246.856 104.792 243.008 109.738 238.583L112.539 236.077L118.324 233.839C135.669 227.131 146.625 222.3 152.036 218.976C154.485 217.472 158.739 214.308 160.298 212.831C161.917 211.297 163.148 209.714 164.229 207.776C164.648 207.023 165.047 206.427 165.115 206.453C165.183 206.478 166.695 207.991 168.476 209.817L171.713 213.135L169.954 216.407L168.194 219.68L165.202 221.573C151.156 230.462 139.376 236.177 124.009 241.557L120.518 242.779L118.357 244.67C111.248 250.89 107.141 256.053 104.851 261.65C101.797 269.112 100.833 272.263 99.8748 277.926C99.4689 280.323 99.3267 281.893 98.5035 293.064L97.9768 300.212L97.1788 300.243C96.74 300.259 95.2139 300.092 93.7876 299.872V299.872Z" fill="black" stroke="black" stroke-width="0.569288"/>
<path d="M106.015 229.789C119.242 228.834 124.508 227.248 128.583 225.955C143.095 220.675 145.522 219.341 146.518 218.676C154.761 214.336 153.139 214.789 156.1 212.94C163.268 208.295 162.368 208.042 165.028 205.85" stroke="black" stroke-width="1.04936"/>
<path d="M60.2936 285.475L58.2769 283.983L58.0547 278.546C58.0698 267.309 58.3592 264.504 60.2846 256.928C62.8171 246.964 66.2239 238.978 73.617 225.676L77.0368 219.523L77.3911 220.616C77.586 221.217 77.997 222.404 78.3045 223.253L78.8636 224.797L77.7333 226.598C73.6049 233.176 69.2887 241.868 66.6602 248.897C64.7717 253.947 62.7684 261.29 62.2149 265.192C61.9572 267.008 61.9566 275.547 62.2134 283.444C62.3205 286.738 63.4097 285.328 62.8797 287.406C62.8476 287.434 61.4619 286.122 60.2936 285.475Z" fill="black" stroke="black" stroke-width="0.553307"/>
<path d="M62.8797 287.406L88.8782 299.036" stroke="black" stroke-width="0.264583"/>
<path d="M93.7876 299.872L98.2568 263.323L114.097 240.397L140.268 230.353L164.374 217.034L172.074 213.097L186.412 217.689L195.366 223.584L202.349 230.26L207.826 238.195L198.809 256.336L185.494 272.275L167.358 287.123L150.599 296.512L132.463 302.407L118.689 303.499L101.93 302.844L93.7876 299.872Z" stroke="black" stroke-width="0.264583"/>
<path d="M107.57 301.644C103.739 301.303 98.7665 300.569 98.5153 300.309C98.4193 300.209 99.6597 283.756 99.9946 280.688C100.532 275.76 101.832 270.783 104.178 264.699C104.322 264.327 104.469 263.951 104.62 263.571C107.304 256.823 110.875 252.029 117.86 245.795L120.771 243.198L123.755 242.158C138.769 236.924 150.563 231.265 164.323 222.693L168.618 220.018L170.236 216.946C171.125 215.256 171.938 213.874 172.042 213.874C172.145 213.874 173.324 214.166 174.661 214.523C182.345 216.576 190.114 220.44 196.133 225.205C198.364 226.97 201.871 230.973 204.447 234.694L206.843 238.155L205.429 240.807C198.029 254.701 187.786 267.8 176.877 277.325C165.763 287.028 153.92 293.92 141.229 298.071C136.583 299.591 131.694 300.538 124.444 301.322C120.66 301.732 110.686 301.922 107.57 301.644Z" fill="#800000" stroke="black"/>
<path d="M64.8068 248.68L80.8101 218.49L77.1321 218.864L73.5359 219.497L69.9649 221.635L66.8709 225.121L64.9391 234.843L63.6165 242.265V246.668L64.8068 248.68Z" stroke="black" stroke-width="1.265"/>
<path d="M64.4504 242.782C64.4456 242.431 65.1031 237.333 65.3831 235.551C65.7875 232.977 66.509 229.398 67.0439 227.312C67.6001 225.143 67.8432 224.746 69.6369 223.077C70.9548 221.85 71.8912 221.222 73.3717 220.571C74.175 220.218 76.344 219.578 76.4226 219.67C76.4371 219.687 75.4712 221.456 74.2762 223.601C70.2581 230.813 67.8126 235.558 65.6214 240.394C64.9788 241.812 64.4519 242.887 64.4504 242.782Z" fill="#800000" stroke="black" stroke-width="0.891"/>
<path d="M62.8797 287.406L60.2936 285.475L59.4655 271.154L63.6165 246.668L66.8709 225.121L69.9649 221.635L77.1321 218.864L75.6019 209.671L83.5018 214.084L83.5174 208.266L87.2559 200.765L94.8261 191.386L109.867 180.207L126.8 167.039L135.267 156.523L139.45 147.713L142.14 134.639L142.837 123.555L140.944 113.892L136.016 107.255L126.202 101.576L117.403 99.0696L109.568 107.734L98.4737 117.938L95.5621 130.136L90.7235 146.909L87.7147 159.613L76.0785 164.461L66.3289 160.276L65.1782 149.557L66.6484 137.127L65.9283 122.626L61.2178 115.333L61.2538 101.163L60.208 79.5611L64.1981 72.4951L72.9942 63.76L78.9 61.3088L94.9087 58.0461L110.917 57.4246L129.521 59.5925L135.42 61.3088L148.162 68.7663L158.943 79.3312L167.274 92.6927L173.972 110.249L176.586 132.311L175.769 148.935L171.685 168.511L164.85 185.66L165.028 205.85L172.074 213.097L227.581 169.055" stroke="black" stroke-width="1.765"/>
<path d="M164.85 185.66L224.012 114" stroke="black" stroke-width="0.264583"/>
<path d="M173.972 110.249L201.413 55.173" stroke="black" stroke-width="0.264583"/>
<path d="M148.162 68.7663L160.575 15.5781" stroke="black" stroke-width="0.264583"/>
<path d="M104.631 58.1473L94.9423 6.23846" stroke="black" stroke-width="0.264583"/>
<path d="M72.9942 63.76L41.4264 39.287" stroke="black" stroke-width="0.264583"/>
<path d="M61.1754 100.808L10.8744 95.433" stroke="black" stroke-width="0.264583"/>
<path d="M65.9283 122.626L2.07132 153.549" stroke="black" stroke-width="0.264583"/>
<path d="M66.3289 160.276L17.0884 228.41" stroke="black" stroke-width="0.264583"/>
<path d="M77.4644 164.823L94.8261 191.386" stroke="black" stroke-width="0.264583"/>
<path d="M96.1125 129.687L126.8 167.039L140.944 113.892L96.1125 129.687Z" stroke="black" stroke-width="0.264583"/>
<path d="M195.366 223.584L201.954 188.517L198.847 143.699L188.49 80.1652L154.313 40.2721L99.4234 32.3919L57.997 52.0923L39.3551 98.388L34.6946 137.296L42.8271 194.718L64.4724 235.753" stroke="black" stroke-width="0.264583"/>
<path d="M206.843 238.155L218.006 219.545L224.738 194.92L227.581 169.055L228.363 141.236L224.012 114L214.9 79.6727L201.413 55.173L181.758 31.4069L160.575 15.5781L127.904 2.84144L94.7592 5.01944L62.1396 18.6017L41.4264 39.2871L21.7489 65.8825L10.8744 95.433L4.14264 123.998L2.07132 153.549L4.14264 183.592L9.32094 207.725L17.0884 228.41L31.0698 254.021L45.0512 271.258L60.2936 285.475L81.8172 297.361L93.7876 299.872" stroke="black" stroke-width="0.264583"/>
<path d="M204.935 233.148C203.805 231.458 201.309 228.515 199.388 226.609L195.895 223.144L199 206.663C201.655 192.573 202.272 190.026 203.252 189.112C203.883 188.523 209.176 184.264 215.015 179.647C222.271 173.908 225.685 171.491 225.805 172.009C226.103 173.305 224.334 185.4 222.742 192.954C220.886 201.76 217.877 212.009 214.7 220.343C212.223 226.842 207.849 236.234 207.302 236.226C207.129 236.224 206.064 234.839 204.935 233.148Z" fill="#2B0000"/>
<path d="M204.798 232.428C203.641 230.862 201.24 228.074 199.462 226.23L196.229 222.879L198.952 208.513C200.45 200.612 201.997 193.117 202.39 191.858C203.045 189.763 203.836 188.991 211.778 182.707C223.238 173.639 224.487 172.697 225.046 172.697C226.165 172.697 223.417 189.611 220.419 201.176C219.407 205.083 217.449 211.52 216.07 215.483C213.35 223.294 208.261 234.842 207.421 235.108C207.135 235.199 205.954 233.993 204.798 232.428Z" fill="#550000" stroke="black" stroke-width="2.1"/>
<path d="M202.38 187.405C202.26 187.036 201.53 177.264 200.759 165.69L199.358 144.647L204.755 138.11C207.724 134.514 213.033 128.081 216.553 123.814C220.073 119.548 223.014 116.115 223.089 116.186C223.443 116.523 224.961 126.113 225.621 132.185C226.749 142.554 227.102 152.417 226.667 161.369L226.271 169.496L215.434 178.115C202.377 188.498 202.669 188.291 202.38 187.405Z" fill="#800000" stroke="black" stroke-width="3"/>
<path d="M194.148 112.084L189.089 81.0224L194.623 69.8519C197.666 63.7081 200.316 58.507 200.511 58.2937C200.891 57.8768 206.153 66.8256 208.847 72.4716C211.689 78.429 215.35 87.5227 217.272 93.4032C219.552 100.379 222.914 113.36 222.689 114.318C222.566 114.843 199.564 143.147 199.261 143.147C199.231 143.147 196.93 129.169 194.148 112.084Z" fill="#D40000" stroke="black" stroke-width="1.7"/>
<path d="M171.983 60.1325C163.04 49.6891 155.648 40.8256 155.556 40.4358C155.414 39.8293 158.677 25.0024 160.187 19.3976C160.793 17.1476 160.647 17.0927 167.905 22.2931C177.638 29.2659 186.124 37.7194 194.311 48.5977C200.904 57.3578 200.885 55.1131 194.477 68.0124C191.442 74.1218 188.798 79.1205 188.601 79.1205C188.404 79.1205 180.926 70.5759 171.983 60.1325Z" fill="#FF2A2A" stroke="black" stroke-width="1.6"/>
<path d="M126.174 35.8547L100.25 32.0975L97.9291 19.5328L95.6085 6.96803L96.9262 6.61961C104.767 4.54638 118.967 4.13855 128.626 5.70916C131.865 6.23574 137.073 7.4559 140.199 8.42063C146.605 10.397 159.607 16.314 159.607 17.2526C159.607 17.869 155.147 37.2388 154.633 38.8579C154.472 39.3622 153.89 39.6974 153.228 39.6659C152.607 39.6362 140.432 37.9211 126.174 35.8547Z" fill="#FF0000" stroke="black" stroke-width="1.6"/>
<path d="M50.7325 45.9285C46.8162 42.8744 43.4919 40.2616 43.3452 40.1221C42.9224 39.7198 53.6243 29.2433 58.0127 25.7635C64.1352 20.9087 71.4846 16.3727 78.4508 13.1492C84.3528 10.4182 94.1647 6.84013 94.5717 7.27042C94.8339 7.54752 99.0206 30.0079 99.0206 31.137C99.0206 31.9015 94.943 34.0301 78.5646 41.8159C67.3138 47.1642 58.0511 51.5268 57.9809 51.5106C57.9106 51.4945 54.6489 48.9825 50.7325 45.9285Z" fill="#D40000" stroke="black" stroke-width="3"/>
<path d="M24.1139 96.4781L12.6413 95.2215L14.8857 88.9897C20.5973 73.1301 28.6387 58.4018 38.4638 45.8046C40.4402 43.2706 42.3041 41.1974 42.6059 41.1974C42.9077 41.1974 46.3581 43.6978 50.2734 46.7539L57.3923 52.3105L48.2812 74.95L39.1702 97.5895L37.3783 97.6621C36.3928 97.702 30.4238 97.1692 24.1139 96.4781Z" fill="#AA0000" stroke="black" stroke-width="1.6"/>
<path d="M4.40357 142.81C4.75357 132.017 5.69921 124.477 8.16039 112.857C9.71662 105.51 12.1029 96.5705 12.6228 96.1403C12.8103 95.9852 38.5459 98.7579 38.7407 98.9542C38.8614 99.0758 34.2631 137.454 34.1194 137.526C34.0718 137.549 27.2987 140.833 19.068 144.823L4.10306 152.077L4.40357 142.81Z" fill="#800000" stroke="black" stroke-width="1.6"/>
<path d="M35.462 134.717C35.6239 133.529 36.6478 124.961 37.7373 115.676L39.7182 98.7944L41.0182 99.0292C41.7332 99.1583 45.9301 99.6164 50.3446 100.047C54.7591 100.478 58.8953 100.937 59.5361 101.066C60.6791 101.298 60.7012 101.437 60.7012 108.414V115.526L62.7676 118.624C63.9041 120.328 64.832 121.944 64.8295 122.215C64.8261 122.59 38.3879 135.723 35.6967 136.687C35.3598 136.808 35.2746 136.092 35.462 134.717Z" fill="#FF8080" stroke="black" stroke-width="1.6"/>
<path d="M49.3089 99.19C44.3248 98.648 40.1957 98.1653 40.1331 98.1172C39.9273 97.9591 58.0386 53.2638 58.3085 53.2638C58.4535 53.2638 61.308 55.3693 64.652 57.9426C67.9959 60.516 71.0965 62.8862 71.5421 63.2098C72.2403 63.7168 71.7689 64.3642 68.1356 67.8887C65.39 70.552 63.1855 73.2679 61.8172 75.6729L59.7157 79.3667L60.1956 87.9856C60.9 100.635 60.9175 100.31 59.5361 100.237C58.8953 100.203 54.293 99.732 49.3089 99.19Z" fill="#FFAAAA" stroke="black" stroke-width="1.6"/>
<path d="M170.767 100.513C166.654 89.534 161.739 81.6794 154.122 73.9124L148.709 68.3916L151.652 55.6564C153.271 48.652 154.75 42.749 154.94 42.5386C155.198 42.2527 176.241 66.3296 187.242 79.4972L188.21 80.6552L181.317 94.4462C177.527 102.031 174.284 108.32 174.112 108.421C173.94 108.522 172.435 104.964 170.767 100.513Z" fill="#FF2A2A" stroke="black" stroke-width="1.6"/>
<path d="M167.093 181.316C167.303 180.774 168.499 177.785 169.751 174.673C173.062 166.436 176.027 151.934 176.599 141.177C176.977 134.058 176.872 131.645 175.751 121.722L174.472 110.395L181.398 96.4492C185.207 88.7792 188.381 82.6844 188.45 82.9053C188.52 83.1261 190.8 96.9987 193.518 113.733L198.459 144.16L183.367 162.492C175.067 172.574 167.923 181.156 167.492 181.562C166.795 182.22 166.751 182.193 167.093 181.316Z" fill="#FF5555" stroke="black" stroke-width="3.2"/>
<path d="M168.485 208.692L165.303 205.286V195.608V185.929L181.744 165.979L198.185 146.029L198.559 147.912C199.216 151.226 201.61 189.093 201.184 189.447C196.353 193.469 172.453 212.098 172.125 212.098C171.873 212.098 170.236 210.565 168.485 208.692Z" fill="#FF8080" stroke="black" stroke-width="1.6"/>
<path d="M190.689 219.919C187.773 217.972 185.33 216.894 179.948 215.183L172.981 212.968L174.708 211.612C175.659 210.866 181.907 205.919 188.594 200.618C195.281 195.318 200.803 191.029 200.865 191.088C201.123 191.334 195.104 222.44 194.798 222.44C194.614 222.44 192.765 221.306 190.689 219.919Z" fill="#FFAAAA" stroke="black" stroke-width="2"/>
<path d="M128.354 162.97C135.545 135.532 140.895 116.52 141.139 117.536C142.268 122.237 142.407 124.177 142.001 129.603C141.39 137.774 139.454 146.454 137.11 151.526C135.526 154.953 129.014 164.324 128.216 164.324C128.097 164.324 128.159 163.715 128.354 162.97Z" fill="#800000" stroke="black" stroke-width="1.8"/>
<path d="M143.699 65.8498C135.442 60.9586 135.802 61.1416 132.568 60.2045C129.682 59.3687 129.435 59.3293 120.502 58.2789C111.494 57.2198 111.341 57.2079 108.076 57.313L104.77 57.4193L102.468 45.0978C101.202 38.321 100.176 32.7694 100.189 32.7609C100.202 32.7524 112.325 34.4916 127.129 36.6258C141.932 38.7599 154.106 40.5105 154.181 40.5159C154.257 40.5214 154.321 40.6629 154.323 40.8306C154.334 41.5336 147.999 68.2135 147.825 68.1982C147.721 68.1891 145.864 67.1322 143.699 65.8498Z" fill="#FF5555" stroke="black" stroke-width="1.6"/>
<path d="M65.7505 57.8097C61.808 54.7687 58.5768 52.2413 58.5702 52.1932C58.543 51.9958 99.4507 32.6763 99.5552 32.8372C99.7254 33.099 104.205 57.2495 104.101 57.3478C104.052 57.3948 101.962 57.5159 99.4574 57.6169L94.9033 57.8005L86.8122 59.4424C78.7642 61.0755 78.7067 61.0903 76.0259 62.2116C74.5436 62.8316 73.2381 63.3388 73.1248 63.3388C73.0115 63.3388 69.693 60.8507 65.7505 57.8097Z" fill="#FFD5D5" stroke="black" stroke-width="1.6"/>
<path d="M96.1955 128.822C96.2804 128.5 96.8986 125.955 97.5693 123.168L98.7888 118.101L104.393 112.938C107.476 110.099 111.54 106.057 113.426 103.955C115.311 101.854 117.015 99.9739 117.212 99.7773C117.525 99.4662 118.119 99.5765 121.787 100.628C125.866 101.797 126.16 101.926 130.878 104.653L135.754 107.471L138.067 110.573C139.651 112.697 140.28 113.727 140.06 113.839C139.883 113.929 130.117 117.391 118.357 121.534C106.596 125.676 96.7645 129.142 96.5078 129.236C96.1179 129.379 96.0665 129.311 96.1955 128.822Z" fill="#550000" stroke="black" stroke-width="1.6"/>
<path d="M111.72 148.166C103.61 138.3 96.946 130.113 96.9111 129.972C96.847 129.713 140.065 114.413 140.281 114.619C140.428 114.759 126.911 165.635 126.655 165.903C126.55 166.013 119.829 158.031 111.72 148.166Z" fill="#AA0000" stroke="black" stroke-width="2"/>
<path d="M17.4444 224.013C15.3841 219.016 10.9849 205.566 9.4306 199.512C6.25253 187.134 4.46003 172.968 4.45911 160.224L4.4586 153.037L19.1419 145.905C27.2177 141.982 33.9758 138.916 34.1599 139.091C34.3441 139.266 36.1971 151.45 38.2778 166.167L42.0609 192.925L30.4088 209.032C24.0001 217.891 18.6196 225.269 18.452 225.429C18.2845 225.588 17.831 224.951 17.4444 224.013H17.4444Z" fill="#550000" stroke="black" stroke-width="1.6"/>
<path d="M42.6952 189.71C41.9744 186.324 35.3334 138.146 35.562 137.962C35.6934 137.857 42.4038 134.595 50.4741 130.714L65.1474 123.658L65.5323 126.94C65.7439 128.746 65.4919 134.982 64.9722 140.799C64.2668 148.695 64.1842 152.566 64.6465 156.073L65.2658 160.77L55.2339 174.716C49.7164 182.386 44.7165 189.266 44.123 190.005L43.044 191.349L42.6952 189.71Z" fill="#FF5555" stroke="black" stroke-width="1.6"/>
<path d="M49.6912 272.924C42.4094 265.751 36.0739 257.982 30.7953 249.753C26.238 242.649 18.5265 227.531 19.0495 226.726C19.6464 225.808 41.7901 195.187 42.0345 194.943C42.1509 194.826 47.0257 203.819 52.8674 214.928L63.4886 235.124L62.7868 241.901C62.4009 245.628 61.7068 249.698 61.2444 250.944C59.4885 255.677 57.8876 264.494 57.4675 271.745C57.2277 275.884 56.8295 279.271 56.5827 279.271C56.3358 279.271 53.2346 276.415 49.6912 272.924Z" fill="#2B0000" stroke="black" stroke-width="3.1"/>
<path d="M53.3016 213.398L42.9139 193.628L53.8756 178.454C59.9045 170.108 65.0958 162.964 65.4119 162.58C65.8368 162.063 66.7346 162.332 68.8586 163.613C70.67 164.705 72.5587 165.345 73.973 165.345C75.2063 165.345 76.6536 165.677 77.1891 166.083C77.7246 166.489 81.6852 172.223 85.9903 178.825L93.8178 190.829L90.3429 195.053C85.5964 200.823 82.6591 206.497 82.6591 209.897C82.6591 211.366 82.474 212.568 82.2479 212.568C82.0218 212.568 80.4957 211.75 78.8567 210.749C77.2176 209.749 75.6205 209.081 75.3076 209.265C74.9727 209.462 75.0954 211.219 75.6056 213.534C76.0825 215.698 76.3984 217.514 76.3075 217.57C76.2167 217.626 74.8702 218.119 73.3152 218.666C71.7603 219.214 69.4669 220.656 68.2187 221.872C66.3556 223.687 65.7753 224.869 64.9778 228.475C64.4435 230.89 63.9351 232.935 63.8479 233.017C63.7607 233.1 59.0149 224.272 53.3016 213.398Z" fill="#FF2A2A" stroke="black" stroke-width="2.1"/>
<path d="M86.7462 177.991C82.3888 171.311 78.9243 165.749 79.0473 165.632C79.1703 165.515 80.5242 164.908 82.0558 164.284C89.2116 161.367 92.4678 155.898 94.7798 142.914C95.329 139.83 96.0607 136.048 96.4058 134.51L97.0332 131.714L110.714 148.382C118.239 157.549 124.667 165.373 124.998 165.768C125.42 166.271 125.071 166.934 123.835 167.979C120.889 170.471 95.2526 190.137 94.9505 190.137C94.7955 190.137 91.1036 184.671 86.7462 177.991Z" fill="#800000" stroke="black" stroke-width="1.6"/>
</g>
<defs>
<radialGradient id="paint0_radial" cx="0" cy="0" r="1" gradientUnits="userSpaceOnUse" gradientTransform="translate(115.474 153.169) scale(111.35 148.566)">
<stop/>
<stop offset="1" stop-opacity="0"/>
</radialGradient>
<clipPath id="clip0">
<rect y="0.871399" width="230.671" height="304.718" fill="white"/>
</clipPath>
</defs>
</svg>
