<svg width="231" height="305" viewBox="0 0 231 305" fill="none" xmlns="http://www.w3.org/2000/svg">
<g clip-path="url(#clip0)">
<path opacity="0.94" d="M115.336 300.192C176.405 300.192 225.912 234.005 225.912 152.359C225.912 70.7135 176.405 4.5266 115.336 4.5266C54.266 4.5266 4.75932 70.7135 4.75932 152.359C4.75932 234.005 54.266 300.192 115.336 300.192Z" fill="white" fill-opacity="0.979757" stroke="#00000B" stroke-width="5"/>
<path d="M114.017 4.73023C90.2608 4.9392 67.8173 15.9737 51.4274 31.9204C23.852 58.5372 9.80203 95.5136 5.87246 132.18C4.65761 147.706 5.00389 163.372 6.55047 178.866C11.7558 214.005 25.9474 249.338 53.1359 274.431C68.3712 288.456 88.4546 298.55 109.817 299.861C123.206 300.148 136.919 298.786 149.059 293.027C177.744 280.695 197.83 255.336 210.007 228.418C228.389 186.917 230.526 139.346 217.478 96.1724C209.274 69.6309 194.825 44.1124 172.363 26.056C156.487 12.653 135.441 4.11356 114.017 4.73023Z" fill="white" stroke="url(#paint0_radial)" stroke-width="1.592"/>
<path d="M113.935 1.78012C85.6613 2.05703 59.6031 17.1357 41.9359 37.4425C17.9312 64.8651 5.52656 100.243 2.55532 135.498C1.63702 158.166 1.9899 181.198 8.44912 203.204C15.4895 228.006 27.1713 252.236 45.6709 271.227C57.5103 283.341 71.9755 293.351 88.5564 298.658C104.228 304.232 121.552 303.516 137.661 300.188C163.412 293.103 184.673 275.187 199.043 254.059C225.239 215.367 233.453 167.201 226.512 122.044C221.015 87.6755 206.589 53.419 180.175 28.7409C162.643 12.3659 138.863 1.26441 113.935 1.78012Z" fill="white" stroke="black" stroke-width="2.73434"/>
<path d="M105.297 300.362C94.6231 299.21 80.9817 294.421 70.4235 288.12C45.5249 273.258 26.3866 248.255 14.5962 215.185C6.55478 192.63 3.69335 172.706 4.45848 144.597C5.41252 109.548 15.5671 77.5635 34.138 51.1147C42.2669 39.5375 48.6545 32.5724 57.8813 25.2253C87.8544 1.35794 123.336 -2.719 155.638 13.9927C187.022 30.2289 211.514 65.239 221.599 108.277C225.468 124.79 226.201 131.862 226.201 152.682C226.201 173.029 225.469 180.403 221.944 195.594C215.936 221.484 202.741 248.237 187.555 265.315C171.033 283.896 150.423 296.188 130.457 299.371C122.398 300.655 111.863 301.07 105.297 300.362Z" fill="#87DECD" stroke="black" stroke-width="1.54788"/>
<path d="M59.0479 118.291C61.4553 114.771 63.6728 114.069 64.8127 113.075C66.4463 111.203 67.4193 108.908 72.1143 105.086C74.4195 102.781 76.9727 101.242 79.0032 98.9774C78.7343 96.1767 78.8711 93.2679 79.6389 90.728C78.7431 85.1043 79.6296 82.4771 80.1544 79.9818C80.745 78.136 80.6893 76.9831 82.8516 73.4186C82.8516 73.4186 73.3442 51.5795 74.9187 44.2107C76.4933 36.8419 93.112 62.3743 93.112 62.3743C89.9137 64.6056 86.4074 66.5716 82.8516 73.4186" stroke="black"/>
<path d="M85.795 52.2192C90.1931 55.4627 94.6925 59.2154 98.3367 58.6665C107.465 58.3839 112.561 59.1156 118.773 59.5664" stroke="black"/>
<path d="M122.457 69.6133C122.457 69.6133 119.831 66.6421 119.076 61.0136C118.724 58.3884 118.42 53.6942 118.556 51.6528C120.441 23.449 139.976 55.0323 138.392 69.5422" stroke="black"/>
<path d="M132.581 48.8726L152.125 72.5176L162.494 94.0135L168.877 116.488L174.363 143.109" stroke="black"/>
<path d="M57.9315 122.357C59.1201 125.661 60.612 123.905 60.1059 125.035C60.1059 125.035 59.3216 128.072 61.1043 128.91C64.6175 130.56 69.8045 131.161 73.8428 123.808C73.2441 122.651 71.8639 119.973 70.3529 119.466C68.3156 119.347 64.3101 118.633 61.9281 118.056C59.3844 117.441 57.2376 118.67 57.9315 122.357V122.357Z" stroke="black"/>
<path d="M64.2186 130.022C64.3743 130.897 64.2731 132.016 64.9977 132.349C67.0178 133.722 68.1684 133.027 69.6275 133.066C69.8841 134.32 70.6999 134.749 72.0174 135.599C72.2511 139.079 78.6047 137.9 83.0077 137.743C93.4336 135.836 97.2481 133.535 104.152 131.418C110.432 129.954 115.682 130.206 120.446 131.265L124.357 137.06L127.372 131.977L129.1 135.21L131.907 128.743L134.282 130.562L134.497 123.691L136.873 124.701L134.282 116.82L130.395 110.757L136.657 111.97L130.395 105.907L127.372 102.471L132.338 101.057L129.948 96.6634L117.281 94.6017L120.209 90.8411L120.683 84.9155" stroke="black" stroke-width="1.7"/>
<path d="M95.2226 134.611C96.7758 136.023 97.0967 137.435 97.1446 138.848V141.879L96.281 148.144L99.3038 147.74L97.7924 150.973H100.599L99.3038 154.611C99.3587 156.632 99.5184 158.653 99.9515 160.674C100.329 163.646 98.4733 167.116 96.2063 170.448" stroke="black"/>
<path d="M69.6275 133.066C74.3609 132.581 73.4603 133.226 78.4618 133.346C89.1415 131.987 92.3326 129.932 97.5812 127.508C99.6356 126.346 101.598 125.36 103.344 124.784H106.689" stroke="black" stroke-width="0.232451"/>
<path d="M72.0174 135.599C75.386 136.337 78.0562 136.027 80.8573 135.913C83.0658 135.614 85.4774 133.994 87.2979 133.52C90.0098 132.283 89.7413 132.286 91.6928 131.733C96.7319 130.816 99.2749 129.417 99.7916 128.882L102.616 125.69C103.956 124.737 105.349 125.242 106.689 124.784" stroke="black"/>
<path d="M79.0032 98.9774C81.5509 95.8468 81.5099 95.2228 82.683 92.182C81.6556 90.0075 80.4215 90.5972 80.7668 90.9257" stroke="black"/>
<path d="M95.7809 96.3636C98.2601 93.891 99.1412 92.5935 100.737 91.1132C101.968 90.3224 105.182 90.9855 107.897 90.937C107.934 91.5857 107.949 91.9392 107.651 92.4078C106.754 93.8172 106.012 94.9746 102.395 96.149C99.1334 95.7139 98.409 95.9386 95.7809 96.3636Z" stroke="black" stroke-width="1.2"/>
<path d="M100.737 91.1132C99.3519 93.1173 101.088 95.7004 103.271 95.8132" stroke="black"/>
<path d="M101.806 90.8195C101.409 91.7608 101.37 92.984 102.287 93.302C102.899 93.3056 103.566 92.9837 103.831 92.4292C103.652 92.0372 103.254 91.887 103.776 90.7246" stroke="black" stroke-width="0.65"/>
<path d="M106.311 90.9284C106.311 90.9284 107.448 94.0149 104.846 95.1386" stroke="black" stroke-width="1.3"/>
<path d="M89.2058 95.2338L89.6947 91.111C90.4462 88.2756 91.8291 86.4052 95.7177 84.4266C96.8963 84.4785 97.5639 83.9807 99.729 85.0938C101.029 86.3246 101.333 87.6984 101.013 89.1616C96.6961 90.6387 92.7122 92.5937 89.2058 95.2338Z" stroke="black"/>
<path d="M81.5099 95.2228C82.7811 92.534 83.2565 90.549 83.5134 88.1762C83.5197 86.4966 83.7266 84.9952 82.5488 84.6997C81.2886 85.4673 81.3814 85.3065 80.9981 86.7829L80.8254 88.0419L80.7176 90.085C80.8333 90.0617 80.3465 93.9511 81.5099 95.2228V95.2228Z" stroke="black"/>
<path d="M174.363 143.109C151.261 150.011 140.467 156.912 130.67 163.814C119.038 172.952 107.475 181.828 94.4596 196.232C87.2596 204.987 84.6939 214.277 83.887 218.979L84.7834 231.572C91.779 212.107 98.7745 204.244 105.77 197.443C120.236 183.632 131.401 177.358 142.372 171.526C157.032 165.002 175.098 161.839 182.722 157.121L174.363 143.109Z" stroke="black"/>
<path d="M99.3038 147.74C87.3977 155.366 77.391 165.505 75.0521 171.311C60.9504 201.041 73.9734 240.376 79.5385 269.199C82.3848 283.94 85.0574 288.719 88.2755 298.524" stroke="black"/>
<path d="M99.9515 160.674L90.0542 165.876C77.4813 210.038 87.9763 259.45 93.8357 299.926" stroke="black"/>
<path d="M77.6762 166.386C73.2512 168.381 68.507 169.466 65.4351 175.322C62.2402 183.789 59.9132 207.396 60.9796 215.863L63.2093 264.709" stroke="black"/>
<path d="M182.722 157.121C192.648 159.304 199.313 163.422 205.204 167.886C218.018 182.548 222.943 184.553 222.547 202.041" stroke="black"/>
<path d="M68.7653 199.631L64.0405 247.292L62.6198 276.507L61.8058 285.047" stroke="black"/>
<path d="M187.779 180.82C186.039 190.412 183.734 200.072 184.003 209.421C185.749 218.012 184.681 225.291 184.287 232.884C182.935 241.687 180.648 250.604 177.008 259.684L173.876 228.793C173.021 227.059 172.068 225.421 169.392 225.477C167.542 226.167 165.993 230.084 168.522 235.5C174.146 242.089 173.837 244.473 176.046 249.264" stroke="black" stroke-width="1.04252"/>
<path d="M177.008 259.684C171.329 251.949 168.015 245.987 162.644 230.889C162.205 229.331 161.472 229.02 161.764 225.783C160.431 224.097 160.914 223.32 160.996 221.125L169.172 175.124" stroke="black" stroke-width="1.04252"/>
<path d="M92.7981 177.205L88.9615 182.906H92.0787L88.2421 189.52L92.5583 188.836L92.0787 191.345L94.9562 190.888" stroke="black"/>
<path d="M62.9883 129.258C60.9622 128.747 59.9279 127.376 60.3124 125.711C60.5333 124.754 60.4139 124.405 59.7508 124.067C58.6941 123.529 57.981 121.648 58.2765 120.178C58.6427 118.356 59.9734 118.064 64.3057 118.854C66.3711 119.23 68.4532 119.537 68.9326 119.535C70.232 119.531 71.6228 120.62 72.5665 122.379L73.4064 123.945L72.1938 125.521C70.5946 127.599 69.6451 128.367 67.7366 129.126C65.9615 129.831 65.33 129.849 62.9883 129.258Z" fill="black"/>
<path d="M74.0796 135.607C72.3202 135.434 69.0897 133.578 69.6275 133.066C69.973 132.738 76.794 133.339 77.3669 133.676C77.9721 134.032 87.0178 132.263 89.9286 131.22C91.3788 130.7 94.7621 129.227 97.447 127.945C100.132 126.664 102.406 125.689 102.501 125.779C102.711 125.979 98.925 129.041 97.707 129.657C97.2247 129.901 95.3869 130.462 93.6229 130.903C91.859 131.345 88.4813 132.532 86.1168 133.542C81.6911 135.432 78.2744 136.018 74.0796 135.607Z" fill="black" stroke="black"/>
<path d="M98.5075 94.0793L99.8526 92.4874L100.156 93.5653C100.322 94.1582 100.649 94.8615 100.881 95.1282C101.197 95.4902 100.779 95.6205 99.2333 95.6422L97.1624 95.6712L98.5075 94.0793Z" fill="black"/>
<path d="M101.993 92.7136C101.731 92.3587 101.698 91.8077 101.907 91.2853C102.032 90.9719 102.136 90.9265 102.727 90.9265C103.394 90.9265 103.403 90.9327 103.313 91.3218C103.263 91.5392 103.294 91.8983 103.383 92.1198C103.524 92.4731 103.502 92.5528 103.205 92.7703C102.743 93.1086 102.267 93.0864 101.993 92.7136Z" fill="black"/>
<path d="M89.5601 94.312C89.5607 94.1038 89.6531 93.2412 89.7651 92.395C90.1791 89.2688 91.3857 87.3696 94.0437 85.6604C95.4779 84.738 95.7802 84.6296 96.9474 84.6182C99.3798 84.5944 100.987 86.0961 100.853 88.2673L100.808 88.9957L99.3373 89.5478C96.2074 90.723 92.9687 92.3636 90.6349 93.9561L89.5587 94.6905L89.5601 94.312Z" fill="#E6E6E6"/>
<path d="M82.2285 91.0466C82.0385 90.8224 81.6588 90.5498 81.3847 90.4409C80.9089 90.2519 80.8894 90.2156 80.9533 89.6407C80.9901 89.3095 81.0568 88.5737 81.1015 88.0057C81.2289 86.3866 81.4337 85.8019 82.0412 85.3229L82.574 84.9027L82.9048 85.2652C83.2055 85.5945 83.2357 85.7705 83.236 87.1932C83.2363 88.625 82.892 91.1507 82.6672 91.3652C82.616 91.4142 82.4185 91.2708 82.2285 91.0466Z" fill="#E6E6E6"/>
<path d="M102.278 95.3094C102.036 95.1878 101.68 94.9543 101.487 94.7905C101.044 94.4143 100.444 93.2162 100.442 92.7052C100.439 92.0317 100.958 91.0782 101.332 91.0685C101.377 91.0672 101.386 91.4415 101.351 91.8999C101.292 92.6754 101.318 92.7623 101.724 93.1486C102.105 93.5106 102.225 93.55 102.662 93.4563C103.667 93.2406 104.244 92.6733 103.964 92.1756C103.876 92.0199 103.825 91.691 103.85 91.4445L103.896 90.9965L104.999 91.0463C105.605 91.0737 106.124 91.1159 106.151 91.1401C106.178 91.1643 106.237 91.5663 106.282 92.0334C106.374 92.9984 106.09 93.9087 105.546 94.3919C105.044 94.8387 103.545 95.5425 103.109 95.5362C102.895 95.533 102.521 95.4311 102.278 95.3094H102.278Z" fill="#008000"/>
<path d="M81.1907 94.0384C80.9534 93.178 80.8166 90.7867 81.0047 90.7867C81.2866 90.7867 82.2053 91.6429 82.2972 91.9913C82.3877 92.3341 81.6469 94.5628 81.4426 94.5628C81.3836 94.5628 81.2703 94.3268 81.1907 94.0384Z" fill="#008000"/>
<path d="M175.056 245.788C174.631 244.11 172.395 239.905 170.784 237.756C169.781 236.418 168.709 234.77 168.402 234.094C167.183 231.414 167.357 228.188 168.811 226.496C169.457 225.744 169.561 225.726 170.771 226.152C173.096 226.97 173.292 227.6 174.303 237.526C174.8 242.396 175.138 246.114 175.056 245.788Z" fill="#550000" stroke="black" stroke-width="0.521258"/>
<path d="M180.313 251.904C180.293 251.728 180.68 250.288 181.173 248.702C184.591 237.703 186.015 223.591 184.799 212.754C184.359 208.827 184.315 206.67 184.602 203.103C184.935 198.965 186.395 189.579 187.556 184.114L187.998 182.032L188.684 183.977C189.062 185.047 190.291 187.859 191.415 190.225C192.716 192.962 193.53 195.149 193.653 196.236C193.919 198.572 193.18 203.124 191.288 210.812C190.412 214.373 188.096 224.213 186.142 232.679C183.884 242.457 182.226 248.824 181.595 250.132C180.6 252.195 180.381 252.499 180.313 251.904Z" fill="#550000"/>
<path d="M79.4704 292.882C75.9031 291.225 70.7345 288.454 67.9847 286.725L62.9851 283.58V280.542C62.9851 271.927 64.8657 243.186 66.4371 227.784C68.2073 210.435 68.4786 209.431 69.2149 217.503C69.8177 224.111 71.6617 234.624 74.65 248.489C76.2786 256.045 78.4544 266.194 79.4853 271.042C80.9688 278.019 84.4817 289.948 86.5966 295.19C87.0469 296.305 86.3703 296.086 79.4704 292.882Z" fill="#800000" stroke="black"/>
<path d="M63.0748 251.432C63.0096 249.735 62.6044 241.292 62.1743 232.668C60.8744 206.604 61.2621 196.404 64.0784 182.583C65.3595 176.296 66.3828 174.037 69.0184 171.677C70.7409 170.135 75.3128 167.625 75.7105 168.003C75.8144 168.102 75.0459 170.205 74.0026 172.676C71.4237 178.785 69.6149 185.838 68.931 192.451C68.5251 196.375 69.524 204.488 68.0752 211.166C64.3568 228.305 63.4873 249.021 63.3721 251.175L63.1934 254.516L63.0748 251.432Z" fill="#800000" stroke="black" stroke-width="1.2"/>
<path d="M85.0139 228.086C84.8949 227.626 84.7641 224.794 84.723 221.791C84.6511 216.53 84.6933 216.201 85.8895 212.693C87.418 208.211 89.8203 203.377 92.3107 199.773C98.801 190.38 123.327 168.694 137.929 159.437C144.012 155.581 152.504 151.297 159.371 148.622C164.988 146.433 173.472 143.649 174.007 143.819C174.234 143.891 176.178 146.889 178.328 150.481L182.237 157.011L179.7 158.246C178.305 158.925 171.309 161.319 164.154 163.566C156.998 165.813 149.178 168.418 146.775 169.355C138.802 172.464 127.547 179.106 118.237 186.196C113.296 189.959 103.665 198.792 100.26 202.685C95.2768 208.381 90.6681 216.04 87.2291 224.339C86.2337 226.741 85.3767 228.754 85.3247 228.814C85.2726 228.873 85.1328 228.546 85.0139 228.086Z" fill="#2B0000" stroke="black" stroke-width="0.499999"/>
<path d="M90.066 297.205L87.9149 296.435L85.1952 288.41C81.8739 278.609 82.178 279.762 78.9986 264.917C77.5624 258.212 75.5941 249.041 74.6246 244.537C72.5083 234.706 70.8715 225.42 69.9638 218.096C69.1332 211.393 69.0167 196.116 69.759 191.221C71.2691 181.262 74.1709 172.613 77.6973 167.56C80.9797 162.857 87.7607 156.414 94.8263 151.287C97.8204 149.114 98.572 148.845 97.7964 150.224C97.1919 151.298 97.2506 151.37 98.722 151.37C99.4585 151.37 100.061 151.432 100.061 151.507C100.061 151.582 99.7958 152.358 99.4714 153.233C98.9214 154.716 98.9345 156.977 99.5085 159.627C99.6588 160.32 99.0472 160.752 94.715 163.011C89.1467 165.913 89.7658 165.112 88.2445 171.387C85.5125 182.655 84.4095 192.355 84.0027 208.69C83.9675 210.104 85.0775 211.326 84.5822 212.571C83.1269 216.231 83.7642 222.705 83.8337 223.429C83.9202 224.33 84.2551 228.424 84.5779 232.527C85.7424 247.329 87.1857 258.778 91.0852 284.144C92.2338 291.616 93.1736 297.798 93.1736 297.882C93.1736 298.179 92.191 297.965 90.066 297.205Z" fill="#2B0000" stroke="black" stroke-width="0.7"/>
<path d="M122.457 69.6133L127.277 67.6012L128.489 65.0858L128.269 61.2079L125.294 57.4349L131.244 55.4435L132.567 59.9502L134.771 61.9416L132.787 64.981L135.873 74.9378L138.392 69.5422" stroke="black"/>
<path d="M82.2585 69.6821C80.9793 66.8432 77.822 57.642 76.8835 54.0176C75.8698 50.1028 75.358 44.792 75.9197 44.0156C76.3808 43.3782 77.7822 44.3091 80.2889 46.9177C83.4493 50.2065 91.7086 61.1706 91.7086 62.077C91.7086 62.2311 90.9267 62.906 89.9711 63.5766C87.7599 65.1285 86.3112 66.5904 84.4381 69.1602L82.9459 71.2074L82.2585 69.6821Z" fill="#FFD5D5" stroke="black" stroke-width="1.08234"/>
<path d="M135.873 74.9378C135.768 74.7685 135.259 70.191 134.729 68.4251L133.765 65.2145L134.775 63.4874L135.786 61.7603L134.461 60.4359C133.493 59.4675 132.962 58.4802 132.487 56.7631C132.129 55.4716 131.791 54.4148 131.735 54.4148C131.09 54.4148 124.263 57.0196 124.263 57.2657C124.263 57.4489 125.004 58.5143 125.909 59.6333C127.358 61.4244 127.555 61.8772 127.555 63.4174C127.555 65.8651 126.982 66.8402 125.068 67.6455C124.172 68.0224 123.231 68.3307 122.977 68.3307C122.387 68.3307 121.117 65.7675 120.335 63C119.533 60.1613 119.45 49.362 120.205 46.1244C120.72 43.9123 121.749 42.0787 122.835 41.4371C125.319 39.969 130.9 46.1918 134.307 54.2278C136.805 60.1209 138.187 66.7638 137.44 69.2796C136.944 70.9497 136.119 75.3373 135.873 74.9378Z" fill="#FFD5D5" stroke="black" stroke-width="1.08234"/>
<path d="M85.2641 203.837C85.57 192.646 87.0144 181.713 89.575 171.206L90.7444 166.408L94.5997 164.422C96.7202 163.33 99.7738 160.744 99.9515 160.674C100.61 160.412 98.5405 164.609 96.9994 167.394C95.4457 170.201 95.4277 170.271 96.1669 170.648C97.0716 171.108 97.0558 171.127 99.004 167.308C100.793 163.8 101.02 162.406 100.461 158.343C100.04 155.286 100.062 154.937 100.798 152.862C101.231 151.644 101.585 150.521 101.585 150.367C101.585 150.213 99.7326 150.087 99.129 150.087C97.9114 150.087 99.1402 149.676 99.9387 148.347C100.746 147.004 100.614 146.852 98.8095 147.045C97.2327 147.214 97.145 147.18 97.3531 146.481C97.4748 146.072 97.6752 143.938 97.7982 141.737C97.9818 138.454 97.9134 137.491 97.4174 136.37C96.937 135.285 96.9085 134.947 97.2784 134.727C98.284 134.129 105.185 131.995 107.353 131.612C110.076 131.131 118.239 131.35 119.389 131.935C119.822 132.156 121.054 133.668 122.128 135.296C123.202 136.925 124.2 138.257 124.346 138.258C124.491 138.258 125.228 137.238 125.982 135.991L127.353 133.723L128.193 135.295C128.655 136.159 129.089 136.867 129.158 136.867C129.228 136.867 129.913 135.418 130.682 133.648C131.45 131.879 132.127 130.369 132.185 130.295C132.243 130.22 132.86 130.573 133.557 131.078C134.253 131.583 134.916 131.996 135.03 131.996C135.144 131.996 135.237 130.43 135.237 128.517C135.237 126.604 135.327 125.038 135.438 125.038C135.549 125.038 136.14 125.284 136.752 125.586C137.364 125.887 137.929 126.072 138.008 125.998C138.401 125.624 134.957 116.281 133.709 114.334C132.94 113.135 132.311 112.094 132.311 112.02C132.311 111.947 133.743 112.184 135.493 112.548C137.243 112.912 138.74 113.21 138.819 113.21C138.898 113.21 136.725 110.946 133.991 108.18C131.256 105.414 129.019 103.074 129.019 102.98C129.019 102.886 130.006 102.545 131.213 102.223C132.42 101.901 133.408 101.576 133.408 101.501C133.408 101.427 132.761 100.141 131.97 98.645L130.532 95.9244L127.855 95.5135C126.382 95.2875 123.737 94.8551 121.977 94.5526L118.776 94.0027L119.903 92.6492C120.933 91.4124 121.048 91.0105 121.237 87.9888C121.435 84.8424 121.409 84.6819 120.709 84.6819C120.111 84.6819 119.93 84.9843 119.741 86.296C119.613 87.1838 119.504 88.4753 119.499 89.1662C119.492 90.1235 119.063 90.9599 117.694 92.6827C116.519 94.1625 116.049 95.0152 116.332 95.1516C116.57 95.2663 119.581 95.8059 123.022 96.3508L129.279 97.3416L130.241 98.9689L131.203 100.596L128.922 101.201C127.667 101.534 126.515 101.878 126.36 101.966C125.936 102.207 127.31 103.883 130.752 107.323C134.019 110.588 134.027 110.745 130.891 110.058C130.009 109.865 129.21 109.78 129.116 109.87C129.021 109.96 130.008 111.727 131.309 113.796C132.657 115.939 134.011 118.63 134.456 120.048C135.403 123.065 135.402 123.047 134.56 122.793C133.951 122.609 133.86 122.873 133.653 125.43C133.526 126.993 133.338 128.352 133.235 128.45C133.131 128.548 132.718 128.346 132.317 128C131.602 127.386 131.573 127.402 131.001 128.727C130.679 129.473 130.088 130.787 129.689 131.648L128.963 133.214L128.214 131.842C127.499 130.531 127.442 130.5 126.933 131.146C126.64 131.518 125.999 132.566 125.508 133.475C125.018 134.383 124.494 135.127 124.343 135.127C124.193 135.127 123.414 134.118 122.612 132.884C121.218 130.738 121.067 130.621 119.142 130.2C116.536 129.629 108.607 129.649 105.791 130.234C104.584 130.484 100.755 131.691 97.2825 132.914C88.4832 136.016 84.5637 136.896 78.9061 137.042L74.3338 137.16L78.1746 136.887C81.7311 136.634 82.3266 136.48 86.2218 134.796C88.5354 133.797 91.8275 132.612 93.5375 132.164C98.2812 130.921 99.3689 130.367 101.792 127.958C103.84 125.922 104.158 125.734 105.55 125.734C106.526 125.734 107.07 125.578 107.066 125.299C107.04 123.322 104.073 123.895 96.8296 127.278C90.4889 130.239 87.3697 131.28 81.7998 132.295C78.9613 132.812 77.5725 132.91 76.3456 132.681C75.4403 132.512 72.8478 132.367 70.5845 132.359C66.8161 132.345 66.4001 132.278 65.6464 131.561L64.8234 130.778L66.5176 130.593C69.0138 130.32 71.4459 128.727 73.2996 126.15L74.8773 123.957L74.1461 122.594C72.7831 120.053 71.3625 118.836 69.4662 118.586C67.3796 118.311 61.3681 117.235 60.6619 117.004C60.0306 116.796 62.3753 115.61 64.1577 114.562C64.8043 114.182 66.0775 112.88 66.987 111.667C67.8965 110.455 71.198 107.149 74.3237 104.319C77.4495 101.49 80.5156 98.4215 81.1375 97.4999C82.7554 95.1017 84.0152 91.3781 84.266 88.2521C84.4546 85.9021 84.39 85.4433 83.768 84.7165C82.7897 83.5734 81.2627 83.9299 80.5118 85.4768C79.9717 86.5895 79.97 86.5853 80.1869 84.6819C80.6889 80.2755 81.82 76.8757 84.025 73.1446C86.5154 68.9308 88.5925 66.5944 91.9046 64.2814L94.2501 62.6434L93.4615 61.3993C93.0278 60.715 92.2091 59.5007 91.6421 58.7009C91.0751 57.901 86.0383 52.4584 87.7686 54.3513C87.8413 54.4309 91.6578 57.4104 92.9369 58.0791L95.2625 59.2949L102.722 59.4405C109.531 59.5733 117.576 60.1149 117.944 60.4654C118.027 60.5436 118.327 61.6662 118.612 62.9601C119.246 65.843 121.013 69.5329 122 70.0355C122.582 70.3317 123.262 70.1846 125.335 69.3136C127.69 68.3242 128.01 68.0675 128.684 66.6228C129.726 64.3908 129.393 61.4376 127.864 59.3657L126.768 57.8804L127.985 57.4069C130.715 56.3443 130.721 53.4467 131.244 55.4435C131.508 56.4494 132.093 60.59 132.615 61.1216L133.564 62.088L132.725 63.5569L131.885 65.0257L133.662 70.7022C134.639 73.8242 135.598 76.3849 135.792 76.3925C135.986 76.4001 136.836 74.9415 137.682 73.1513C138.973 70.4173 138.891 69.212 138.909 67.2719C138.933 64.6547 138.485 60.6701 137.446 57.6726C137.06 56.5596 135.427 53.3747 135.48 53.3248C135.532 53.2749 140.207 59.4379 144.206 64.2906L151.477 73.1137L156.573 83.6814L161.669 94.2491L164.883 105.556C167.092 113.327 168.907 120.792 170.688 129.431C172.113 136.343 173.279 142.142 173.279 142.316C173.279 142.49 171.591 143.153 169.529 143.79C160.154 146.682 148.993 151.465 141.455 155.82C125.794 164.869 98.6137 188.354 91.1684 199.27C88.9401 202.537 83.0378 215.544 84.7017 211.663L85.0739 210.795L85.2641 203.837ZM95.2605 191.689C95.3028 191.656 95.2393 191.273 95.1193 190.837C94.9425 190.194 94.7286 190.084 93.9923 190.26C93.1189 190.469 93.0933 190.428 93.3342 189.207L93.5848 187.936L91.7078 188.182L89.8309 188.427L91.0189 186.391C91.6723 185.271 92.4239 184.046 92.6893 183.668C93.4633 182.567 93.258 182.143 91.8963 182.027L90.621 181.919L92.1455 179.717C93.3886 177.922 93.5734 177.457 93.1466 177.201C92.2074 176.635 91.9158 176.872 89.994 179.764C87.3066 183.807 87.3008 183.833 89.081 183.833H90.5554L88.7127 186.982C87.6992 188.714 86.9616 190.219 87.0736 190.325C87.1856 190.432 88.2074 190.366 89.3442 190.18L91.4112 189.841L91.2656 191.028L91.1199 192.215L93.1517 191.981C94.2692 191.853 95.2182 191.721 95.2605 191.689ZM99.818 97.0113C103.6 96.8977 104.955 96.474 106.83 94.8182C108.179 93.6268 108.9 92.2833 108.9 90.9614V89.9004H105.324H101.748L101.884 88.5443C102.313 84.2665 97.5244 82.1355 93.4525 84.7922C91.6685 85.9563 90.0993 87.6817 89.4399 89.2046C89.0945 90.0023 88.0507 96.8583 88.2746 96.8583C88.3282 96.8583 89.5796 96.0344 91.0554 95.0273C93.5679 93.3128 101.453 89.6192 101.748 89.9004C101.822 89.97 98.3317 92.2256 96.6305 93.9712C94.9294 95.7168 93.5375 97.2576 93.5375 97.3951C93.5375 97.5326 94.1548 97.5265 94.9092 97.3813C95.6636 97.2363 97.8726 97.0697 99.818 97.0113Z" fill="#E3DEDB"/>
<path d="M79.6225 95.4301C79.6855 94.5098 79.7882 93.483 79.8507 93.1484L79.9644 92.5399L80.0805 93.3317C80.1443 93.7671 80.2998 94.4017 80.4259 94.7417C80.648 95.3405 80.6398 95.385 80.1645 96.1556C79.8945 96.5932 79.6364 96.9855 79.5908 97.0273C79.5452 97.0692 79.5595 96.3504 79.6225 95.4301H79.6225Z" fill="#E3DEDB" stroke="black" stroke-width="0.372999"/>
<path d="M178.7 279.308L163.107 259.359L154.479 246.34C150.031 238.14 144.444 229.993 138.064 221.882" stroke="black" stroke-width="0.285143"/>
<path d="M138.064 221.882C117.373 232.583 115.133 243.749 103.684 254.682C110.382 264.836 118.962 268.816 121.945 275.52L154.479 246.34" stroke="black" stroke-width="0.285143"/>
<path d="M128.025 270.477C134.895 280.536 134.985 285.011 138.218 288.619C141.255 293.448 143.007 296.071 144.367 297.605" stroke="black" stroke-width="0.285143"/>
<path d="M177.008 259.684C175.767 268.372 177.528 273.489 178.7 279.308" stroke="black"/>
<path d="M138.064 221.882C132.844 218.732 128.026 215.459 121.516 212.698C118.849 212.248 116.215 211.769 113.142 211.669C111.957 210.777 110.053 210.321 108.042 210.32C107.205 212.407 108.208 214.264 110.223 215.99L115.324 218.119L121.086 219.99" stroke="black" stroke-width="0.285143"/>
<path d="M110.223 215.991L105.721 214.196C103.811 213.377 101.901 213.653 99.9906 214.337C99.2161 214.738 98.555 215.301 98.8243 217.191C99.8081 219.382 101.126 219.982 102.358 220.996L109.144 224.486" stroke="black" stroke-width="0.285143"/>
<path d="M102.358 220.996C100.499 221.439 98.4465 221.725 98.376 223.627C97.8251 225.813 99.3098 227.031 100.238 228.513L106.554 230.502" stroke="black" stroke-width="0.285143"/>
<path d="M100.238 228.513C99.1429 228.899 97.8227 228.964 97.7351 230.787C97.548 234.188 99.435 234.958 100.72 236.492L104.829 237.708" stroke="black" stroke-width="0.285143"/>
<path d="M100.72 236.492C99.5255 237.417 98.752 238.825 99.6738 240.757C100.457 242.588 102.331 243.008 103.605 243.906L107.755 245.458L111.19 246.332" stroke="black" stroke-width="0.285143"/>
<path d="M109.835 245.57C106.592 244.678 103.413 243.307 101.652 242.043C100.5 241.215 99.8574 239.088 100.436 238.02C100.556 237.798 100.824 237.439 101.03 237.223L101.406 236.83L103.257 237.375C104.275 237.675 105.247 237.87 105.415 237.808C105.901 237.631 105.512 237.439 103.387 236.81C101.509 236.254 101.358 236.171 100.409 235.165C99.0448 233.719 98.8054 233.219 98.7071 231.61C98.6074 229.981 98.9207 229.427 100.155 229.049C100.848 228.837 101.091 228.884 103.804 229.754C106.933 230.758 107.212 230.814 107.212 230.445C107.212 230.296 106.053 229.855 104.175 229.29L101.139 228.377L100.193 227.013C99.2494 225.655 99.1526 225.344 99.2354 223.942C99.3117 222.65 100.024 222.027 101.991 221.534L102.89 221.308L106.244 223.036C109.321 224.621 109.932 224.849 109.932 224.412C109.932 224.327 108.357 223.452 106.433 222.468C102.737 220.577 101.197 219.463 100.184 217.946C99.8619 217.465 99.6346 216.868 99.6346 216.505C99.6346 214.86 100.897 214.148 103.812 214.149L105.56 214.15L110.853 216.333C116.889 218.823 121.845 220.503 121.747 220.025C121.706 219.827 120.667 219.388 118.577 218.685C116.868 218.109 114.507 217.244 113.332 216.762C111.548 216.029 111.027 215.717 110.179 214.873C109.018 213.719 108.456 212.337 108.681 211.194L108.812 210.529L109.712 210.647C111.164 210.836 112.114 211.102 112.943 211.551C113.523 211.865 114.164 212.001 115.469 212.085C116.431 212.148 118.31 212.376 119.646 212.591C121.917 212.958 122.258 213.072 124.899 214.343C128.049 215.86 130.305 217.123 134.926 219.958L138.064 221.882L136.383 222.795C131.568 225.408 126.934 228.746 123.123 232.347C120.104 235.199 118.246 237.322 114.497 242.204C112.895 244.292 111.539 245.999 111.486 245.999C111.433 245.998 110.689 245.805 109.835 245.57V245.57Z" fill="#E3DBDB" stroke="black"/>
<path d="M121.003 273.861C119.922 272.006 118.128 270.039 113.675 265.828C108.576 261.007 106.002 258.19 104.192 255.451L103.684 254.682L105.085 253.233C107.155 251.093 109.272 248.554 112.612 244.209C116.94 238.576 118.963 236.213 121.922 233.332C125.033 230.302 128.385 227.683 132.129 225.353C134.664 223.777 137.264 222.312 137.526 222.312C137.928 222.312 145.554 232.929 148.676 237.834C150.553 240.783 153.598 245.95 153.598 246.185C153.598 246.271 131.039 266.575 122.607 274.079L121.634 274.945L121.003 273.861Z" fill="#2B0000" stroke="black"/>
<path d="M142.375 294.463C142.114 294.083 141.128 292.584 140.184 291.132C139.24 289.68 138.175 288.1 137.816 287.621C137.045 286.593 136.156 284.924 134.89 282.13C133.569 279.215 130.912 274.307 129.478 272.134L128.247 270.268L141.203 258.654C148.328 252.266 154.237 247.015 154.333 246.985C154.429 246.955 156.336 249.695 158.571 253.074C161.85 258.032 163.865 260.794 169.014 267.393C172.522 271.89 175.394 275.631 175.395 275.708C175.397 275.858 175.404 275.852 171.965 278.636C164.312 284.829 155.224 290.255 146.833 293.641C145.469 294.192 142.85 295.187 142.85 295.155C142.85 295.154 142.636 294.842 142.375 294.463Z" fill="#800000" stroke="black"/>
<path d="M175.718 274.9C175.627 274.678 172.869 271.016 169.59 266.761C163.712 259.137 155.939 248.098 154.474 245.295C152.183 240.913 145.088 230.234 139.582 222.881C138.433 221.346 131.315 216.916 125.403 214.056C122.047 212.433 120.994 212.072 118.754 211.774L116.092 211.42L116.279 210.348C116.381 209.759 116.467 208.523 116.469 207.601C116.472 205.997 116.52 205.901 117.595 205.351C119.016 204.623 121.323 202.29 122.154 200.741C123.58 198.082 124.571 192.985 124.952 186.353L125.17 182.54L129.832 179.642C142.127 171.995 145.182 170.687 165.75 164.263C172.419 162.18 178.755 160.008 180.32 159.27L183.088 157.963L185.901 158.775C189.631 159.852 191.673 160.651 194.933 162.314C197.57 163.658 202.529 166.815 204.225 168.23C205.337 169.157 214.364 179.254 216.203 181.628C218.939 185.157 221.123 190.234 221.118 193.047C221.116 193.798 220.474 196.801 219.692 199.721C212.223 227.591 198.392 253.107 181.794 269.638L178.195 273.222L177.912 271.888C177.755 271.154 177.61 268.301 177.589 265.548L177.551 260.543L179.038 256.599C179.856 254.43 180.89 251.905 181.336 250.987C182.455 248.686 183.386 245.1 188.347 223.989C194.119 199.425 194.355 198.102 193.509 195.071C193.237 194.099 192.207 191.505 191.221 189.307C188.762 183.831 188.485 183.055 188.519 181.747C188.546 180.738 188.463 180.61 187.777 180.61C186.917 180.61 186.944 180.522 185.683 187.283C183.505 198.964 182.741 206.912 183.419 210.84C184.907 219.45 183.874 233.517 180.912 245.001C179.992 248.57 177.679 255.912 177.522 255.763C177.476 255.72 176.845 249.679 176.118 242.339C174.704 228.061 174.559 227.346 172.748 225.835C169.998 223.538 167.203 224.78 166.566 228.582C166.034 231.76 166.996 234.977 169.367 237.95C172.515 241.895 175.949 253.73 176.492 258.657C176.692 260.469 175.768 255.969 175.69 256.043C175.459 256.263 173.361 252.917 171.189 248.864C167.641 242.242 162.674 229.573 162.572 226.881C162.54 226.041 162.345 225.056 162.138 224.691C161.932 224.327 161.766 223.44 161.771 222.72C161.775 222 163.627 211.036 165.886 198.356C168.875 181.582 169.894 175.239 169.626 175.074C168.47 174.361 168.409 174.622 164.25 197.901C159.923 222.122 159.91 222.236 160.735 227.192C161.066 229.179 163.43 235.811 165.973 241.887C168.421 247.734 171.79 253.882 174.935 258.244L175.903 259.586L175.961 265.221C175.993 268.321 176.195 271.661 176.411 272.643C176.74 274.148 176.73 274.498 176.343 274.866C175.969 275.221 175.853 275.228 175.718 274.9Z" fill="#800000" stroke="black" stroke-width="1.544"/>
<path d="M105.787 299.342C102.369 298.871 100.305 298.493 97.5076 297.827C95.7605 297.411 94.3009 297.042 94.264 297.007C94.2271 296.972 92.9725 288.821 91.4759 278.895C88.2377 257.417 86.764 245.847 85.8922 235.061L85.6226 231.724L87.2086 227.629C91.0115 217.81 95.3248 210.29 100.867 203.816C101.867 202.648 103.043 201.377 103.48 200.991L104.276 200.29L104.963 201.348C105.701 202.483 109.295 205.788 109.792 205.788C109.958 205.788 110.093 206.73 110.093 207.882V209.977L108.839 209.817C107.602 209.659 107.582 209.673 107.362 210.791C107.237 211.421 107.294 212.407 107.489 213.012C107.682 213.61 107.771 214.165 107.687 214.245C107.602 214.325 107.028 214.161 106.41 213.881C105.273 213.365 102.7 213.216 100.888 213.56C99.3262 213.857 98.292 214.958 98.292 216.323C98.292 217.556 98.7486 218.378 100.316 219.97C101.219 220.886 101.24 220.955 100.612 220.955C100.24 220.955 99.4941 221.309 98.9544 221.741C98.0711 222.448 97.9732 222.697 97.9743 224.243C97.975 225.432 98.1742 226.271 98.6214 226.968L99.2673 227.976L98.3013 228.834C97.4733 229.57 97.3352 229.911 97.3352 231.22C97.3352 233.115 97.6556 233.938 98.9333 235.322C99.8819 236.349 99.909 236.445 99.4331 237.092C98.7297 238.047 98.7934 240.305 99.5575 241.497C100.311 242.673 102.148 243.816 105.149 244.978L107.382 245.842L107.279 248.072L107.175 250.302L105.089 252.476L103.002 254.651L104.117 256.248C105.886 258.781 108.2 261.299 113.799 266.78C118.26 271.148 121.163 274.535 121.66 275.952C121.729 276.15 123.127 275.122 124.766 273.667C127.428 271.305 127.786 271.079 128.128 271.547C129.177 272.984 132.109 278.312 134.006 282.232C135.177 284.652 137.444 288.573 139.044 290.946C140.643 293.32 141.853 295.315 141.731 295.38C141.239 295.643 137.207 296.803 134.812 297.371C129.164 298.709 123.723 299.258 115.037 299.369C110.476 299.426 106.314 299.414 105.787 299.342V299.342Z" fill="#800000" stroke="black" stroke-width="1.9"/>
<path d="M115.324 218.119L116.186 205.658" stroke="black" stroke-width="0.403333"/>
<path d="M110.223 215.991L110.444 205.58L116.186 205.658C123.253 202.244 123.398 195.983 124.281 190.168L125.942 166.25C118.464 167.33 110.986 167.394 103.507 166.113L103.212 190.369C103.04 198.336 104.59 202.173 110.444 205.717" stroke="black" stroke-width="0.403333"/>
<path d="M103.207 184.002C103.207 184.002 117.186 182.442 124.584 182.623" stroke="black" stroke-width="0.403333"/>
<path d="M103.508 166.113C103.508 166.113 115.119 164.506 125.943 166.25" stroke="black" stroke-width="0.264583"/>
<path d="M103.207 184.002C103.207 184.002 117.213 186.179 124.584 182.623" stroke="black" stroke-width="0.264583"/>
<path d="M107.756 245.458L107.443 250.86" stroke="black" stroke-width="0.264583"/>
<path d="M111.641 205.188C110.323 205.108 109.967 204.956 108.538 203.856C105.968 201.878 104.509 199.37 103.92 195.918C103.77 195.039 103.647 192.054 103.645 189.284C103.643 184.605 103.677 184.258 104.111 184.385C104.368 184.459 106.335 184.637 108.481 184.78C114.352 185.17 120.536 184.607 123.549 183.409C124.465 183.046 124.485 183.05 124.366 183.596C124.3 183.904 124.171 185.471 124.081 187.078C123.874 190.751 123.076 195.842 122.365 198.024C121.418 200.927 119.478 203.289 116.678 204.946C115.959 205.371 115.232 205.406 111.641 205.188Z" fill="#FFB500" stroke="black" stroke-width="0.632481"/>
<path d="M108.337 184.291C107.605 184.256 106.939 184.163 106.857 184.085C106.624 183.864 118.2 182.985 121.158 182.999C122.731 183.006 122.755 183.013 122.078 183.249C119.438 184.173 114.167 184.573 108.337 184.291Z" fill="#E3DBDB" stroke="black" stroke-width="0.449628"/>
<path d="M103.753 175.087C103.826 170.447 103.911 166.626 103.942 166.596C103.974 166.566 104.847 166.663 105.883 166.812C109.363 167.312 114.722 167.513 118.539 167.286C120.449 167.173 122.763 166.989 123.681 166.877C124.598 166.765 125.393 166.716 125.448 166.768C125.503 166.82 125.308 170.307 125.015 174.516L124.482 182.168L121.443 182.291C117.086 182.467 112.501 182.773 108.242 183.173C106.205 183.364 104.332 183.521 104.08 183.522L103.622 183.523L103.753 175.087Z" fill="#E3DBDB" stroke="black" stroke-width="0.449628"/>
<path d="M110.223 215.99L115.324 218.119L110.223 215.99Z" fill="#E3DBDB"/>
<path d="M110.223 215.99L115.324 218.119" stroke="black" stroke-width="0.264583"/>
<path d="M112.633 216.712L110.472 215.785L110.591 214.441C110.657 213.701 110.711 211.482 110.711 209.51V205.924H113.293H115.875L115.768 206.782C115.709 207.254 115.514 209.896 115.336 212.654C115.157 215.411 114.962 217.66 114.903 217.652C114.843 217.644 113.822 217.221 112.633 216.712Z" fill="#E3DBDB" stroke="black" stroke-width="0.75"/>
<path d="M109.856 166.556C107.577 166.344 106.112 166.158 106.186 166.088C106.222 166.053 108.184 165.927 110.546 165.806C116.4 165.508 125.745 165.987 122.013 166.395C120.18 166.595 111.514 166.71 109.856 166.556Z" fill="#E3DBDB" stroke="black" stroke-width="0.449628"/>
<path d="M107.888 247.807C107.963 246.765 108.039 245.895 108.057 245.874C108.101 245.822 110.385 246.39 110.476 246.475C110.561 246.554 108.002 249.701 107.853 249.701C107.797 249.701 107.812 248.848 107.888 247.807Z" fill="#E3DBDB" stroke="black" stroke-width="0.459907"/>
</g>
<defs>
<radialGradient id="paint0_radial" cx="0" cy="0" r="1" gradientUnits="userSpaceOnUse" gradientTransform="translate(115.474 152.298) scale(111.35 148.566)">
<stop/>
<stop offset="1" stop-opacity="0"/>
</radialGradient>
<clipPath id="clip0">
<rect width="230.671" height="304.718" fill="white"/>
</clipPath>
</defs>
</svg>
