<svg width="231" height="306" viewBox="0 0 231 306" fill="none" xmlns="http://www.w3.org/2000/svg">
<path d="M115.336 302.227C177.27 302.227 227.478 235.374 227.478 152.905C227.478 70.437 177.27 3.58327 115.336 3.58327C53.4012 3.58327 3.1933 70.437 3.1933 152.905C3.1933 235.374 53.4012 302.227 115.336 302.227Z" fill="black" fill-opacity="0.502024" stroke="black" stroke-width="5"/>
<path d="M203.169 222.655C200.697 215.582 198.381 209.578 198.022 209.314C197.663 209.049 189.697 206.242 180.319 203.075C170.941 199.908 163.221 197.26 163.164 197.191C163.107 197.122 162.061 194.162 160.839 190.614C157.919 182.137 156.086 175.052 154.509 166.15C151.962 151.768 151.562 143.054 152.041 112.425C152.297 96.0998 151.491 89.1635 148.022 77.8461C147.319 75.5554 146.493 70.8382 146.165 67.2503C145.376 58.6181 143.498 51.8638 139.944 44.8733C136.651 38.395 134.149 35.0247 128.861 29.9413C125.459 26.671 119.078 22.08 118.586 22.5483C118.467 22.6611 119.482 24.8093 120.842 27.3221C123.25 31.7734 126.481 40.1564 125.974 40.6386C125.834 40.771 119.9 40.9254 112.786 40.9818L99.8516 41.0842L95.8099 37.7889C93.587 35.9764 90.0112 33.3806 87.8637 32.0203C84.0262 29.5897 77.6228 27.2693 75.7164 27.6185C74.2964 27.8785 74.183 29.4365 75.5539 29.8504C77.5237 30.445 81.4631 36.1917 86.1969 45.3766C90.4925 53.7111 91.261 55.9214 90.3267 57.2549C90.1075 57.5679 88.6804 58.2144 87.1556 58.6916C82.7177 60.0803 76.6335 65.7859 76.6335 68.5588C76.6335 69.5985 77.0555 69.7544 81.5172 70.3626C86.3035 71.0151 86.4009 71.0565 86.4009 72.4373C86.4009 73.6035 86.1077 73.902 84.6996 74.1699L82.9982 74.4935L83.3807 80.8792L83.7632 87.2649L80.1983 89.161C78.2376 90.2039 76.6363 91.3361 76.6399 91.677C76.6437 92.018 77.0068 93.5742 77.4474 95.1355C78.4461 98.6743 78.4541 99.2643 77.5036 99.2643C76.2694 99.2643 73.5512 102.61 73.1555 104.615C72.6612 107.122 73.6495 110.341 75.2899 111.568C76.0289 112.121 76.6375 113.004 76.6424 113.531C76.6609 115.522 79.0516 118.604 81.5194 119.819C83.6879 120.886 84.515 120.995 88.9621 120.795L93.9652 120.57L93.7052 123.465C91.9127 143.426 90.8895 151.026 88.7744 160.088C87.2515 166.612 85.6341 171.035 84.3007 172.322C83.8143 172.791 78.6548 175.569 72.835 178.494L62.2536 183.814L60.2416 188.827C59.135 191.584 58.1535 193.912 58.0604 194C57.9674 194.089 52.1576 195.938 45.1499 198.111C38.1422 200.283 32.3266 202.137 32.2265 202.23C32.1263 202.324 29.1463 208.012 25.6042 214.87L19.164 227.338L18.2888 225.362C17.8074 224.276 16.2163 220.019 14.753 215.903C-1.02775 171.516 0.924948 119.156 19.9401 76.8145C33.1983 47.292 53.9741 24.5636 78.2097 13.0687C96.0588 4.60292 115.308 2.38018 134 6.62667C169.367 14.6618 199.794 45.286 215.528 88.6842C219.84 100.575 222.862 113.019 224.888 127.228C226.523 138.685 226.662 165.137 225.149 176.679C222.646 195.774 217.961 212.75 210.657 229.193C209.112 232.67 207.807 235.515 207.756 235.515C207.705 235.515 205.641 229.728 203.169 222.655Z" fill="#5FD38D"/>
<path d="M108.295 301.05C91.0375 299.467 74.4989 292.749 59.469 281.216C50.4438 274.291 38.7369 261.361 31.501 250.326C28.2434 245.357 21.7375 233.466 20.2584 229.776L19.3583 227.531L26.0125 214.88L32.6667 202.23L44.9131 198.439C51.6487 196.354 57.4591 194.472 57.8252 194.256C58.1913 194.04 59.3701 191.686 60.4448 189.025L62.3986 184.187L68.7602 180.917C84.4348 172.859 84.6749 172.706 85.9286 170.012C88.6465 164.173 91.1047 151.607 92.7998 134.888C93.3714 129.25 93.9534 123.704 94.0931 122.563L94.3472 120.489H88.9429C85.2275 120.489 83.0892 120.268 82.1006 119.782C80.1808 118.837 77.5294 115.909 77.0976 114.257C76.906 113.523 76.0366 112.077 75.1657 111.043C73.811 109.434 73.5821 108.758 73.5821 106.368C73.5821 104.035 73.8286 103.266 75.0718 101.715C75.8911 100.694 76.9881 99.7518 77.5095 99.6221C78.67 99.3335 78.6814 98.8401 77.6207 94.8239C77.1604 93.0811 76.8717 91.5727 76.9792 91.4717C77.0866 91.3707 78.6756 90.4184 80.5103 89.3554L83.8462 87.4228L83.6894 82.357C83.6032 79.5708 83.4226 76.7346 83.2881 76.0543C83.0791 74.9974 83.2888 74.7487 84.7278 74.3459C85.925 74.0108 86.4619 73.5406 86.5839 72.72C86.8299 71.0667 86.3367 70.7941 81.9862 70.1787C79.8467 69.876 77.7998 69.4542 77.4376 69.2413C75.1997 67.9258 81.0072 61.7854 86.9656 59.1671L90.898 57.439L90.6448 55.3032C90.384 53.1025 85.4843 42.9917 81.5151 36.4636C80.3145 34.489 78.3015 31.9203 77.0418 30.7554C74.2136 28.14 74.6128 27.3262 78.2919 28.2073C82.4117 29.1939 88.3602 32.4772 94.3343 37.0618L100.007 41.4153L105.013 41.4137C115.432 41.4103 126.185 40.7935 126.185 40.1992C126.185 38.9619 123.931 33.1319 121.699 28.5972C120.409 25.9769 119.476 23.7169 119.625 23.5751C120.049 23.1719 124.53 26.5379 128.666 30.366C133.245 34.6043 136.144 38.3777 139.028 43.8558C142.991 51.3805 144.536 56.6904 145.928 67.5597C146.373 71.0328 147.448 76.5103 148.318 79.7318C151.396 91.1357 151.392 91.0862 151.831 123.417C152.265 155.291 152.39 157.056 155.207 170.793C156.591 177.544 159.157 186.712 161.483 193.217L162.966 197.366L173.957 201.145C180.002 203.224 187.886 205.956 191.478 207.218L198.008 209.512L199.5 213.445C200.321 215.608 202.463 221.494 204.26 226.523L207.528 235.669L204.814 240.766C192.683 263.548 173.361 282.774 152.683 292.637C142.721 297.389 132.52 300.15 121.495 301.078C115.063 301.619 114.483 301.618 108.295 301.05V301.05Z" fill="#969076"/>
<path d="M103.861 300.348C84.0758 297.288 65.901 287.911 50.7367 272.941C39.2889 261.64 32.2043 252.054 24.5679 237.533L19.4556 227.811L26.2473 215.066L33.039 202.321L45.5431 198.449L58.0472 194.576L59.7446 191.082C60.6782 189.16 61.6045 186.972 61.803 186.22C62.2225 184.63 63.2514 183.961 72.8123 179.059C83.3146 173.674 84.7944 172.677 86.048 170.141C87.511 167.18 89.4832 159.627 90.7425 152.161C91.6612 146.714 94.3669 123.752 94.3669 121.402C94.3669 120.629 93.9534 120.485 91.6725 120.464C90.1907 120.45 87.4199 120.274 85.5152 120.072C82.5463 119.758 81.7986 119.472 80.2747 118.068C79.2971 117.166 78.1139 115.661 77.6455 114.722C77.1771 113.783 76.1289 112.018 75.3162 110.799C72.7893 107.009 73.6067 102.411 77.206 100.168C78.6615 99.2608 78.6555 99.3482 77.6656 93.3988L77.3407 91.4464L80.7667 89.494L84.1926 87.5415L83.8466 81.3526L83.5005 75.1636L85.0847 74.3845C86.1978 73.837 86.6688 73.2514 86.6688 72.4148C86.6688 70.9829 85.7062 70.4494 82.3066 69.997C77.8171 69.3996 77.4311 69.2346 77.4311 67.9135C77.4311 66.0276 82.6074 61.545 87.3214 59.3486C91.2097 57.5369 91.2561 57.4932 90.9533 55.9318C90.4983 53.5853 88.3879 48.6278 85.501 43.1237C82.3157 37.0507 79.9638 33.5084 77.237 30.6769C75.2304 28.5933 75.1817 28.4724 76.2884 28.323C79.3839 27.9052 87.3756 32.027 95.3647 38.1619L99.6015 41.4153H108.71C120.577 41.4153 125.671 41.0102 126.064 40.0353C126.422 39.1478 125.332 36.0663 122.287 29.362C121.044 26.6254 120.027 24.2492 120.027 24.0816C120.027 23.4958 123.396 26.0585 127.406 29.695C132.314 34.1452 135.283 37.7428 137.956 42.4774C142.103 49.8258 143.628 54.6111 145.454 66.011C146.19 70.6044 147.584 77.5791 148.551 81.5104C150.833 90.7874 151.202 95.8154 151.587 122.929C151.946 148.181 152.42 156.711 153.946 165.395C155.226 172.683 158.159 183.99 160.8 191.824L162.717 197.509L179.991 203.469C189.491 206.747 197.443 209.586 197.661 209.778C197.879 209.97 200.133 215.878 202.671 222.907L207.285 235.686L205.672 238.735C190.561 267.308 166.645 288.839 141.068 296.895C132.264 299.668 126.461 300.621 116.948 300.854C111.01 301 107.1 300.849 103.861 300.348Z" fill="#24221C"/>
<path d="M77.2055 112.042C77.0966 112.896 77.7378 124.694 96.5925 118.786C110.096 114.556 117.282 116.849 123.135 119.11C127.991 121.237 133.964 128.196 138.641 98.4877" stroke="black" stroke-width="0.687079"/>
<path d="M79.6199 99.3835C70.5033 100.828 72.0407 115.618 83.3519 111.76" stroke="black" stroke-width="0.686763"/>
<path d="M94.5181 98.6743C75.2023 96.8289 79.2504 120.1 93.197 111.585" stroke="black" stroke-width="0.752828"/>
<path d="M80.4204 103.34L77.2417 91.4435C100.422 79.6404 93.618 83.689 99.3791 81.0651" stroke="black" stroke-width="0.691734"/>
<path d="M94.6625 119.23C91.3681 171.866 83.6812 174.021 83.6812 174.021" stroke="black" stroke-width="0.691734"/>
<path d="M162.752 198.112C143.928 151.285 153.841 108.977 151.657 105.604C151.66 97.8941 150.14 84.855 145.656 72.9115" stroke="black" stroke-width="0.691734"/>
<path d="M84.4428 87.8923C82.9439 74.2733 83.7019 74.823 83.7019 74.823C83.7019 74.823 98.328 70.6326 127.878 74.8746V86.0378C127.878 86.0378 118.028 92.9589 106.893 85.1447" stroke="black" stroke-width="0.274637"/>
<path d="M106.893 85.1447C106.893 85.1447 107.561 79.6154 102.815 78.6533C98.07 77.6913 93.3246 80.7149 91.8746 84.1508" stroke="black" stroke-width="0.274637"/>
<path d="M116.665 88.6189C116.576 88.6082 116.293 88.5761 116.037 88.5476C113.372 88.2512 110.492 87.208 108.006 85.6385C107.022 85.0172 107.136 85.1899 107.104 84.2672C107.061 83.0069 106.875 82.1529 106.445 81.2423C105.577 79.4021 104.085 78.4845 101.673 78.3078C97.8357 78.0267 93.678 80.8602 91.8746 84.1508C91.579 84.6903 91.8746 84.1508 91.8746 84.1508C91.9066 84.151 90.2066 84.9214 88.2391 85.8858C86.2715 86.8502 84.6483 87.6253 84.6319 87.6082C84.5415 87.5139 83.9336 81.0341 83.7773 78.4985C83.713 77.455 83.6954 75.4474 83.7484 75.1879L83.7847 75.0097L84.284 74.8875C85.7173 74.5368 88.0031 74.1487 90.163 73.8892C99.5496 72.7616 111.266 72.9819 123.699 74.5199C125.025 74.684 127.32 74.9896 127.553 75.033L127.704 75.0613V80.4914V85.9214L127.288 86.1696C126.062 86.9015 124.331 87.6176 122.83 88.0144C121.091 88.4744 120.118 88.6043 118.272 88.6235C117.478 88.6316 116.755 88.6297 116.666 88.6189L116.665 88.6189Z" fill="black"/>
<path d="M87.1742 76.6614L87.0023 69.8137" stroke="black"/>
<path d="M77.2312 68.7814C77.2312 68.7814 104.83 74.9769 126.087 63.075C126.087 63.075 134.315 47.6385 120.258 24.3237C120.258 24.3237 147.858 38.9974 145.458 77.801" stroke="black"/>
<path d="M127.115 59.2714C127.115 59.2714 107.23 66.7713 90.4304 63.5104C90.4304 63.5104 90.7737 49.595 99.3448 42.0951L127.458 41.606" stroke="black"/>
<path d="M91.1733 58.6737C91.1733 58.6737 82.3739 58.6729 77.2312 68.7814" stroke="black"/>
<path d="M91.6308 54.3232C79.1169 26.4432 74.8313 28.7258 74.8313 28.7258" stroke="black"/>
<path d="M99.3448 42.0951C99.3448 42.0951 83.7453 26.9324 74.8313 28.7258" stroke="black"/>
<path d="M136.929 67.6944C144.436 55.1565 128.695 36.8056 128.695 36.8056C128.695 36.8056 132.812 50.5098 132.355 61.1686L136.929 67.6944Z" stroke="black" stroke-width="0.264583"/>
<path d="M109.458 99.4053C109.458 99.4053 112.352 101.316 115.114 105.933C117.876 110.55 118.007 108.958 118.007 108.958" stroke="black" stroke-width="0.171652"/>
<path d="M80.2635 102.771C85.438 100.479 84.5101 100.871 84.5101 100.871" stroke="black"/>
<path d="M84.5101 100.871L84.2696 96.2426C84.2696 96.2426 87.7383 97.0224 93.4775 96.8424C93.4775 96.8424 93.225 97.447 94.518 98.6743" stroke="black" stroke-width="0.264583"/>
<path d="M155.503 173.531L124.656 192.421L126.769 215.731L144.939 234.621" stroke="black"/>
<path d="M138.601 215.731L162.752 198.112" stroke="black"/>
<path d="M124.656 192.421L138.601 215.731" stroke="black"/>
<path d="M126.769 215.731L135.012 209.179" stroke="black"/>
<path d="M126.769 215.731C126.769 215.731 91.4204 234.833 76.1802 279.224C76.1802 279.224 132.735 240.297 144.939 234.621C157.143 228.945 197.625 209.92 197.625 209.92" stroke="black"/>
<path d="M162.752 198.112L197.625 209.92L207.626 238.004" stroke="black"/>
<path d="M121.901 235.286L127.139 240.722" stroke="black"/>
<path d="M97.6117 251.593L101.898 256.123" stroke="black"/>
<path d="M132.378 267.9C135.272 267.9 137.617 265.669 137.617 262.917C137.617 260.165 135.272 257.934 132.378 257.934C129.485 257.934 127.139 260.165 127.139 262.917C127.139 265.669 129.485 267.9 132.378 267.9Z" fill="black"/>
<path d="M93.3254 286.471C96.2187 286.471 98.5642 284.24 98.5642 281.489C98.5642 278.737 96.2187 276.506 93.3254 276.506C90.4321 276.506 88.0866 278.737 88.0866 281.489C88.0866 284.24 90.4321 286.471 93.3254 286.471Z" fill="black"/>
<path d="M76.1802 279.224L74.5729 292.667" stroke="black"/>
<path d="M88.0866 251.593C67.1314 207.655 83.6812 174.021 83.6812 174.021L62.8451 184.554L67.6077 204.937L41.4137 212.185C41.4137 212.185 51.415 236.192 84.2766 258.387" stroke="black"/>
<path d="M62.8451 184.554L55.225 204.484L66.9128 201.158" stroke="black"/>
<path d="M58.8461 194.829L32.8417 202.839L19.4254 229.003" stroke="black"/>
<path d="M58.9346 255.74C61.8279 255.74 64.1734 253.509 64.1734 250.757C64.1734 248.005 61.8279 245.774 58.9346 245.774C56.0413 245.774 53.6958 248.005 53.6958 250.757C53.6958 253.509 56.0413 255.74 58.9346 255.74Z" fill="black"/>
<path d="M132.477 159.725L146.016 157.539" stroke="black" stroke-width="0.264583"/>
<path d="M131.722 154.941L145.261 152.754" stroke="black" stroke-width="0.264583"/>
<path d="M131.094 149.706L144.634 147.519" stroke="black" stroke-width="0.264583"/>
<path d="M136.465 143.089L140.813 167.628" stroke="black" stroke-width="0.264739"/>
<path d="M143.912 144.881C138.34 141.64 133.735 142.605 130.373 147.067L134.922 134.412L143.912 144.881Z" stroke="black" stroke-width="0.264583"/>
<path d="M134.505 174.977L140.813 167.628L149.231 172.334" stroke="black" stroke-width="0.264583"/>
<path d="M133.153 164.31L146.693 162.124" stroke="black" stroke-width="0.264583"/>
<path d="M134.5 141.833C134.923 141.833 135.266 141.507 135.266 141.105C135.266 140.702 134.923 140.376 134.5 140.376C134.077 140.376 133.734 140.702 133.734 141.105C133.734 141.507 134.077 141.833 134.5 141.833Z" fill="black"/>
<path d="M84.7333 98.6467C84.397 96.7114 84.454 96.5177 85.3006 96.7198C85.72 96.8199 87.66 96.9852 89.6117 97.087C92.0348 97.2135 93.2001 97.387 93.2861 97.634C93.3741 97.887 93.0056 97.9957 92.059 97.9957C90.1321 97.9957 87.7929 98.4633 86.309 99.1452C85.6068 99.4679 85.0074 99.7319 84.9771 99.7319C84.9467 99.7319 84.8371 99.2436 84.7333 98.6467Z" fill="black"/>
<path d="M84.6513 99.587C84.6509 99.2874 84.6327 98.8428 84.611 98.5991L84.5715 98.1558L84.6529 98.5185C84.6977 98.7179 84.7752 99.0693 84.8252 99.2992C84.8928 99.6102 84.9576 99.7238 85.0783 99.7425C85.212 99.7632 85.1888 99.7996 84.9462 99.9497L84.652 100.132L84.6513 99.587Z" fill="black"/>
<path d="M84.9569 99.5057C84.8808 99.2696 84.6613 97.9973 84.6025 97.4514C84.5564 97.0231 84.5718 96.9138 84.6952 96.7965C84.7766 96.719 84.9016 96.6769 84.9729 96.703C85.2154 96.7915 87.2305 96.9799 89.3123 97.1088C92.2956 97.2934 93.2457 97.4365 93.1937 97.6934C93.1574 97.8727 92.8733 97.9366 92.0661 97.947C89.9833 97.9737 87.9089 98.4097 86.0821 99.2047C85.5235 99.4478 85.052 99.6467 85.0344 99.6467C85.0167 99.6467 84.9819 99.5832 84.9569 99.5057Z" fill="black"/>
<path d="M84.9569 99.5057C84.9319 99.4281 84.8563 99.0564 84.7889 98.6796C84.4508 96.7893 84.4936 96.5943 85.2135 96.7473C85.5999 96.8295 87.9117 97.0261 89.9478 97.15C92.2689 97.2911 93.2421 97.4541 93.1937 97.6933C93.1575 97.8719 92.8733 97.9367 92.0839 97.9463C90.6679 97.9635 88.8614 98.2426 87.5698 98.6436C87.2282 98.7496 86.5238 99.0187 86.0045 99.2416C85.4853 99.4644 85.0474 99.6467 85.0314 99.6467C85.0154 99.6467 84.9819 99.5832 84.9569 99.5057Z" fill="black"/>
<path d="M84.4825 96.7047C84.4825 96.5833 84.5309 96.5037 84.6049 96.5037C84.7961 96.5037 84.8101 96.6111 84.6389 96.765C84.489 96.8998 84.4825 96.8972 84.4825 96.7047Z" fill="black"/>
<path d="M85.1487 99.7645C85.1348 99.7302 85.1287 99.6991 85.1351 99.6956C85.1414 99.692 85.5207 99.5231 85.978 99.3201C87.8768 98.4775 89.5457 98.1091 91.8578 98.0223C93.1016 97.9755 93.2975 97.9311 93.2975 97.696C93.2975 97.3609 92.4971 97.2394 88.8092 97.0146C87.2068 96.9169 86.225 96.8333 85.6548 96.7459C85.4219 96.7103 85.1313 96.6731 85.009 96.6633C84.855 96.651 84.7867 96.6281 84.7867 96.5888C84.7867 96.5576 84.7926 96.5322 84.7997 96.5322C84.8068 96.5322 85.1164 96.5767 85.4877 96.6312C87.4173 96.9144 90.2613 97.0875 92.3139 97.0467L93.2568 97.028L93.281 97.1324C93.3512 97.4367 93.4805 97.7224 93.6743 98.0021L93.7581 98.1229L92.3528 98.1242C90.8841 98.1255 90.3452 98.1654 89.3173 98.3494C87.9197 98.5995 86.4842 99.086 85.499 99.6432C85.2327 99.7939 85.1694 99.8158 85.1487 99.7646L85.1487 99.7645Z" fill="black"/>
<path d="M84.8772 99.2605C84.6281 98.1175 84.5164 97.0861 84.6167 96.8557C84.7015 96.661 84.7597 96.6573 85.6547 96.7895C86.2092 96.8713 87.731 96.9944 89.4443 97.0959C92.2012 97.2593 93.1945 97.4103 93.2479 97.6739C93.2909 97.8861 93.0645 97.9363 91.8578 97.982C90.5308 98.0324 89.7497 98.1299 88.5976 98.3891C87.5455 98.6258 87.0106 98.8096 85.8074 99.348C85.4075 99.5269 85.0549 99.6733 85.0237 99.6733C84.986 99.6733 84.9371 99.5355 84.8772 99.2605Z" fill="black"/>
<path d="M84.8772 99.2605C84.6593 98.2603 84.5254 97.1688 84.5904 96.9224C84.6492 96.6995 84.8618 96.6406 85.2737 96.7333C85.6913 96.8272 87.2373 96.9609 89.4655 97.0959C92.2776 97.2662 93.2046 97.4117 93.2472 97.6895C93.2767 97.8822 92.8461 97.9784 91.9425 97.9807C90.4275 97.9847 88.4704 98.3253 87.0732 98.8282C86.7821 98.933 86.2143 99.166 85.8113 99.346C85.4084 99.526 85.0536 99.6733 85.0229 99.6733C84.9863 99.6733 84.9363 99.5319 84.8772 99.2605Z" fill="black"/>
<path d="M84.8771 99.2605C84.724 98.5585 84.615 97.86 84.5882 97.4105C84.5501 96.7706 84.6289 96.6515 85.0539 96.7061C86.24 96.8586 86.6612 96.9024 87.6236 96.9729C88.2408 97.0181 89.2125 97.0827 89.7831 97.1164C92.2393 97.2616 93.2073 97.4211 93.2471 97.6874C93.2763 97.8825 92.8498 97.9783 91.9425 97.9807C90.6131 97.9842 88.857 98.2635 87.5178 98.6845C87.1452 98.8016 86.4426 99.072 85.9566 99.2854C85.4705 99.4988 85.049 99.6733 85.02 99.6733C84.987 99.6733 84.9332 99.5179 84.8771 99.2605Z" fill="black"/>
<path d="M84.8771 99.2605C84.6564 98.2483 84.5244 97.1726 84.5902 96.9231C84.6491 96.6999 84.8576 96.6416 85.2737 96.7321C85.6927 96.8232 87.5584 96.9816 89.8043 97.1168C92.5156 97.28 93.4351 97.4571 93.226 97.776C93.1414 97.9049 92.8656 97.9475 91.879 97.9838C90.5178 98.034 89.6031 98.1551 88.3858 98.4463C87.4553 98.669 86.9118 98.8615 85.7212 99.3901C85.3704 99.5459 85.0572 99.6733 85.0253 99.6733C84.9856 99.6733 84.9385 99.542 84.8771 99.2605Z" fill="black"/>
<path d="M84.8771 99.2606C84.6255 98.1067 84.5152 97.0889 84.6165 96.8563C84.65 96.7794 84.7116 96.7227 84.7791 96.7066C84.8389 96.6923 85.1843 96.7197 85.5465 96.7676C86.3945 96.8795 87.2248 96.9493 89.2115 97.0756C90.0964 97.1319 91.1094 97.2049 91.4625 97.2379C92.8604 97.3686 93.3876 97.5295 93.226 97.776C93.1424 97.9034 92.8644 97.9473 91.9158 97.9832C90.5325 98.0355 89.5404 98.1663 88.3646 98.4513C87.5679 98.6444 86.8757 98.8867 85.8958 99.3155C85.4462 99.5123 85.0533 99.6733 85.0227 99.6733C84.9863 99.6733 84.9361 99.531 84.8771 99.2606Z" fill="black"/>
<path d="M84.8743 99.2605C84.7356 98.6484 84.5754 97.5596 84.5752 97.2287C84.575 96.8894 84.6331 96.7414 84.7804 96.7063C84.8387 96.6923 85.1927 96.7205 85.567 96.7689C86.4212 96.8792 87.2212 96.9458 89.2538 97.0759C91.7852 97.2378 92.6815 97.3405 93.0434 97.5101C93.2692 97.6159 93.3144 97.7418 93.161 97.8374C93.0263 97.9213 92.5641 97.9801 92.0272 97.9815C91.2001 97.9838 90.1107 98.0985 89.1429 98.2853C87.8533 98.5342 87.191 98.7493 85.6851 99.4086C85.3524 99.5542 85.0549 99.6733 85.024 99.6733C84.987 99.6733 84.9358 99.5322 84.8743 99.2605Z" fill="black"/>
<path d="M84.5631 98.1027C84.547 98.0474 84.5359 97.9114 84.5384 97.8007L84.543 97.5993L84.5803 97.841C84.6212 98.1053 84.6106 98.2661 84.5632 98.1027H84.5631Z" fill="black"/>
<path d="M84.9414 99.5626C84.6317 98.2061 84.5022 97.0907 84.6246 96.8351C84.6915 96.6956 84.8277 96.6711 85.2306 96.7263C86.1896 96.8576 87.2786 96.9504 89.5714 97.0962C92.5705 97.287 93.4405 97.4488 93.226 97.776C93.1435 97.9018 92.8622 97.9468 91.9213 97.985C90.7857 98.031 90.1122 98.1044 89.168 98.2853C87.9323 98.5221 87.1799 98.7607 85.8587 99.3349C85.4305 99.521 85.0546 99.6733 85.0234 99.6733C84.9922 99.6733 84.9553 99.6235 84.9414 99.5626Z" fill="black"/>
<path d="M57.0986 202.625C57.0986 201.839 62.2691 188.56 62.5769 188.555C62.877 188.55 65.4507 199.394 65.3556 200.263C65.3321 200.477 63.5257 201.177 61.3413 201.817C56.7167 203.173 57.0986 203.1 57.0986 202.625Z" fill="black"/>
<path d="M127.423 212.179C127.136 210.406 126.01 198.443 126.017 197.242C126.02 196.861 127.134 198.407 128.494 200.678C129.854 202.949 131.557 205.77 132.278 206.946L133.589 209.086L130.643 211.479L127.697 213.873L127.423 212.179Z" fill="black"/>
<path d="M132.596 203.853C129.203 198.133 126.428 193.221 126.431 192.937C126.435 192.437 154.335 175.094 154.667 175.386C154.757 175.465 155.426 177.76 156.153 180.484C157.245 184.576 160.672 195.023 161.602 197.093C161.788 197.506 142.195 212.318 139.308 213.948C139.01 214.116 135.989 209.574 132.596 203.853Z" fill="#969076"/>
<path d="M86.4642 245.549C83.5134 238.418 81.3319 230.934 79.8253 222.773C78.1528 213.713 78.136 199.328 79.7878 190.604C81.2093 183.096 83.3376 176.583 85.364 173.541C88.2962 169.139 90.4875 161.428 92.3734 148.876C93.5666 140.934 95.0831 126.126 95.0831 122.417V119.957L98.7459 118.853C101.152 118.128 104.487 117.656 108.468 117.476C113.66 117.241 115.079 117.36 118.373 118.312C120.488 118.923 123.353 119.997 124.739 120.698C127.823 122.257 129.756 122.311 131.656 120.89C134.504 118.759 136.528 113.536 138.484 103.264C139.279 99.0936 139.315 98.2321 138.697 98.2321C138.287 98.2321 137.951 98.3771 137.951 98.5543C137.951 99.9889 135.007 112.2 134.113 114.473C132.715 118.026 130.665 120.424 129.025 120.424C128.346 120.424 126.169 119.725 124.185 118.869C115.183 114.987 108.274 114.831 95.897 118.232C90.0521 119.838 84.819 120.012 82.1715 118.688C80.4696 117.837 78.2677 115.146 78.2634 113.912C78.2599 112.935 82.5001 112.695 84.6525 113.55C87.5368 114.696 93.4552 113.537 93.4552 111.826C93.4552 110.943 92.4633 110.973 90.742 111.909C89.0868 112.809 86.9083 112.881 85.096 112.095C83.6571 111.472 82.0598 108.839 82.0598 107.09C82.0598 102.753 86.6893 99.2755 92.4735 99.2672C94.7702 99.2639 95.2603 98.8345 94.3376 97.6342C93.898 97.0625 92.4673 96.6807 89.9089 96.4523C87.8303 96.2667 85.5451 95.9978 84.8308 95.8548C83.5801 95.6043 83.5442 95.679 83.8602 97.8719C84.159 99.9451 84.0665 100.202 82.8272 100.739C82.0786 101.063 81.2634 101.329 81.0156 101.329C80.6248 101.329 78.2614 93.4214 78.2614 92.1138C78.2614 91.8506 83.1712 89.2897 89.1721 86.423C95.2237 83.532 99.7422 81.0864 99.3179 80.9315C98.8971 80.7779 97.6237 81.0215 96.488 81.4728C93.8226 82.5321 93.4605 82.151 95.6947 80.6379C96.8771 79.8371 98.4568 79.3775 100.512 79.236C103.402 79.0372 103.651 79.1161 105.025 80.6689C105.968 81.7353 106.478 82.919 106.478 84.0409C106.478 85.6154 106.733 85.8871 109.327 87.0847C115.098 89.7485 120.86 89.9009 125.967 87.5247L127.913 86.6198L128.065 80.616L128.217 74.6122L126.437 74.3074C117.917 72.8486 98.8735 72.1908 91.4203 73.0977C88.0633 73.5063 88.0288 73.4976 88.0288 72.2435C88.0288 71.0142 88.1214 70.9845 91.149 71.2443C95.7308 71.6373 106.631 70.5542 112.61 69.1116C115.479 68.4194 119.899 66.9291 122.433 65.7998L127.04 63.7464L128.019 60.7323C128.785 58.3726 128.987 56.093 128.947 50.2346C128.903 43.6666 128.717 42.183 127.425 38.1062C126.616 35.5515 125.353 32.2067 124.619 30.6732C123.885 29.1397 123.376 27.7986 123.487 27.6929C124.054 27.1537 133.653 37.6549 135.87 41.2391C141.566 50.4485 143.884 58.352 144.31 70.0176C144.586 77.5651 144.683 78.1697 145.588 77.9447C146.43 77.7352 146.757 78.47 147.923 83.1927C150.481 93.553 151.55 104.906 150.917 115.005C149.783 133.112 150.64 153.196 153.141 167.111C153.762 170.564 154.034 173.383 153.762 173.548C125.423 190.713 123.842 191.764 123.88 193.404C123.901 194.282 124.344 199.53 124.864 205.065C125.674 213.674 125.701 215.193 125.05 215.568C124.631 215.809 121.807 217.783 118.775 219.954C109.402 226.664 98.2614 237.964 91.3474 247.772C90.0968 249.547 88.9938 250.998 88.8962 250.998C88.7987 250.998 87.7043 248.546 86.4642 245.549ZM137.91 171.777C139.484 169.931 140.888 168.422 141.031 168.422C141.173 168.422 142.999 169.372 145.089 170.532C147.178 171.693 149.032 172.506 149.208 172.339C149.615 171.952 149.764 172.057 145.197 169.504C141.492 167.432 140.692 166.497 140.672 164.215C140.666 163.556 141.403 163.281 143.92 163.003C145.711 162.805 147.176 162.408 147.176 162.121C147.176 161.634 145.99 161.723 141.677 162.532C140.376 162.776 140.227 162.635 140.023 160.968C139.777 158.965 139.816 158.937 143.785 158.35C145.053 158.163 146.091 157.779 146.091 157.497C146.091 157.206 145.389 157.115 144.463 157.285C143.568 157.449 142.134 157.712 141.278 157.868C139.984 158.104 139.664 157.951 139.386 156.965C138.66 154.387 138.887 154.108 142.013 153.736C143.649 153.542 145.149 153.135 145.346 152.833C145.688 152.307 141.891 152.582 139.444 153.261C138.734 153.458 138.492 153.222 138.487 152.328C138.482 151.671 138.34 150.639 138.17 150.036C137.89 149.046 138.14 148.906 140.759 148.595C142.354 148.406 144.023 148.01 144.468 147.716C145.048 147.333 144.469 147.271 142.422 147.498C140.851 147.672 139.213 147.944 138.781 148.101C137.997 148.388 137.628 147.541 137.29 144.681C137.153 143.526 137.308 143.41 138.765 143.574C139.661 143.674 141.081 144.095 141.922 144.508C144.967 146.005 144.477 144.806 139.815 139.353C137.204 136.299 134.893 133.983 134.68 134.208C134.003 134.922 129.873 147.262 130.31 147.262C130.541 147.262 131.193 146.773 131.761 146.177C132.786 145.099 135.736 143.42 136.041 143.74C136.128 143.832 136.369 144.885 136.577 146.08C136.939 148.163 136.89 148.266 135.418 148.558C131.306 149.372 130.652 149.818 133.956 149.554L137.285 149.288L137.534 151.243C137.826 153.536 137.578 153.748 134.083 154.189C132.629 154.373 131.44 154.763 131.44 155.056C131.44 155.349 131.867 155.477 132.389 155.341C137.234 154.077 138.469 154.443 138.486 157.146C138.494 158.436 138.307 158.535 135.238 158.874C133.447 159.072 131.982 159.469 131.982 159.756C131.982 160.243 133.167 160.154 137.479 159.345C138.752 159.106 138.934 159.26 139.173 160.782C139.49 162.801 139.182 163.041 135.711 163.479C134.257 163.662 133.068 164.052 133.068 164.346C133.068 164.639 133.495 164.767 134.017 164.631C137.066 163.835 139.221 163.741 139.65 164.385C140.723 165.994 140.061 167.775 137.137 171.146C135.496 173.039 134.153 174.71 134.153 174.859C134.153 175.746 135.391 174.73 137.91 171.777ZM118.416 109.07C118.416 108.786 118.18 108.554 117.89 108.554C117.601 108.554 116.477 107.219 115.392 105.587C113.279 102.409 110.381 99.2643 109.565 99.2643C109.29 99.2643 109.94 100.185 111.008 101.31C112.077 102.435 113.602 104.351 114.396 105.568C116.713 109.114 118.416 110.598 118.416 109.07ZM138.143 66.1048C140.077 60.9584 139.65 55.9359 136.686 48.9444C133.939 42.4654 127.084 32.9686 128.397 37.4611C129.681 41.8556 131.479 51.9131 131.789 56.4431C132.146 61.6408 132.245 61.9696 134.377 65.0618C135.597 66.83 136.758 68.2815 136.957 68.2874C137.156 68.2934 137.69 67.3111 138.143 66.1048Z" fill="#E3DEDB"/>
<path d="M131.982 144.278C131.982 143.366 134.827 135.907 135.175 135.907C135.389 135.907 136.956 137.516 138.657 139.483L141.75 143.058L138.797 142.769C136.406 142.534 135.478 142.685 133.914 143.563C132.852 144.159 131.982 144.481 131.982 144.278ZM135.238 141.069C135.238 140.495 134.876 140.036 134.424 140.036C133.972 140.036 133.61 140.495 133.61 141.069C133.61 141.642 133.972 142.101 134.424 142.101C134.876 142.101 135.238 141.642 135.238 141.069Z" fill="#E3DEDB"/>
<path d="M94.2691 63.2131L91.556 62.8791L91.714 60.8147C92.1232 55.4682 95.0803 48.0947 98.1771 44.6989L99.6955 43.0339L113.095 42.6865L126.495 42.3391L126.932 43.8354C127.173 44.6583 127.362 48.0598 127.352 51.3941C127.339 56.0279 127.147 57.6303 126.538 58.1937C125.513 59.1429 117.285 61.3917 111.362 62.3416C105.645 63.2586 97.8621 63.6554 94.2691 63.2131Z" fill="#969076"/>
<path d="M84.773 69.0453C84.3253 68.9543 82.7992 68.7348 81.3815 68.5574C79.9639 68.38 78.804 68.0587 78.804 67.8434C78.804 66.9807 82.979 62.8873 85.2654 61.5082C88.7327 59.4169 89.6567 59.5404 89.6567 62.0951C89.6567 63.8962 89.8409 64.1987 91.149 64.5466C91.9697 64.7649 96.0599 64.9282 100.238 64.9095C108.231 64.8736 113.531 64.1285 121.538 61.9142C124 61.2337 126.01 60.824 126.005 61.0038C125.984 61.8349 124.956 62.6042 121.944 64.0436C114.365 67.6648 105.152 69.3544 93.4552 69.2684C89.1277 69.2367 85.2207 69.1362 84.773 69.0453Z" fill="#969076"/>
<path d="M88.3199 45.2513C86.5401 41.6653 83.7943 36.8669 82.2181 34.5883C80.6419 32.3096 79.4575 30.3453 79.586 30.223C80.4794 29.3734 90.0928 35.233 95.2812 39.7895L97.7855 41.9888L95.8938 44.4932C94.8534 45.8706 93.5013 48.0743 92.8893 49.3902C92.2772 50.7062 91.7268 51.7803 91.6662 51.7771C91.6055 51.7739 90.0997 48.8373 88.3199 45.2513Z" fill="#E3DEDB"/>
<path d="M134.673 63.62C133.193 61.4257 132.877 60.411 132.704 57.2977C132.474 53.1354 131.106 43.952 130.336 41.3983C130.058 40.4769 129.916 39.6418 130.02 39.5427C130.299 39.2774 134.362 45.9518 135.743 48.9444C137.286 52.2878 138.477 57.109 138.483 60.0406C138.489 62.6918 137.582 66.2338 136.897 66.2338C136.644 66.2338 135.643 65.0576 134.673 63.62Z" fill="black"/>
<path d="M102.835 299.922C94.7985 298.456 85.3408 295.473 78.9707 292.396L76.1481 291.032L76.1829 288.617C76.202 287.288 76.3909 284.743 76.6027 282.959L76.9878 279.717L93.247 268.756C135.294 240.408 137.224 239.262 164.676 226.32C177.236 220.398 189.657 214.595 192.277 213.424L197.04 211.295L197.578 212.628C197.874 213.362 199.966 219.159 202.226 225.511L206.335 237.06L203.132 242.595C185.538 272.993 159.623 293.359 131.061 299.231C124.982 300.481 108.155 300.893 102.835 299.922ZM97.0869 285.19C98.8245 283.537 99.2291 281.599 98.2854 279.451C97.5019 277.668 95.2658 276.195 93.3404 276.195C91.4151 276.195 89.1789 277.668 88.3954 279.451C86.8054 283.071 89.1915 286.446 93.3404 286.446C95.2623 286.446 96.0409 286.185 97.0869 285.19ZM136.11 266.623C137.871 264.948 138.321 262.601 137.256 260.643C136.378 259.028 134.114 257.647 132.344 257.647C130.442 257.647 128.182 259.12 127.419 260.857C126.51 262.925 126.911 264.77 128.657 266.555C130.503 268.442 134.163 268.475 136.11 266.623Z" fill="#969076"/>
<path d="M138.168 226.286C134.497 222.461 130.758 218.529 129.858 217.549L128.222 215.767L131.391 213.249L134.56 210.73L136.141 213.444C137.15 215.177 138.056 216.158 138.646 216.158C139.155 216.158 144.763 212.369 151.11 207.738C157.457 203.107 162.86 199.318 163.117 199.318C163.374 199.318 170.706 201.723 179.411 204.661L195.238 210.004L179.315 217.531C160.782 226.293 145.688 233.242 145.191 233.242C144.999 233.242 141.839 230.112 138.168 226.286Z" fill="#969076"/>
<path d="M78.4575 275.729C78.4575 274.806 83.2147 264.627 85.7675 260.088C91.8475 249.278 99.0237 240.073 108.223 231.285C114.023 225.744 125.122 217.124 126.432 217.141C126.922 217.148 142.688 233.371 143.015 234.205C143.098 234.416 141.943 235.246 140.449 236.048C134.216 239.397 117.941 249.93 92.974 266.773C85.2925 271.955 78.8839 276.195 78.7326 276.195C78.5813 276.195 78.4575 275.986 78.4575 275.729ZM102.322 255.875C102.322 255.615 101.381 254.357 100.231 253.077C98.4322 251.076 98.0503 250.853 97.4984 251.486C96.9634 252.099 97.2177 252.594 99.0278 254.461C101.013 256.51 102.322 257.071 102.322 255.875ZM127.725 240.373C127.725 240.057 126.513 238.66 125.031 237.269C123.036 235.397 122.141 234.855 121.585 235.183C120.981 235.538 121.385 236.188 123.638 238.482C126.218 241.11 127.725 241.807 127.725 240.373Z" fill="#969076"/>
<path d="M68.2228 286.441C61.1386 281.871 55.2482 277.05 49.1557 270.837C38.7779 260.254 32.5348 251.631 25.064 237.563L20.4897 228.949L26.9367 216.33C30.4825 209.39 33.6525 203.611 33.9811 203.489C35.6343 202.873 57.1751 196.267 57.2708 196.346C57.332 196.397 56.6129 198.404 55.6728 200.807C54.7327 203.21 54.1632 205.249 54.4073 205.338C54.6514 205.428 57.3085 204.806 60.312 203.957C64.7099 202.714 65.8571 202.54 66.2055 203.062C66.4434 203.419 66.6416 203.846 66.646 204.011C66.6534 204.294 63.1036 205.33 47.2843 209.661C43.5466 210.684 40.4866 211.777 40.4844 212.09C40.4718 213.897 47.3069 224.473 53.2081 231.778C57.9753 237.678 71.5472 250.351 78.2572 255.166L83.9587 259.258L81.5243 264.188C76.9996 273.351 75.2788 278.372 74.7332 284.005C74.4602 286.824 74.0774 289.295 73.8827 289.497C73.6879 289.699 71.141 288.324 68.2228 286.441ZM60.724 255.695C61.818 255.695 63.9421 253.337 64.2753 251.753C64.9215 248.68 62.1371 245.441 58.8529 245.446C56.7588 245.45 54.4422 247.194 53.7926 249.256C53.2909 250.848 53.3323 251.442 54.0444 252.869C55.0424 254.87 57.7315 256.396 59.3826 255.9C59.7585 255.787 60.3621 255.695 60.724 255.695Z" fill="#969076"/>
<path d="M81.2283 255.12C71.0673 247.866 60.2681 237.757 53.4348 229.101C48.8704 223.319 43.6018 215.176 43.4235 213.629C43.3126 212.665 44.3016 212.305 55.8765 209.091C65.0173 206.554 68.436 205.407 68.3987 204.892C68.3705 204.502 67.362 199.94 66.1576 194.755C64.9349 189.49 64.1643 185.149 64.4127 184.925C65.055 184.346 81.2491 176.185 81.4245 176.352C81.5055 176.429 80.993 178.391 80.2857 180.712C75.5864 196.136 75.4793 215.412 79.9994 232.266C82.0858 240.046 86.205 250.675 87.5001 251.622C88.1707 252.112 88.0594 252.544 86.6515 254.917C85.7603 256.418 84.9722 257.647 84.9001 257.647C84.828 257.647 83.1757 256.51 81.2283 255.12Z" fill="#969076"/>
<path d="M78.2981 111.758C77.526 111.586 76.4261 110.965 75.8426 110.371C74.8504 109.363 74.1805 107.694 74.1805 106.232C74.1805 103.867 75.6979 101.412 77.7319 100.489C79.1044 99.8654 78.9804 99.7996 79.3808 101.364C79.9681 103.658 79.9096 103.524 80.2848 103.437C80.4654 103.395 80.8994 103.232 81.2493 103.076C81.5991 102.92 81.9173 102.792 81.9564 102.792C81.9954 102.792 81.89 103.05 81.7222 103.365C80.4784 105.699 80.5759 108.984 81.9505 111.055C82.1254 111.318 82.2684 111.556 82.2684 111.582C82.2684 111.609 81.9191 111.689 81.4921 111.76C80.5819 111.91 78.9757 111.91 78.2981 111.758V111.758Z" fill="#E3DEDB"/>
</svg>
