<svg width="613" height="540" viewBox="0 0 613 540" fill="none" xmlns="http://www.w3.org/2000/svg">
<circle cx="307" cy="270" r="235" fill="#FFF5F5" stroke="black" stroke-width="5" stroke-linecap="round"/>
<path d="M322.665 310H316.457V264.144H322.665V310ZM356.603 294.16C356.603 296.72 356.283 299.013 355.643 301.04C355.024 303.067 354.096 304.784 352.859 306.192C351.643 307.579 350.139 308.645 348.347 309.392C346.555 310.139 344.496 310.512 342.171 310.512C340.059 310.512 337.904 310.213 335.707 309.616C335.749 308.997 335.803 308.389 335.867 307.792C335.931 307.173 335.984 306.565 336.027 305.968C336.069 305.605 336.197 305.317 336.411 305.104C336.645 304.869 336.997 304.752 337.467 304.752C337.851 304.752 338.352 304.848 338.971 305.04C339.611 305.232 340.464 305.328 341.531 305.328C342.939 305.328 344.197 305.115 345.307 304.688C346.416 304.261 347.344 303.6 348.091 302.704C348.837 301.808 349.403 300.667 349.787 299.28C350.192 297.872 350.395 296.208 350.395 294.288V264.144H356.603V294.16ZM397.984 292.976L390.784 274.32C390.571 273.765 390.347 273.125 390.112 272.4C389.877 271.653 389.653 270.864 389.44 270.032C388.992 271.76 388.533 273.2 388.064 274.352L380.864 292.976H397.984ZM410.912 310H406.112C405.557 310 405.109 309.861 404.768 309.584C404.427 309.307 404.171 308.955 404 308.528L399.712 297.456H379.136L374.848 308.528C374.72 308.912 374.475 309.253 374.112 309.552C373.749 309.851 373.301 310 372.768 310H367.968L386.304 264.144H392.576L410.912 310ZM425.969 261.072C426.865 262.587 427.473 264.187 427.793 265.872C428.113 267.557 428.145 269.221 427.889 270.864C427.633 272.507 427.099 274.085 426.289 275.6C425.478 277.115 424.401 278.459 423.057 279.632L421.329 278.512C421.009 278.32 420.859 278.075 420.881 277.776C420.923 277.456 421.03 277.2 421.201 277.008C421.755 276.325 422.225 275.504 422.609 274.544C423.014 273.563 423.27 272.517 423.377 271.408C423.505 270.277 423.451 269.115 423.217 267.92C423.003 266.725 422.566 265.573 421.905 264.464C421.627 264.016 421.542 263.621 421.649 263.28C421.777 262.917 422.043 262.651 422.449 262.48L425.969 261.072ZM466.888 271.312C466.696 271.632 466.483 271.877 466.248 272.048C466.035 272.197 465.768 272.272 465.448 272.272C465.085 272.272 464.659 272.091 464.168 271.728C463.677 271.365 463.059 270.971 462.312 270.544C461.587 270.096 460.701 269.691 459.656 269.328C458.632 268.965 457.384 268.784 455.912 268.784C454.525 268.784 453.299 268.976 452.232 269.36C451.187 269.723 450.301 270.224 449.576 270.864C448.872 271.504 448.339 272.261 447.976 273.136C447.613 273.989 447.432 274.917 447.432 275.92C447.432 277.2 447.741 278.267 448.36 279.12C449 279.952 449.832 280.667 450.856 281.264C451.901 281.861 453.075 282.384 454.376 282.832C455.699 283.259 457.043 283.707 458.408 284.176C459.795 284.645 461.139 285.179 462.44 285.776C463.763 286.352 464.936 287.088 465.96 287.984C467.005 288.88 467.837 289.979 468.456 291.28C469.096 292.581 469.416 294.181 469.416 296.08C469.416 298.085 469.075 299.973 468.392 301.744C467.709 303.493 466.707 305.019 465.384 306.32C464.083 307.621 462.472 308.645 460.552 309.392C458.653 310.139 456.488 310.512 454.056 310.512C451.069 310.512 448.36 309.979 445.928 308.912C443.496 307.824 441.416 306.363 439.688 304.528L441.48 301.584C441.651 301.349 441.853 301.157 442.088 301.008C442.344 300.837 442.621 300.752 442.92 300.752C443.197 300.752 443.507 300.869 443.848 301.104C444.211 301.317 444.616 301.595 445.064 301.936C445.512 302.277 446.024 302.651 446.6 303.056C447.176 303.461 447.827 303.835 448.552 304.176C449.299 304.517 450.141 304.805 451.08 305.04C452.019 305.253 453.075 305.36 454.248 305.36C455.72 305.36 457.032 305.157 458.184 304.752C459.336 304.347 460.307 303.781 461.096 303.056C461.907 302.309 462.525 301.424 462.952 300.4C463.379 299.376 463.592 298.235 463.592 296.976C463.592 295.589 463.272 294.459 462.632 293.584C462.013 292.688 461.192 291.941 460.168 291.344C459.144 290.747 457.971 290.245 456.648 289.84C455.325 289.413 453.981 288.987 452.616 288.56C451.251 288.112 449.907 287.6 448.584 287.024C447.261 286.448 446.088 285.701 445.064 284.784C444.04 283.867 443.208 282.725 442.568 281.36C441.949 279.973 441.64 278.267 441.64 276.24C441.64 274.619 441.949 273.051 442.568 271.536C443.208 270.021 444.125 268.677 445.32 267.504C446.536 266.331 448.019 265.392 449.768 264.688C451.539 263.984 453.565 263.632 455.848 263.632C458.408 263.632 460.733 264.037 462.824 264.848C464.936 265.659 466.792 266.832 468.392 268.368L466.888 271.312Z" fill="black"/>
<path d="M324.949 335.228C325.945 335.228 326.803 335.114 327.523 334.886C328.243 334.658 328.831 334.34 329.287 333.932C329.755 333.512 330.097 333.02 330.313 332.456C330.529 331.88 330.637 331.25 330.637 330.566C330.637 329.234 330.163 328.184 329.215 327.416C328.267 326.636 326.845 326.246 324.949 326.246H319.369V335.228H324.949ZM319.369 314.96V323.762H323.977C324.961 323.762 325.813 323.654 326.533 323.438C327.265 323.222 327.865 322.922 328.333 322.538C328.813 322.154 329.167 321.692 329.395 321.152C329.623 320.6 329.737 320 329.737 319.352C329.737 317.828 329.281 316.718 328.369 316.022C327.457 315.314 326.041 314.96 324.121 314.96H319.369ZM324.121 312.206C325.705 312.206 327.067 312.362 328.207 312.674C329.359 312.986 330.301 313.43 331.033 314.006C331.777 314.582 332.323 315.29 332.671 316.13C333.019 316.958 333.193 317.894 333.193 318.938C333.193 319.574 333.091 320.186 332.887 320.774C332.695 321.35 332.401 321.89 332.005 322.394C331.609 322.898 331.105 323.354 330.493 323.762C329.893 324.158 329.185 324.482 328.369 324.734C330.265 325.094 331.687 325.772 332.635 326.768C333.595 327.752 334.075 329.048 334.075 330.656C334.075 331.748 333.871 332.744 333.463 333.644C333.067 334.544 332.479 335.318 331.699 335.966C330.931 336.614 329.983 337.118 328.855 337.478C327.727 337.826 326.443 338 325.003 338H315.895V312.206H324.121ZM356.115 328.424L352.065 317.93C351.945 317.618 351.819 317.258 351.687 316.85C351.555 316.43 351.429 315.986 351.309 315.518C351.057 316.49 350.799 317.3 350.535 317.948L346.485 328.424H356.115ZM363.387 338H360.687C360.375 338 360.123 337.922 359.931 337.766C359.739 337.61 359.595 337.412 359.499 337.172L357.087 330.944H345.513L343.101 337.172C343.029 337.388 342.891 337.58 342.687 337.748C342.483 337.916 342.231 338 341.931 338H339.231L349.545 312.206H353.073L363.387 338ZM373.854 323.51H375.168C375.624 323.51 375.99 323.456 376.266 323.348C376.542 323.228 376.794 323.03 377.022 322.754L385.608 313.034C385.848 312.722 386.1 312.506 386.364 312.386C386.628 312.266 386.952 312.206 387.336 312.206H390.288L380.46 323.312C380.22 323.6 379.986 323.84 379.758 324.032C379.542 324.212 379.308 324.362 379.056 324.482C379.38 324.59 379.674 324.752 379.938 324.968C380.202 325.172 380.46 325.442 380.712 325.778L390.972 338H387.948C387.72 338 387.522 337.988 387.354 337.964C387.198 337.928 387.06 337.88 386.94 337.82C386.82 337.748 386.712 337.67 386.616 337.586C386.532 337.49 386.448 337.382 386.364 337.262L377.472 327.02C377.232 326.72 376.974 326.51 376.698 326.39C376.422 326.258 376.002 326.192 375.438 326.192H373.854V338H370.38V312.206H373.854V323.51ZM413.728 335.156L413.71 338H397.816V312.206H413.71V315.05H401.308V323.618H411.352V326.354H401.308V335.156H413.728ZM429.34 324.698C430.348 324.698 431.236 324.578 432.004 324.338C432.784 324.086 433.432 323.738 433.948 323.294C434.476 322.838 434.872 322.298 435.136 321.674C435.4 321.05 435.532 320.36 435.532 319.604C435.532 318.068 435.028 316.91 434.02 316.13C433.012 315.35 431.5 314.96 429.484 314.96H425.668V324.698H429.34ZM441.256 338H438.16C437.524 338 437.056 337.754 436.756 337.262L430.06 328.046C429.856 327.758 429.634 327.554 429.394 327.434C429.166 327.302 428.806 327.236 428.314 327.236H425.668V338H422.194V312.206H429.484C431.116 312.206 432.526 312.374 433.714 312.71C434.902 313.034 435.88 313.508 436.648 314.132C437.428 314.756 438.004 315.512 438.376 316.4C438.748 317.276 438.934 318.26 438.934 319.352C438.934 320.264 438.79 321.116 438.502 321.908C438.214 322.7 437.794 323.414 437.242 324.05C436.702 324.674 436.036 325.208 435.244 325.652C434.464 326.096 433.576 326.432 432.58 326.66C433.024 326.912 433.408 327.278 433.732 327.758L441.256 338ZM457.063 327.722V338H453.571V327.722L444.121 312.206H447.181C447.493 312.206 447.739 312.284 447.919 312.44C448.099 312.584 448.255 312.776 448.387 313.016L454.291 323.042C454.507 323.462 454.705 323.858 454.885 324.23C455.065 324.59 455.221 324.956 455.353 325.328C455.485 324.956 455.635 324.59 455.803 324.23C455.971 323.858 456.157 323.462 456.361 323.042L462.247 313.016C462.355 312.812 462.505 312.626 462.697 312.458C462.889 312.29 463.135 312.206 463.435 312.206H466.513L457.063 327.722Z" fill="black"/>
<path d="M261.227 243.262C213.959 223.3 167.499 219.375 141.206 244.574C148.117 224.519 148.267 215.273 166.95 202.227C185.634 189.18 219.55 191.159 248.572 205.861C277.594 220.564 282.554 188.06 275.106 179.187C301.903 208.227 308.496 263.225 261.227 243.262Z" fill="#FFA5A5"/>
<path d="M245.426 200.025C209.947 183.215 179.115 187.319 164.352 200.83C162.311 184.954 178.552 171.111 178.552 171.111C178.552 171.111 200.322 153.518 229.348 167.384C258.373 181.249 258.49 151.087 253.99 144.737C281.465 171.156 280.904 216.835 245.426 200.025Z" fill="#FFA5A5"/>
<path d="M235.841 164.311C209.249 155.164 196.87 156.609 186.894 162.401C182.974 152.628 196.362 140.324 206.427 137.006C216.493 133.687 217.665 134.819 222.161 131.321C226.656 127.823 232.218 115.936 228.86 111.911C249.722 126.419 262.433 173.457 235.841 164.311Z" fill="#FFA5A5"/>
<path d="M140.306 252.613C163.933 295.605 161.347 306.837 157.558 336.003C212.992 362.984 245.128 359.624 304.121 336.003C294.698 309.338 293.365 283.424 303.931 234.954C282.44 296.487 218.953 196.485 140.306 252.613Z" fill="#FFD599" stroke="black" stroke-width="5"/>
<path d="M194 347.884V276L228.214 304.603H229.786L261 276V347.884C236.469 355.788 218.781 353.53 194 347.884Z" fill="#FFF5F5"/>
<path d="M261 276H264V269.366L259.019 273.747L261 276ZM194 276L195.878 273.66L191 269.746V276L194 276ZM191 345C191 346.657 192.343 348 194 348C195.657 348 197 346.657 197 345H191ZM228.214 303.455L226.337 305.795L227.159 306.455H228.214V303.455ZM229.786 303.455V306.455H230.918L231.768 305.708L229.786 303.455ZM258 345C258 346.657 259.343 348 261 348C262.657 348 264 346.657 264 345H258ZM191 276L191 345H197L197 276L191 276ZM192.122 278.34L226.337 305.795L230.092 301.116L195.878 273.66L192.122 278.34ZM228.214 306.455H229.786V300.455H228.214V306.455ZM231.768 305.708L262.981 278.253L259.019 273.747L227.805 301.203L231.768 305.708ZM258 276V345H264V276H258Z" fill="black"/>
<circle cx="307" cy="270" r="225" stroke="black" stroke-width="5" stroke-linecap="round"/>
<circle cx="307" cy="270" r="235" stroke="black" stroke-width="5" stroke-linecap="round"/>
<path d="M275.05 406.883C274.523 408.266 273.995 409.602 273.468 410.891C272.952 412.18 272.437 413.434 271.921 414.652C271.417 415.871 270.907 417.066 270.392 418.238C269.876 419.41 269.355 420.564 268.827 421.701C269.706 421.572 270.597 421.438 271.499 421.297C272.413 421.156 273.257 421.027 274.03 420.91C274.816 420.793 275.489 420.693 276.052 420.611C276.614 420.529 276.984 420.471 277.159 420.436C278.155 418.045 279.111 415.625 280.025 413.176C280.95 410.715 281.87 408.207 282.784 405.652C283.124 405.992 283.493 406.361 283.892 406.76C284.29 407.158 284.671 407.539 285.034 407.902C285.398 408.266 285.714 408.588 285.984 408.869C286.253 409.139 286.435 409.326 286.529 409.432C285.708 411.178 284.905 412.883 284.12 414.547C283.335 416.211 282.556 417.84 281.782 419.434C282.825 419.176 283.657 418.941 284.279 418.73C284.9 418.508 285.368 418.338 285.685 418.221C286.013 418.092 286.218 418.016 286.3 417.992C286.382 417.969 286.411 418.01 286.388 418.115C286.353 418.209 286.277 418.379 286.159 418.625C286.042 418.859 285.896 419.129 285.72 419.434C285.556 419.738 285.368 420.061 285.157 420.4C284.946 420.729 284.736 421.033 284.525 421.314C284.325 421.596 284.132 421.83 283.945 422.018C283.757 422.205 283.599 422.305 283.47 422.316C283.224 422.363 282.937 422.41 282.609 422.457C282.327 422.504 281.976 422.562 281.554 422.633C281.144 422.691 280.669 422.762 280.13 422.844C278.911 425.328 277.763 427.584 276.685 429.611C275.618 431.627 274.652 433.326 273.784 434.709C273.351 434.357 272.941 434.006 272.554 433.654C272.167 433.314 271.786 433.08 271.411 432.951C271.189 431.568 270.773 430.068 270.163 428.451C269.554 426.822 268.81 425.205 267.931 423.6C267.099 425.357 266.249 427.104 265.382 428.838C264.515 430.561 263.595 432.336 262.622 434.164C262.118 433.754 261.638 433.391 261.181 433.074C260.712 432.77 260.32 432.5 260.003 432.266C260.519 431.246 261.081 430.086 261.691 428.785C262.3 427.473 262.927 426.055 263.571 424.531C264.228 422.996 264.89 421.379 265.558 419.68C266.226 417.969 266.888 416.205 267.544 414.389C268.2 412.572 268.839 410.727 269.46 408.852C270.081 406.965 270.661 405.084 271.2 403.209C271.54 403.537 271.886 403.865 272.237 404.193C272.601 404.51 272.952 404.826 273.292 405.143C273.644 405.447 273.966 405.752 274.259 406.057C274.564 406.35 274.827 406.625 275.05 406.883ZM272.87 430.086C273.913 427.906 274.927 425.686 275.911 423.424C274.189 423.646 272.191 423.875 269.917 424.109C270.234 424.602 270.532 425.117 270.814 425.656C271.107 426.195 271.376 426.729 271.622 427.256C271.88 427.783 272.109 428.293 272.308 428.785C272.519 429.266 272.706 429.699 272.87 430.086ZM301.449 426.676C300.371 427.73 299.351 428.615 298.39 429.33C297.441 430.045 296.533 430.619 295.666 431.053C294.798 431.486 293.966 431.797 293.17 431.984C292.384 432.172 291.617 432.266 290.867 432.266C290.55 432.266 290.199 432.148 289.812 431.914C289.425 431.68 289.068 431.393 288.74 431.053C288.4 430.725 288.119 430.379 287.896 430.016C287.673 429.652 287.562 429.342 287.562 429.084C287.562 428.123 287.697 427.244 287.966 426.447C288.224 425.639 288.57 424.912 289.004 424.268C289.437 423.623 289.929 423.055 290.48 422.562C291.043 422.07 291.623 421.66 292.22 421.332C292.83 421.004 293.433 420.758 294.031 420.594C294.629 420.43 295.179 420.348 295.683 420.348C296.046 420.348 296.404 420.453 296.755 420.664C297.119 420.875 297.447 421.133 297.74 421.438C298.033 421.742 298.267 422.064 298.443 422.404C298.63 422.732 298.724 423.02 298.724 423.266C298.724 423.664 298.554 424.074 298.214 424.496C297.886 424.906 297.418 425.328 296.808 425.762C296.199 426.195 295.466 426.641 294.611 427.098C293.755 427.543 292.812 427.994 291.781 428.451C291.746 428.732 291.728 429.008 291.728 429.277C291.728 429.641 291.804 429.887 291.957 430.016C292.121 430.145 292.42 430.209 292.853 430.209C293.627 430.209 294.353 430.08 295.033 429.822C295.724 429.564 296.386 429.23 297.019 428.82C297.652 428.41 298.261 427.941 298.847 427.414C299.433 426.887 300.013 426.354 300.587 425.814L301.449 426.676ZM295.261 422.281C295.027 422.281 294.769 422.41 294.488 422.668C294.207 422.914 293.925 423.242 293.644 423.652C293.363 424.062 293.093 424.537 292.836 425.076C292.578 425.604 292.355 426.154 292.168 426.729C292.601 426.447 293.023 426.148 293.433 425.832C293.855 425.516 294.23 425.188 294.558 424.848C294.886 424.496 295.15 424.139 295.349 423.775C295.548 423.412 295.648 423.049 295.648 422.686C295.648 422.58 295.613 422.486 295.543 422.404C295.484 422.322 295.39 422.281 295.261 422.281ZM305.717 432.301C305.506 432.301 305.266 432.23 304.996 432.09C304.727 431.961 304.451 431.779 304.17 431.545C303.889 431.322 303.619 431.059 303.361 430.754C303.092 430.438 302.869 430.109 302.693 429.77C302.623 429.641 302.576 429.494 302.553 429.33C302.529 429.166 302.518 428.955 302.518 428.697C302.518 428.029 302.623 427.361 302.834 426.693C303.033 426.014 303.314 425.369 303.678 424.76C304.041 424.15 304.48 423.582 304.996 423.055C305.5 422.516 306.051 422.053 306.648 421.666C307.246 421.279 307.885 420.975 308.564 420.752C309.244 420.529 309.936 420.418 310.639 420.418C310.744 420.418 310.885 420.477 311.061 420.594C311.248 420.699 311.447 420.846 311.658 421.033C311.869 421.221 312.08 421.432 312.291 421.666C312.514 421.9 312.713 422.141 312.889 422.387C313.064 422.621 313.205 422.855 313.311 423.09C313.428 423.312 313.486 423.512 313.486 423.688C313.428 423.91 313.246 424.156 312.941 424.426C312.637 424.684 312.273 424.93 311.852 425.164C311.441 425.387 311.008 425.574 310.551 425.727C310.094 425.879 309.695 425.955 309.355 425.955C309.156 425.955 309.057 425.896 309.057 425.779C309.057 425.65 309.145 425.463 309.32 425.217C309.496 424.959 309.689 424.684 309.9 424.391C310.123 424.086 310.322 423.787 310.498 423.494C310.674 423.189 310.762 422.932 310.762 422.721C310.762 422.615 310.732 422.527 310.674 422.457C310.627 422.387 310.557 422.352 310.463 422.352C310.205 422.352 309.936 422.469 309.654 422.703C309.373 422.938 309.092 423.248 308.811 423.635C308.529 424.021 308.26 424.467 308.002 424.971C307.744 425.463 307.516 425.973 307.316 426.5C307.129 427.027 306.977 427.555 306.859 428.082C306.742 428.609 306.684 429.09 306.684 429.523C306.684 429.781 306.76 429.963 306.912 430.068C307.064 430.162 307.299 430.209 307.615 430.209C308.4 430.209 309.156 430.08 309.883 429.822C310.621 429.553 311.324 429.213 311.992 428.803C312.672 428.381 313.316 427.912 313.926 427.396C314.535 426.881 315.109 426.365 315.648 425.85C315.777 426.002 315.936 426.154 316.123 426.307C316.311 426.447 316.451 426.57 316.545 426.676C315.818 427.438 315.045 428.164 314.225 428.855C313.416 429.535 312.561 430.133 311.658 430.648C310.756 431.152 309.807 431.551 308.811 431.844C307.826 432.148 306.795 432.301 305.717 432.301ZM329.127 429.523C329.303 429.523 329.537 429.447 329.83 429.295C330.123 429.143 330.446 428.949 330.797 428.715C331.161 428.48 331.53 428.223 331.905 427.941C332.28 427.648 332.637 427.367 332.977 427.098C333.329 426.816 333.639 426.564 333.909 426.342C334.178 426.107 334.383 425.932 334.524 425.814C334.629 425.92 334.752 426.055 334.893 426.219C335.045 426.383 335.186 426.535 335.315 426.676C335.057 426.934 334.735 427.244 334.348 427.607C333.961 427.959 333.545 428.322 333.1 428.697C332.655 429.072 332.192 429.441 331.711 429.805C331.231 430.168 330.762 430.496 330.305 430.789C329.848 431.082 329.42 431.316 329.022 431.492C328.623 431.668 328.289 431.756 328.02 431.756C327.797 431.756 327.534 431.697 327.229 431.58C326.936 431.475 326.649 431.334 326.368 431.158C326.098 430.994 325.864 430.812 325.664 430.613C325.477 430.402 325.383 430.197 325.383 429.998C325.395 429.494 325.489 428.908 325.664 428.24C325.84 427.572 326.045 426.887 326.28 426.184C326.526 425.48 326.784 424.789 327.053 424.109C327.334 423.418 327.592 422.803 327.827 422.264C327.733 422.287 327.551 422.416 327.282 422.65C327.012 422.885 326.684 423.207 326.297 423.617C325.922 424.016 325.506 424.502 325.049 425.076C324.604 425.639 324.159 426.271 323.713 426.975C323.28 427.678 322.864 428.439 322.465 429.26C322.067 430.068 321.733 430.924 321.463 431.826C321.428 431.955 321.375 432.049 321.305 432.107C321.246 432.166 321.141 432.195 320.989 432.195C320.883 432.195 320.719 432.143 320.496 432.037C320.274 431.932 320.039 431.803 319.793 431.65C319.547 431.51 319.307 431.357 319.073 431.193C318.838 431.029 318.651 430.883 318.51 430.754C318.44 430.672 318.381 430.596 318.334 430.525C318.287 430.455 318.264 430.35 318.264 430.209C318.264 429.436 318.393 428.486 318.651 427.361C318.909 426.236 319.266 425.018 319.723 423.705C320.168 422.381 320.69 421.004 321.287 419.574C321.897 418.133 322.541 416.721 323.221 415.338C323.912 413.955 324.627 412.643 325.366 411.4C326.116 410.146 326.848 409.045 327.563 408.096C328.289 407.135 328.981 406.367 329.637 405.793C330.305 405.207 330.914 404.896 331.465 404.861C331.735 404.943 332.004 405.072 332.274 405.248C332.555 405.424 332.819 405.617 333.065 405.828C333.311 406.039 333.528 406.244 333.715 406.443C333.914 406.643 334.067 406.812 334.172 406.953C334.243 407.047 334.289 407.158 334.313 407.287C334.336 407.416 334.348 407.51 334.348 407.568C334.348 407.99 334.231 408.512 333.996 409.133C333.762 409.754 333.434 410.451 333.012 411.225C332.59 411.998 332.075 412.83 331.465 413.721C330.868 414.6 330.2 415.508 329.461 416.445C328.735 417.371 327.944 418.309 327.088 419.258C326.245 420.207 325.36 421.127 324.434 422.018C324.2 422.65 323.989 423.266 323.801 423.863C324.434 423.207 325.014 422.656 325.541 422.211C326.069 421.766 326.537 421.414 326.948 421.156C327.358 420.887 327.704 420.699 327.985 420.594C328.278 420.477 328.5 420.418 328.653 420.418C328.758 420.418 328.946 420.488 329.215 420.629C329.485 420.758 329.766 420.916 330.059 421.104C330.352 421.291 330.621 421.484 330.868 421.684C331.114 421.883 331.266 422.047 331.325 422.176C331.348 422.234 331.348 422.316 331.325 422.422C331.301 422.516 331.278 422.592 331.254 422.65C331.149 422.967 331.02 423.336 330.868 423.758C330.727 424.168 330.569 424.607 330.393 425.076C330.229 425.533 330.065 425.996 329.901 426.465C329.737 426.934 329.59 427.367 329.461 427.766C329.332 428.152 329.227 428.498 329.145 428.803C329.063 429.096 329.022 429.301 329.022 429.418C329.022 429.488 329.057 429.523 329.127 429.523ZM327.58 414.406C327.299 415.004 327.024 415.602 326.754 416.199C326.496 416.785 326.245 417.377 325.998 417.975C326.784 416.967 327.545 415.947 328.284 414.916C329.022 413.873 329.678 412.877 330.252 411.928C330.838 410.967 331.307 410.082 331.659 409.273C332.01 408.465 332.186 407.785 332.186 407.234C332.186 406.977 332.139 406.848 332.045 406.848C331.905 406.848 331.688 407.041 331.395 407.428C331.114 407.803 330.774 408.324 330.375 408.992C329.977 409.66 329.537 410.457 329.057 411.383C328.588 412.309 328.096 413.316 327.58 414.406ZM340.18 429.207C340.18 429.559 340.309 429.734 340.567 429.734C340.837 429.734 341.194 429.523 341.639 429.102C342.085 428.668 342.548 428.123 343.028 427.467C343.005 427.338 342.987 427.227 342.975 427.133C342.975 427.027 342.975 426.934 342.975 426.852C342.975 426.617 342.999 426.342 343.046 426.025C343.104 425.697 343.239 425.328 343.45 424.918C343.591 424.602 343.761 424.291 343.96 423.986C344.124 423.717 344.323 423.43 344.557 423.125C344.792 422.809 345.05 422.516 345.331 422.246L345.436 422.141C345.554 422.281 345.706 422.475 345.893 422.721C346.093 422.955 346.286 423.201 346.473 423.459C346.673 423.705 346.843 423.934 346.983 424.145C347.136 424.355 347.229 424.502 347.264 424.584C347.264 425.088 347.171 425.592 346.983 426.096C346.807 426.6 346.567 427.098 346.262 427.59C346.966 427.543 347.616 427.367 348.214 427.062C348.823 426.746 349.456 426.236 350.112 425.533C350.218 425.639 350.352 425.785 350.516 425.973C350.692 426.148 350.833 426.301 350.938 426.43C350.446 426.945 349.96 427.373 349.479 427.713C349.011 428.053 348.536 428.322 348.055 428.521C347.587 428.721 347.106 428.867 346.614 428.961C346.122 429.043 345.618 429.084 345.102 429.084C344.704 429.506 344.276 429.893 343.819 430.244C343.362 430.596 342.893 430.9 342.413 431.158C341.944 431.416 341.475 431.615 341.007 431.756C340.538 431.896 340.093 431.967 339.671 431.967C339.319 431.967 338.956 431.861 338.581 431.65C338.206 431.439 337.866 431.182 337.561 430.877C337.257 430.561 337.005 430.227 336.805 429.875C336.606 429.523 336.507 429.213 336.507 428.943C336.507 428.053 336.63 427.168 336.876 426.289C337.11 425.41 337.485 424.59 338.001 423.828C338.505 423.055 339.149 422.375 339.934 421.789C340.731 421.203 341.675 420.758 342.764 420.453C342.8 420.43 342.858 420.412 342.94 420.4C343.034 420.389 343.11 420.383 343.169 420.383C343.333 420.383 343.503 420.447 343.679 420.576C343.866 420.693 344.036 420.828 344.188 420.98C344.352 421.133 344.487 421.285 344.593 421.438C344.698 421.578 344.751 421.672 344.751 421.719C344.727 421.777 344.639 421.854 344.487 421.947C344.335 422.029 344.13 422.176 343.872 422.387C343.614 422.598 343.309 422.902 342.958 423.301C342.606 423.688 342.22 424.203 341.798 424.848C341.165 425.797 340.737 426.658 340.514 427.432C340.292 428.193 340.18 428.785 340.18 429.207Z" fill="black"/>
<path d="M243.002 456.301C242.791 456.301 242.55 456.23 242.281 456.09C242.011 455.961 241.736 455.779 241.455 455.545C241.173 455.322 240.904 455.059 240.646 454.754C240.377 454.438 240.154 454.109 239.978 453.77C239.908 453.641 239.861 453.494 239.838 453.33C239.814 453.166 239.802 452.955 239.802 452.697C239.802 452.029 239.908 451.361 240.119 450.693C240.318 450.014 240.599 449.369 240.963 448.76C241.326 448.15 241.765 447.582 242.281 447.055C242.785 446.516 243.336 446.053 243.933 445.666C244.531 445.279 245.17 444.975 245.849 444.752C246.529 444.529 247.22 444.418 247.923 444.418C248.029 444.418 248.17 444.477 248.345 444.594C248.533 444.699 248.732 444.846 248.943 445.033C249.154 445.221 249.365 445.432 249.576 445.666C249.798 445.9 249.998 446.141 250.173 446.387C250.349 446.621 250.49 446.855 250.595 447.09C250.713 447.312 250.771 447.512 250.771 447.688C250.713 447.91 250.531 448.156 250.226 448.426C249.921 448.684 249.558 448.93 249.136 449.164C248.726 449.387 248.293 449.574 247.836 449.727C247.379 449.879 246.98 449.955 246.64 449.955C246.441 449.955 246.341 449.896 246.341 449.779C246.341 449.65 246.429 449.463 246.605 449.217C246.781 448.959 246.974 448.684 247.185 448.391C247.408 448.086 247.607 447.787 247.783 447.494C247.959 447.189 248.046 446.932 248.046 446.721C248.046 446.615 248.017 446.527 247.959 446.457C247.912 446.387 247.841 446.352 247.748 446.352C247.49 446.352 247.22 446.469 246.939 446.703C246.658 446.938 246.377 447.248 246.095 447.635C245.814 448.021 245.545 448.467 245.287 448.971C245.029 449.463 244.8 449.973 244.601 450.5C244.414 451.027 244.261 451.555 244.144 452.082C244.027 452.609 243.968 453.09 243.968 453.523C243.968 453.781 244.045 453.963 244.197 454.068C244.349 454.162 244.584 454.209 244.9 454.209C245.685 454.209 246.441 454.08 247.168 453.822C247.906 453.553 248.609 453.213 249.277 452.803C249.957 452.381 250.601 451.912 251.211 451.396C251.82 450.881 252.394 450.365 252.933 449.85C253.062 450.002 253.22 450.154 253.408 450.307C253.595 450.447 253.736 450.57 253.83 450.676C253.103 451.438 252.33 452.164 251.509 452.855C250.701 453.535 249.845 454.133 248.943 454.648C248.041 455.152 247.091 455.551 246.095 455.844C245.111 456.148 244.08 456.301 243.002 456.301ZM258.713 453.207C258.713 453.559 258.842 453.734 259.1 453.734C259.369 453.734 259.727 453.523 260.172 453.102C260.617 452.668 261.08 452.123 261.561 451.467C261.537 451.338 261.52 451.227 261.508 451.133C261.508 451.027 261.508 450.934 261.508 450.852C261.508 450.617 261.531 450.342 261.578 450.025C261.637 449.697 261.771 449.328 261.982 448.918C262.123 448.602 262.293 448.291 262.492 447.986C262.656 447.717 262.855 447.43 263.09 447.125C263.324 446.809 263.582 446.516 263.863 446.246L263.969 446.141C264.086 446.281 264.238 446.475 264.426 446.721C264.625 446.955 264.818 447.201 265.006 447.459C265.205 447.705 265.375 447.934 265.516 448.145C265.668 448.355 265.762 448.502 265.797 448.584C265.797 449.088 265.703 449.592 265.516 450.096C265.34 450.6 265.1 451.098 264.795 451.59C265.498 451.543 266.148 451.367 266.746 451.062C267.355 450.746 267.988 450.236 268.645 449.533C268.75 449.639 268.885 449.785 269.049 449.973C269.225 450.148 269.365 450.301 269.471 450.43C268.979 450.945 268.492 451.373 268.012 451.713C267.543 452.053 267.068 452.322 266.588 452.521C266.119 452.721 265.639 452.867 265.146 452.961C264.654 453.043 264.15 453.084 263.635 453.084C263.236 453.506 262.809 453.893 262.352 454.244C261.895 454.596 261.426 454.9 260.945 455.158C260.477 455.416 260.008 455.615 259.539 455.756C259.07 455.896 258.625 455.967 258.203 455.967C257.852 455.967 257.488 455.861 257.113 455.65C256.738 455.439 256.398 455.182 256.094 454.877C255.789 454.561 255.537 454.227 255.338 453.875C255.139 453.523 255.039 453.213 255.039 452.943C255.039 452.053 255.162 451.168 255.408 450.289C255.643 449.41 256.018 448.59 256.533 447.828C257.037 447.055 257.682 446.375 258.467 445.789C259.264 445.203 260.207 444.758 261.297 444.453C261.332 444.43 261.391 444.412 261.473 444.4C261.566 444.389 261.643 444.383 261.701 444.383C261.865 444.383 262.035 444.447 262.211 444.576C262.398 444.693 262.568 444.828 262.721 444.98C262.885 445.133 263.02 445.285 263.125 445.438C263.23 445.578 263.283 445.672 263.283 445.719C263.26 445.777 263.172 445.854 263.02 445.947C262.867 446.029 262.662 446.176 262.404 446.387C262.146 446.598 261.842 446.902 261.49 447.301C261.139 447.688 260.752 448.203 260.33 448.848C259.697 449.797 259.27 450.658 259.047 451.432C258.824 452.193 258.713 452.785 258.713 453.207ZM276.973 446.51C276.832 446.885 276.692 447.266 276.551 447.652C276.411 448.039 276.27 448.438 276.129 448.848C276.868 448.004 277.5 447.318 278.028 446.791C278.567 446.252 279.018 445.83 279.381 445.525C279.756 445.221 280.055 445.016 280.278 444.91C280.512 444.793 280.694 444.734 280.823 444.734C280.975 444.734 281.204 444.811 281.508 444.963C281.813 445.115 282.118 445.303 282.422 445.525C282.739 445.748 283.008 445.977 283.231 446.211C283.465 446.445 283.582 446.65 283.582 446.826C283.582 446.861 283.577 446.908 283.565 446.967C283.553 447.014 283.536 447.078 283.512 447.16C283.418 447.453 283.295 447.799 283.143 448.197C283.002 448.596 282.85 449.012 282.686 449.445C282.522 449.867 282.358 450.295 282.194 450.729C282.03 451.15 281.883 451.549 281.754 451.924C281.625 452.299 281.52 452.627 281.438 452.908C281.356 453.189 281.315 453.395 281.315 453.523C281.315 453.594 281.35 453.629 281.42 453.629C281.549 453.629 281.743 453.553 282 453.4C282.258 453.248 282.551 453.049 282.879 452.803C283.219 452.557 283.571 452.287 283.934 451.994C284.297 451.701 284.643 451.414 284.971 451.133C285.311 450.84 285.616 450.576 285.885 450.342C286.155 450.107 286.36 449.932 286.5 449.814C286.618 449.92 286.746 450.055 286.887 450.219C287.028 450.383 287.163 450.535 287.291 450.676C287.034 450.934 286.711 451.25 286.325 451.625C285.938 451.988 285.516 452.363 285.059 452.75C284.614 453.137 284.145 453.523 283.653 453.91C283.172 454.297 282.704 454.643 282.246 454.947C281.789 455.252 281.362 455.498 280.963 455.686C280.565 455.873 280.231 455.967 279.961 455.967C279.786 455.967 279.563 455.902 279.293 455.773C279.024 455.656 278.76 455.504 278.502 455.316C278.256 455.141 278.045 454.941 277.87 454.719C277.694 454.496 277.606 454.279 277.606 454.068C277.711 453.588 277.852 453.043 278.028 452.434C278.215 451.824 278.414 451.203 278.625 450.57C278.836 449.926 279.053 449.293 279.276 448.672C279.51 448.039 279.733 447.459 279.944 446.932L279.909 446.967C279.686 447.236 279.364 447.594 278.942 448.039C278.532 448.473 278.063 449.035 277.536 449.727C277.008 450.406 276.452 451.232 275.866 452.205C275.28 453.166 274.705 454.309 274.143 455.633C274.073 455.797 274.008 455.926 273.95 456.02C273.891 456.113 273.78 456.16 273.616 456.16C273.416 456.16 273.188 456.102 272.93 455.984C272.684 455.879 272.432 455.732 272.174 455.545C271.905 455.369 271.641 455.17 271.383 454.947C271.114 454.725 270.873 454.502 270.663 454.279C270.663 454.209 270.698 454.01 270.768 453.682C270.827 453.354 270.914 452.943 271.032 452.451C271.149 451.947 271.295 451.379 271.471 450.746C271.647 450.102 271.846 449.428 272.069 448.725C272.291 448.021 272.538 447.307 272.807 446.58C273.065 445.842 273.346 445.133 273.651 444.453C274.143 444.688 274.688 444.975 275.286 445.314C275.895 445.654 276.457 446.053 276.973 446.51ZM311.7 453.453C311.7 453.523 311.736 453.559 311.806 453.559C311.911 453.559 312.087 453.482 312.333 453.33C312.579 453.178 312.861 452.984 313.177 452.75C313.493 452.516 313.827 452.252 314.179 451.959C314.542 451.666 314.888 451.379 315.216 451.098C315.544 450.816 315.837 450.559 316.095 450.324C316.364 450.09 316.57 449.908 316.71 449.779C316.816 449.885 316.945 450.025 317.097 450.201C317.261 450.377 317.407 450.535 317.536 450.676C317.255 450.934 316.915 451.25 316.517 451.625C316.13 451.988 315.708 452.369 315.251 452.768C314.806 453.166 314.343 453.564 313.863 453.963C313.382 454.35 312.913 454.695 312.456 455C311.999 455.305 311.566 455.551 311.155 455.738C310.745 455.938 310.388 456.037 310.083 456.037C309.872 456.037 309.638 455.996 309.38 455.914C309.134 455.832 308.905 455.715 308.695 455.562C308.484 455.422 308.308 455.252 308.167 455.053C308.027 454.854 307.956 454.631 307.956 454.385C307.956 454.291 307.95 454.18 307.939 454.051C307.939 453.91 307.95 453.734 307.974 453.523C307.997 453.301 308.044 453.037 308.114 452.732C308.185 452.416 308.29 452.029 308.431 451.572C308.044 451.982 307.587 452.41 307.06 452.855C306.544 453.301 305.999 453.723 305.425 454.121C304.851 454.52 304.271 454.877 303.685 455.193C303.111 455.521 302.577 455.768 302.085 455.932C302.027 455.955 301.98 455.967 301.945 455.967C301.909 455.967 301.874 455.967 301.839 455.967C301.722 455.967 301.57 455.908 301.382 455.791C301.183 455.674 300.989 455.516 300.802 455.316C300.614 455.129 300.456 454.912 300.327 454.666C300.187 454.42 300.116 454.174 300.116 453.928C300.116 453.857 300.152 453.623 300.222 453.225C300.292 452.826 300.462 452.322 300.732 451.713C300.989 451.092 301.376 450.4 301.892 449.639C302.407 448.865 303.111 448.074 304.001 447.266C304.458 446.855 304.95 446.469 305.478 446.105C305.923 445.801 306.433 445.49 307.007 445.174C307.581 444.857 308.185 444.605 308.818 444.418C308.841 444.418 308.859 444.412 308.87 444.4C308.894 444.389 308.923 444.395 308.958 444.418C309.099 444.465 309.263 444.541 309.45 444.646C309.65 444.74 309.843 444.846 310.03 444.963C310.23 445.068 310.4 445.18 310.54 445.297C310.693 445.402 310.792 445.49 310.839 445.561C310.851 445.584 310.851 445.602 310.839 445.613L310.804 445.648C310.277 445.93 309.779 446.246 309.31 446.598C308.841 446.938 308.425 447.26 308.062 447.564C307.64 447.928 307.247 448.285 306.884 448.637C306.029 449.48 305.437 450.213 305.109 450.834C304.78 451.443 304.616 451.883 304.616 452.152C304.616 452.352 304.698 452.451 304.863 452.451C305.027 452.451 305.232 452.387 305.478 452.258C305.736 452.117 306.023 451.936 306.339 451.713C306.655 451.479 307.001 451.209 307.376 450.904C307.763 450.588 308.161 450.26 308.571 449.92C308.935 449.627 309.286 449.311 309.626 448.971C309.919 448.689 310.224 448.367 310.54 448.004C310.857 447.641 311.126 447.271 311.349 446.896C311.349 446.885 311.355 446.873 311.366 446.861C311.378 446.85 311.396 446.85 311.419 446.861C311.548 446.955 311.695 447.113 311.859 447.336C312.023 447.547 312.175 447.781 312.316 448.039C312.456 448.297 312.573 448.549 312.667 448.795C312.773 449.029 312.825 449.211 312.825 449.34C312.556 449.891 312.345 450.395 312.193 450.852C312.052 451.297 311.941 451.689 311.859 452.029C311.788 452.369 311.741 452.662 311.718 452.908C311.706 453.143 311.7 453.324 311.7 453.453ZM325.021 446.51C324.88 446.873 324.74 447.248 324.599 447.635C324.459 448.021 324.324 448.414 324.195 448.812C324.933 447.934 325.543 447.23 326.023 446.703C326.515 446.176 326.92 445.766 327.236 445.473C327.564 445.18 327.834 444.975 328.045 444.857C328.255 444.74 328.449 444.652 328.625 444.594C328.73 444.594 328.906 444.652 329.152 444.77C329.41 444.887 329.679 445.033 329.961 445.209C330.254 445.373 330.529 445.549 330.787 445.736C331.045 445.912 331.226 446.059 331.332 446.176C331.425 446.27 331.437 446.404 331.367 446.58C331.226 446.955 331.086 447.336 330.945 447.723C330.816 448.098 330.687 448.484 330.558 448.883C331.343 447.98 332 447.26 332.527 446.721C333.054 446.17 333.482 445.748 333.81 445.455C334.15 445.162 334.414 444.969 334.601 444.875C334.789 444.781 334.935 444.734 335.041 444.734C335.193 444.734 335.421 444.811 335.726 444.963C336.031 445.115 336.336 445.303 336.64 445.525C336.957 445.748 337.226 445.977 337.449 446.211C337.683 446.445 337.8 446.65 337.8 446.826C337.8 446.861 337.795 446.908 337.783 446.967C337.771 447.014 337.754 447.078 337.73 447.16C337.636 447.453 337.513 447.799 337.361 448.197C337.22 448.596 337.068 449.012 336.904 449.445C336.74 449.867 336.576 450.295 336.412 450.729C336.248 451.15 336.101 451.549 335.972 451.924C335.843 452.299 335.738 452.627 335.656 452.908C335.574 453.189 335.533 453.395 335.533 453.523C335.533 453.594 335.568 453.629 335.638 453.629C335.767 453.629 335.961 453.553 336.218 453.4C336.476 453.248 336.769 453.049 337.097 452.803C337.437 452.557 337.789 452.287 338.152 451.994C338.515 451.701 338.861 451.414 339.189 451.133C339.529 450.84 339.834 450.576 340.103 450.342C340.373 450.107 340.578 449.932 340.718 449.814C340.824 449.92 340.947 450.055 341.088 450.219C341.24 450.383 341.38 450.535 341.509 450.676C341.252 450.934 340.929 451.25 340.543 451.625C340.156 451.988 339.734 452.363 339.277 452.75C338.832 453.137 338.363 453.523 337.871 453.91C337.39 454.297 336.921 454.643 336.464 454.947C336.007 455.252 335.58 455.498 335.181 455.686C334.783 455.873 334.443 455.967 334.162 455.967C333.986 455.967 333.763 455.902 333.494 455.773C333.224 455.656 332.966 455.504 332.72 455.316C332.474 455.141 332.263 454.941 332.088 454.719C331.912 454.496 331.824 454.279 331.824 454.068C331.929 453.588 332.07 453.043 332.246 452.434C332.421 451.824 332.615 451.203 332.826 450.57C333.037 449.926 333.254 449.293 333.476 448.672C333.711 448.051 333.933 447.477 334.144 446.949C333.91 447.23 333.599 447.57 333.213 447.969C332.826 448.367 332.386 448.895 331.894 449.551C331.402 450.195 330.875 450.998 330.312 451.959C329.75 452.92 329.187 454.092 328.625 455.475C328.554 455.709 328.384 455.826 328.115 455.826C327.974 455.826 327.798 455.797 327.588 455.738C327.388 455.691 327.171 455.609 326.937 455.492C326.714 455.387 326.48 455.252 326.234 455.088C326 454.924 325.777 454.725 325.566 454.49C325.566 454.408 325.607 454.162 325.689 453.752C325.783 453.33 325.912 452.797 326.076 452.152C326.252 451.508 326.457 450.787 326.691 449.99C326.925 449.193 327.189 448.373 327.482 447.529C327.201 447.834 326.849 448.227 326.427 448.707C326.005 449.176 325.554 449.75 325.074 450.43C324.593 451.098 324.101 451.877 323.597 452.768C323.093 453.658 322.619 454.666 322.173 455.791C322.103 456.037 321.939 456.16 321.681 456.16C321.482 456.16 321.259 456.102 321.013 455.984C320.755 455.879 320.498 455.732 320.24 455.545C319.97 455.369 319.707 455.17 319.449 454.947C319.179 454.725 318.939 454.502 318.728 454.279C318.728 454.209 318.763 454.01 318.834 453.682C318.892 453.354 318.98 452.943 319.097 452.451C319.214 451.947 319.361 451.379 319.537 450.746C319.701 450.102 319.894 449.428 320.117 448.725C320.339 448.021 320.586 447.307 320.855 446.58C321.125 445.842 321.412 445.133 321.716 444.453C322.209 444.688 322.754 444.975 323.351 445.314C323.961 445.654 324.517 446.053 325.021 446.51ZM346.428 453.207C346.428 453.559 346.557 453.734 346.814 453.734C347.084 453.734 347.441 453.523 347.887 453.102C348.332 452.668 348.795 452.123 349.275 451.467C349.252 451.338 349.234 451.227 349.223 451.133C349.223 451.027 349.223 450.934 349.223 450.852C349.223 450.617 349.246 450.342 349.293 450.025C349.352 449.697 349.486 449.328 349.697 448.918C349.838 448.602 350.008 448.291 350.207 447.986C350.371 447.717 350.57 447.43 350.805 447.125C351.039 446.809 351.297 446.516 351.578 446.246L351.684 446.141C351.801 446.281 351.953 446.475 352.141 446.721C352.34 446.955 352.533 447.201 352.721 447.459C352.92 447.705 353.09 447.934 353.23 448.145C353.383 448.355 353.477 448.502 353.512 448.584C353.512 449.088 353.418 449.592 353.23 450.096C353.055 450.6 352.814 451.098 352.51 451.59C353.213 451.543 353.863 451.367 354.461 451.062C355.07 450.746 355.703 450.236 356.359 449.533C356.465 449.639 356.6 449.785 356.764 449.973C356.939 450.148 357.08 450.301 357.186 450.43C356.693 450.945 356.207 451.373 355.727 451.713C355.258 452.053 354.783 452.322 354.303 452.521C353.834 452.721 353.354 452.867 352.861 452.961C352.369 453.043 351.865 453.084 351.35 453.084C350.951 453.506 350.523 453.893 350.066 454.244C349.609 454.596 349.141 454.9 348.66 455.158C348.191 455.416 347.723 455.615 347.254 455.756C346.785 455.896 346.34 455.967 345.918 455.967C345.566 455.967 345.203 455.861 344.828 455.65C344.453 455.439 344.113 455.182 343.809 454.877C343.504 454.561 343.252 454.227 343.053 453.875C342.854 453.523 342.754 453.213 342.754 452.943C342.754 452.053 342.877 451.168 343.123 450.289C343.357 449.41 343.732 448.59 344.248 447.828C344.752 447.055 345.396 446.375 346.182 445.789C346.979 445.203 347.922 444.758 349.012 444.453C349.047 444.43 349.105 444.412 349.188 444.4C349.281 444.389 349.357 444.383 349.416 444.383C349.58 444.383 349.75 444.447 349.926 444.576C350.113 444.693 350.283 444.828 350.436 444.98C350.6 445.133 350.734 445.285 350.84 445.438C350.945 445.578 350.998 445.672 350.998 445.719C350.975 445.777 350.887 445.854 350.734 445.947C350.582 446.029 350.377 446.176 350.119 446.387C349.861 446.598 349.557 446.902 349.205 447.301C348.854 447.688 348.467 448.203 348.045 448.848C347.412 449.797 346.984 450.658 346.762 451.432C346.539 452.193 346.428 452.785 346.428 453.207ZM367.676 447.723C367.524 448.18 367.33 448.701 367.096 449.287C366.873 449.873 366.657 450.447 366.446 451.01C366.235 451.572 366.053 452.082 365.901 452.539C365.76 452.996 365.69 453.324 365.69 453.523C365.69 453.594 365.725 453.629 365.795 453.629C365.924 453.629 366.118 453.553 366.375 453.4C366.633 453.248 366.926 453.049 367.254 452.803C367.594 452.557 367.946 452.287 368.309 451.994C368.672 451.701 369.018 451.414 369.346 451.133C369.686 450.84 369.991 450.576 370.26 450.342C370.53 450.107 370.735 449.932 370.875 449.814C370.981 449.92 371.104 450.055 371.245 450.219C371.397 450.383 371.537 450.535 371.666 450.676C371.409 450.934 371.086 451.25 370.7 451.625C370.313 451.988 369.891 452.363 369.434 452.75C368.989 453.137 368.52 453.523 368.028 453.91C367.547 454.297 367.073 454.643 366.604 454.947C366.147 455.252 365.719 455.498 365.321 455.686C364.922 455.873 364.588 455.967 364.319 455.967C364.143 455.967 363.92 455.902 363.651 455.773C363.381 455.656 363.123 455.504 362.877 455.316C362.631 455.141 362.42 454.941 362.245 454.719C362.069 454.496 361.981 454.279 361.981 454.068C362.157 453.283 362.332 452.598 362.508 452.012C362.684 451.426 362.848 450.928 363 450.518C363.153 450.096 363.287 449.756 363.405 449.498C363.522 449.24 363.61 449.047 363.668 448.918C363.528 448.859 363.393 448.795 363.264 448.725C363.135 448.654 363.006 448.584 362.877 448.514C362.69 448.713 362.479 448.924 362.245 449.146C362.022 449.369 361.793 449.592 361.559 449.814C361.325 450.037 361.09 450.254 360.856 450.465C360.621 450.676 360.411 450.869 360.223 451.045L359.379 450.184C359.684 449.891 360.053 449.539 360.487 449.129C360.909 448.707 361.325 448.285 361.735 447.863C361.442 447.688 361.178 447.523 360.944 447.371C360.709 447.207 360.51 447.061 360.346 446.932C360.147 446.791 359.971 446.662 359.819 446.545C359.748 446.51 359.713 446.434 359.713 446.316C359.713 446.188 359.766 446.006 359.871 445.771C359.965 445.525 360.088 445.268 360.241 444.998C360.393 444.717 360.557 444.436 360.733 444.154C360.909 443.861 361.079 443.598 361.243 443.363C361.407 443.129 361.547 442.941 361.664 442.801C361.793 442.648 361.875 442.572 361.911 442.572C361.934 442.572 362.01 442.602 362.139 442.66C362.28 442.719 362.426 442.789 362.579 442.871C362.731 442.941 362.871 443.023 363 443.117C363.129 443.211 363.211 443.293 363.246 443.363C363.258 443.422 363.27 443.545 363.282 443.732C363.293 443.92 363.305 444.148 363.317 444.418C363.774 444.652 364.243 444.922 364.723 445.227C365.204 445.52 365.643 445.801 366.041 446.07C366.51 446.375 366.955 446.686 367.377 447.002C367.53 447.096 367.623 447.213 367.659 447.354C367.705 447.494 367.711 447.617 367.676 447.723Z" fill="black"/>
<path d="M385.281 430.563C426.008 423.562 442.96 400.613 446.346 390.013" stroke="black" stroke-width="5" stroke-linecap="round"/>
<path d="M428.526 428.138C428.653 428.079 428.749 427.969 428.791 427.836C428.833 427.703 428.817 427.558 428.747 427.436C427.874 425.919 426.489 424.941 425.354 424.348C424.783 424.049 424.265 423.843 423.888 423.71C423.7 423.644 423.546 423.596 423.438 423.564C423.384 423.548 423.341 423.536 423.311 423.528L423.276 423.519L423.266 423.516L423.263 423.515L423.262 423.515L423.261 423.515C423.261 423.515 423.261 423.515 423.141 423.999L423.261 423.515L423.258 423.514C422.311 423.286 421.027 423.382 420.107 423.904C419.636 424.17 419.225 424.569 419.043 425.129C418.859 425.693 418.935 426.333 419.27 427.022C419.287 427.056 419.307 427.088 419.331 427.118C421.151 429.367 424.648 429.954 428.526 428.138Z" fill="#FFA5A5" stroke="black" stroke-linecap="round" stroke-linejoin="round"/>
<path d="M437.938 421.587C438.051 421.504 438.124 421.378 438.139 421.239C438.155 421.1 438.111 420.961 438.019 420.855C436.87 419.535 435.322 418.843 434.094 418.48C433.475 418.298 432.927 418.195 432.532 418.138C432.335 418.109 432.174 418.091 432.062 418.081C432.006 418.076 431.962 418.073 431.931 418.071L431.895 418.068L431.884 418.068L431.881 418.067L431.88 418.067L431.879 418.067C431.879 418.067 431.879 418.067 431.855 418.565L431.879 418.067L431.876 418.067C430.902 418.026 429.661 418.369 428.859 419.058C428.449 419.41 428.123 419.882 428.052 420.466C427.981 421.054 428.179 421.668 428.641 422.279C428.663 422.31 428.69 422.337 428.719 422.362C430.939 424.217 434.484 424.118 437.938 421.587Z" fill="#FFA5A5" stroke="black" stroke-linecap="round" stroke-linejoin="round"/>
<path d="M446.718 413.739C446.817 413.641 446.87 413.505 446.864 413.365C446.859 413.225 446.795 413.094 446.688 413.004C445.352 411.872 443.717 411.423 442.448 411.249C441.81 411.162 441.252 411.143 440.853 411.146C440.653 411.148 440.492 411.155 440.38 411.162C440.324 411.165 440.279 411.168 440.249 411.171L440.212 411.174L440.202 411.175L440.199 411.175L440.197 411.176L440.197 411.176C440.197 411.176 440.197 411.176 440.248 411.672L440.197 411.176L440.194 411.176C439.225 411.282 438.05 411.809 437.361 412.611C437.009 413.021 436.758 413.536 436.776 414.125C436.794 414.717 437.083 415.294 437.632 415.829C437.659 415.855 437.689 415.878 437.722 415.898C440.197 417.396 443.686 416.763 446.718 413.739Z" fill="#FFA5A5" stroke="black" stroke-linecap="round" stroke-linejoin="round"/>
<path d="M454.832 404.097C454.915 403.985 454.949 403.843 454.923 403.706C454.897 403.568 454.815 403.447 454.697 403.373C453.212 402.445 451.53 402.234 450.249 402.244C449.605 402.249 449.051 402.31 448.656 402.37C448.458 402.401 448.3 402.43 448.19 402.453C448.135 402.465 448.092 402.474 448.061 402.481L448.026 402.49L448.016 402.492L448.012 402.493L448.011 402.493L448.011 402.493C448.011 402.493 448.011 402.493 448.133 402.977L448.011 402.493L448.008 402.494C447.064 402.738 445.976 403.427 445.41 404.32C445.12 404.776 444.945 405.322 445.047 405.902C445.15 406.486 445.518 407.015 446.138 407.466C446.169 407.488 446.202 407.507 446.237 407.522C448.901 408.65 452.264 407.524 454.832 404.097Z" fill="#FFA5A5" stroke="black" stroke-linecap="round" stroke-linejoin="round"/>
<path d="M460.088 392.822C460.158 392.701 460.175 392.556 460.133 392.423C460.092 392.289 459.996 392.179 459.87 392.119C458.287 391.37 456.592 391.357 455.321 391.516C454.682 391.596 454.138 391.722 453.753 391.827C453.561 391.88 453.407 391.928 453.3 391.964C453.247 391.982 453.205 391.996 453.176 392.007L453.141 392.019L453.132 392.023L453.129 392.024L453.127 392.024L453.127 392.024C453.127 392.025 453.127 392.025 453.304 392.491L453.127 392.025L453.124 392.026C452.215 392.378 451.215 393.189 450.757 394.142C450.522 394.629 450.412 395.191 450.581 395.755C450.751 396.323 451.178 396.806 451.847 397.181C451.88 397.2 451.915 397.215 451.951 397.225C454.729 398.035 457.937 396.525 460.088 392.822Z" fill="#FFA5A5" stroke="black" stroke-linecap="round" stroke-linejoin="round"/>
<path d="M461.065 380.515C461.111 380.383 461.1 380.237 461.033 380.114C460.967 379.991 460.852 379.901 460.717 379.866C459.021 379.432 457.354 379.743 456.137 380.141C455.524 380.342 455.015 380.569 454.657 380.746C454.478 380.835 454.336 380.911 454.238 380.966C454.189 380.994 454.151 381.016 454.124 381.032L454.093 381.051L454.084 381.056L454.081 381.058L454.08 381.059L454.08 381.059C454.08 381.059 454.08 381.059 454.343 381.483L454.08 381.059L454.077 381.061C453.252 381.58 452.425 382.567 452.157 383.589C452.019 384.112 452.019 384.685 452.292 385.207C452.567 385.732 453.079 386.124 453.806 386.365C453.842 386.377 453.88 386.385 453.917 386.388C456.798 386.654 459.66 384.56 461.065 380.515Z" fill="#FFA5A5" stroke="black" stroke-linecap="round" stroke-linejoin="round"/>
<path d="M406.899 408.663C406.932 408.527 407.02 408.411 407.142 408.343C407.264 408.274 407.409 408.26 407.542 408.304C409.205 408.851 410.443 410.01 411.254 411.001C411.662 411.5 411.97 411.965 412.176 412.307C412.279 412.478 412.357 412.619 412.41 412.718C412.437 412.768 412.457 412.807 412.471 412.835L412.487 412.868L412.492 412.877L412.493 412.88L412.494 412.881L412.494 412.881C412.494 412.881 412.494 412.882 412.044 413.097L412.494 412.882L412.495 412.884C412.911 413.766 413.077 415.043 412.753 416.049C412.587 416.564 412.279 417.047 411.769 417.339C411.254 417.634 410.612 417.689 409.869 417.501C409.832 417.491 409.796 417.478 409.762 417.461C407.191 416.134 405.907 412.829 406.899 408.663Z" fill="#FFA5A5" stroke="black" stroke-linecap="round" stroke-linejoin="round"/>
<path d="M416.531 403.294C416.584 403.165 416.688 403.063 416.819 403.014C416.95 402.965 417.096 402.973 417.221 403.036C418.782 403.828 419.831 405.161 420.483 406.263C420.811 406.818 421.045 407.324 421.197 407.693C421.273 407.878 421.329 408.029 421.366 408.135C421.385 408.188 421.399 408.23 421.409 408.26L421.42 408.294L421.423 408.304L421.424 408.308L421.424 408.309L421.424 408.309C421.424 408.309 421.425 408.309 420.947 408.454L421.425 408.309L421.425 408.312C421.703 409.246 421.674 410.534 421.202 411.48C420.96 411.963 420.583 412.395 420.034 412.606C419.481 412.82 418.837 412.778 418.131 412.479C418.096 412.464 418.063 412.445 418.033 412.423C415.691 410.723 414.921 407.262 416.531 403.294Z" fill="#FFA5A5" stroke="black" stroke-linecap="round" stroke-linejoin="round"/>
<path d="M424.789 396.876C424.845 396.747 424.952 396.649 425.085 396.603C425.217 396.558 425.362 396.57 425.485 396.637C427.024 397.471 428.036 398.832 428.658 399.952C428.97 400.515 429.19 401.028 429.332 401.401C429.403 401.588 429.455 401.74 429.489 401.847C429.506 401.901 429.519 401.943 429.528 401.973L429.538 402.008L429.541 402.018L429.542 402.021L429.542 402.022L429.543 402.023C429.543 402.023 429.543 402.023 429.062 402.155L429.543 402.023L429.543 402.026C429.796 402.967 429.731 404.254 429.233 405.186C428.978 405.663 428.589 406.084 428.035 406.28C427.476 406.478 426.834 406.419 426.136 406.101C426.102 406.085 426.069 406.065 426.039 406.042C423.745 404.279 423.07 400.798 424.789 396.876Z" fill="#FFA5A5" stroke="black" stroke-linecap="round" stroke-linejoin="round"/>
<path d="M431.347 386.922C431.407 386.795 431.516 386.699 431.65 386.657C431.783 386.614 431.928 386.63 432.049 386.7C433.567 387.572 434.545 388.957 435.139 390.092C435.438 390.663 435.645 391.181 435.778 391.557C435.845 391.745 435.893 391.899 435.925 392.007C435.94 392.061 435.952 392.104 435.96 392.134L435.97 392.169L435.972 392.179L435.973 392.182L435.973 392.183L435.974 392.184C435.974 392.184 435.974 392.184 435.49 392.304L435.974 392.184L435.974 392.187C436.203 393.134 436.107 394.419 435.587 395.339C435.32 395.809 434.921 396.22 434.362 396.403C433.798 396.587 433.158 396.512 432.468 396.177C432.434 396.16 432.402 396.14 432.373 396.116C430.123 394.297 429.533 390.8 431.347 386.922Z" fill="#FFA5A5" stroke="black" stroke-linecap="round" stroke-linejoin="round"/>
<path d="M438.952 376.064C439.025 375.944 439.144 375.861 439.282 375.834C439.419 375.807 439.561 375.838 439.674 375.921C441.086 376.955 441.906 378.44 442.371 379.633C442.605 380.233 442.754 380.771 442.844 381.16C442.889 381.354 442.92 381.512 442.94 381.623C442.95 381.679 442.957 381.722 442.961 381.753L442.967 381.789L442.968 381.8L442.969 381.803L442.969 381.804L442.969 381.804C442.969 381.805 442.969 381.805 442.475 381.871L442.969 381.805L442.969 381.808C443.093 382.774 442.855 384.04 442.236 384.897C441.92 385.336 441.478 385.7 440.901 385.82C440.321 385.941 439.693 385.795 439.045 385.386C439.012 385.366 438.983 385.342 438.956 385.315C436.921 383.259 436.721 379.719 438.952 376.064Z" fill="#FFA5A5" stroke="black" stroke-linecap="round" stroke-linejoin="round"/>
<path d="M228.388 430.563C187.661 423.562 170.709 400.613 167.323 390.013" stroke="black" stroke-width="5" stroke-linecap="round"/>
<path d="M185.143 428.138C185.017 428.079 184.921 427.969 184.878 427.836C184.836 427.703 184.852 427.558 184.922 427.436C185.795 425.919 187.18 424.941 188.315 424.348C188.886 424.049 189.404 423.843 189.781 423.71C189.969 423.644 190.123 423.596 190.231 423.564C190.285 423.548 190.328 423.536 190.358 423.528L190.393 423.519L190.403 423.516L190.406 423.515L190.407 423.515L190.408 423.515C190.408 423.515 190.408 423.515 190.528 423.999L190.408 423.515L190.411 423.514C191.358 423.286 192.643 423.382 193.563 423.904C194.033 424.17 194.444 424.569 194.626 425.129C194.81 425.693 194.735 426.333 194.399 427.022C194.383 427.056 194.362 427.088 194.338 427.118C192.518 429.367 189.021 429.954 185.143 428.138Z" fill="#FFA5A5" stroke="black" stroke-linecap="round" stroke-linejoin="round"/>
<path d="M175.731 421.587C175.618 421.504 175.545 421.378 175.53 421.239C175.514 421.1 175.558 420.961 175.65 420.855C176.799 419.535 178.347 418.843 179.576 418.48C180.194 418.298 180.742 418.195 181.137 418.138C181.335 418.109 181.495 418.091 181.607 418.081C181.663 418.076 181.707 418.073 181.738 418.071L181.774 418.068L181.785 418.068L181.788 418.067L181.789 418.067L181.79 418.067C181.79 418.067 181.79 418.067 181.814 418.565L181.79 418.067L181.793 418.067C182.767 418.026 184.008 418.369 184.81 419.058C185.22 419.41 185.546 419.882 185.617 420.466C185.689 421.054 185.491 421.668 185.029 422.279C185.006 422.31 184.979 422.337 184.95 422.362C182.73 424.217 179.185 424.118 175.731 421.587Z" fill="#FFA5A5" stroke="black" stroke-linecap="round" stroke-linejoin="round"/>
<path d="M166.951 413.739C166.852 413.641 166.799 413.505 166.805 413.365C166.811 413.225 166.875 413.094 166.981 413.004C168.317 411.872 169.952 411.423 171.221 411.249C171.86 411.162 172.417 411.143 172.816 411.146C173.016 411.148 173.177 411.155 173.289 411.162C173.346 411.165 173.39 411.168 173.421 411.171L173.457 411.174L173.467 411.175L173.471 411.175L173.472 411.176L173.472 411.176C173.472 411.176 173.473 411.176 173.421 411.672L173.473 411.176L173.475 411.176C174.444 411.282 175.62 411.809 176.308 412.611C176.66 413.021 176.911 413.536 176.893 414.125C176.875 414.717 176.587 415.294 176.037 415.829C176.01 415.855 175.98 415.878 175.948 415.898C173.473 417.396 169.983 416.763 166.951 413.739Z" fill="#FFA5A5" stroke="black" stroke-linecap="round" stroke-linejoin="round"/>
<path d="M158.838 404.097C158.754 403.985 158.721 403.843 158.746 403.706C158.772 403.568 158.854 403.447 158.973 403.373C160.457 402.445 162.139 402.234 163.42 402.244C164.064 402.249 164.619 402.31 165.013 402.37C165.211 402.401 165.369 402.43 165.479 402.453C165.534 402.465 165.578 402.474 165.608 402.481L165.643 402.49L165.654 402.492L165.657 402.493L165.658 402.493L165.658 402.493C165.658 402.493 165.659 402.493 165.537 402.977L165.659 402.493L165.661 402.494C166.605 402.738 167.693 403.427 168.259 404.32C168.549 404.776 168.724 405.322 168.622 405.902C168.519 406.486 168.151 407.015 167.531 407.466C167.5 407.488 167.467 407.507 167.432 407.522C164.768 408.65 161.406 407.524 158.838 404.097Z" fill="#FFA5A5" stroke="black" stroke-linecap="round" stroke-linejoin="round"/>
<path d="M153.581 392.822C153.511 392.701 153.494 392.556 153.536 392.423C153.577 392.289 153.673 392.179 153.8 392.119C155.382 391.37 157.077 391.357 158.348 391.516C158.987 391.596 159.531 391.722 159.916 391.827C160.108 391.88 160.262 391.928 160.369 391.964C160.422 391.982 160.464 391.996 160.494 392.007L160.528 392.019L160.538 392.023L160.541 392.024L160.542 392.024L160.542 392.024C160.542 392.025 160.542 392.025 160.365 392.491L160.542 392.025L160.545 392.026C161.454 392.378 162.454 393.189 162.913 394.142C163.147 394.629 163.257 395.191 163.088 395.755C162.918 396.323 162.491 396.806 161.822 397.181C161.789 397.2 161.754 397.215 161.718 397.225C158.94 398.035 155.732 396.525 153.581 392.822Z" fill="#FFA5A5" stroke="black" stroke-linecap="round" stroke-linejoin="round"/>
<path d="M152.604 380.515C152.558 380.383 152.569 380.237 152.636 380.114C152.702 379.991 152.817 379.901 152.952 379.866C154.648 379.432 156.315 379.743 157.532 380.141C158.145 380.342 158.654 380.569 159.012 380.746C159.191 380.835 159.333 380.911 159.431 380.966C159.48 380.994 159.518 381.016 159.545 381.032L159.576 381.051L159.585 381.056L159.588 381.058L159.589 381.059L159.589 381.059C159.589 381.059 159.59 381.059 159.326 381.483L159.59 381.059L159.592 381.061C160.417 381.58 161.244 382.567 161.513 383.589C161.65 384.112 161.651 384.685 161.377 385.207C161.102 385.732 160.591 386.124 159.863 386.365C159.827 386.377 159.79 386.385 159.752 386.388C156.871 386.654 154.009 384.56 152.604 380.515Z" fill="#FFA5A5" stroke="black" stroke-linecap="round" stroke-linejoin="round"/>
<path d="M206.77 408.663C206.738 408.527 206.65 408.411 206.527 408.343C206.405 408.274 206.26 408.26 206.127 408.304C204.464 408.851 203.226 410.01 202.415 411.001C202.007 411.5 201.7 411.965 201.493 412.307C201.39 412.478 201.312 412.619 201.259 412.718C201.233 412.768 201.212 412.807 201.198 412.835L201.182 412.868L201.177 412.877L201.176 412.88L201.176 412.881L201.175 412.881C201.175 412.881 201.175 412.882 201.625 413.097L201.175 412.882L201.174 412.884C200.758 413.766 200.592 415.043 200.916 416.049C201.082 416.564 201.39 417.047 201.901 417.339C202.415 417.634 203.058 417.689 203.8 417.501C203.837 417.491 203.873 417.478 203.907 417.461C206.478 416.134 207.762 412.829 206.77 408.663Z" fill="#FFA5A5" stroke="black" stroke-linecap="round" stroke-linejoin="round"/>
<path d="M197.138 403.294C197.085 403.165 196.981 403.063 196.85 403.014C196.719 402.965 196.573 402.973 196.448 403.036C194.887 403.828 193.838 405.161 193.186 406.263C192.858 406.818 192.625 407.324 192.472 407.693C192.396 407.878 192.34 408.029 192.303 408.135C192.284 408.188 192.27 408.23 192.26 408.26L192.249 408.294L192.246 408.304L192.245 408.308L192.245 408.309L192.245 408.309C192.245 408.309 192.245 408.309 192.722 408.454L192.245 408.309L192.244 408.312C191.966 409.246 191.995 410.534 192.467 411.48C192.709 411.963 193.086 412.395 193.635 412.606C194.188 412.82 194.832 412.778 195.538 412.479C195.573 412.464 195.606 412.445 195.637 412.423C197.978 410.723 198.748 407.262 197.138 403.294Z" fill="#FFA5A5" stroke="black" stroke-linecap="round" stroke-linejoin="round"/>
<path d="M188.88 396.876C188.824 396.747 188.717 396.649 188.584 396.603C188.452 396.558 188.307 396.57 188.184 396.637C186.645 397.471 185.633 398.832 185.012 399.952C184.699 400.515 184.479 401.028 184.337 401.401C184.266 401.588 184.214 401.74 184.18 401.847C184.163 401.901 184.15 401.943 184.141 401.973L184.131 402.008L184.128 402.018L184.127 402.021L184.127 402.022L184.127 402.023C184.127 402.023 184.127 402.023 184.607 402.155L184.127 402.023L184.126 402.026C183.873 402.967 183.938 404.254 184.436 405.186C184.691 405.663 185.08 406.084 185.635 406.28C186.193 406.478 186.836 406.419 187.533 406.101C187.567 406.085 187.6 406.065 187.63 406.042C189.924 404.279 190.599 400.798 188.88 396.876Z" fill="#FFA5A5" stroke="black" stroke-linecap="round" stroke-linejoin="round"/>
<path d="M182.322 386.922C182.263 386.795 182.153 386.699 182.02 386.657C181.886 386.614 181.741 386.63 181.62 386.7C180.102 387.572 179.124 388.957 178.53 390.092C178.231 390.663 178.024 391.181 177.891 391.557C177.825 391.745 177.777 391.899 177.745 392.007C177.729 392.061 177.717 392.104 177.709 392.134L177.699 392.169L177.697 392.179L177.696 392.182L177.696 392.183L177.696 392.184C177.696 392.184 177.696 392.184 178.18 392.304L177.696 392.184L177.695 392.187C177.466 393.134 177.562 394.419 178.083 395.339C178.349 395.809 178.748 396.22 179.307 396.403C179.871 396.587 180.511 396.512 181.201 396.177C181.235 396.16 181.267 396.14 181.297 396.116C183.546 394.297 184.136 390.8 182.322 386.922Z" fill="#FFA5A5" stroke="black" stroke-linecap="round" stroke-linejoin="round"/>
<path d="M174.717 376.064C174.645 375.944 174.525 375.861 174.388 375.834C174.25 375.807 174.108 375.838 173.995 375.921C172.583 376.955 171.763 378.44 171.298 379.633C171.064 380.233 170.916 380.771 170.825 381.16C170.78 381.354 170.749 381.512 170.729 381.623C170.72 381.679 170.713 381.722 170.708 381.753L170.702 381.789L170.701 381.8L170.7 381.803L170.7 381.804L170.7 381.804C170.7 381.805 170.7 381.805 171.194 381.871L170.7 381.805L170.7 381.808C170.577 382.774 170.814 384.04 171.433 384.897C171.75 385.336 172.192 385.7 172.768 385.82C173.348 385.941 173.976 385.795 174.625 385.386C174.657 385.366 174.686 385.342 174.713 385.315C176.749 383.259 176.948 379.719 174.717 376.064Z" fill="#FFA5A5" stroke="black" stroke-linecap="round" stroke-linejoin="round"/>
</svg>
